<?xml version="1.0" encoding="UTF-8" standalone="no"?>
<!-- Created with Inkscape (http://www.inkscape.org/) -->

<svg
   version="1.1"
   id="svg1380"
   xml:space="preserve"
   width="1000"
   height="666.66669"
   viewBox="0 0 1000 666.66669"
   sodipodi:docname="1.svg"
   inkscape:version="1.1.2 (0a00cf5339, 2022-02-04, custom)"
   xmlns:inkscape="http://www.inkscape.org/namespaces/inkscape"
   xmlns:sodipodi="http://sodipodi.sourceforge.net/DTD/sodipodi-0.dtd"
   xmlns="http://www.w3.org/2000/svg"
   xmlns:svg="http://www.w3.org/2000/svg"><defs
     id="defs1384" /><sodipodi:namedview
     id="namedview1382"
     pagecolor="#ffffff"
     bordercolor="#666666"
     borderopacity="1.0"
     inkscape:pageshadow="2"
     inkscape:pageopacity="0.0"
     inkscape:pagecheckerboard="0"
     showgrid="false"
     inkscape:zoom="0.70710678"
     inkscape:cx="-232.63813"
     inkscape:cy="29.698485"
     inkscape:window-width="1920"
     inkscape:window-height="1003"
     inkscape:window-x="0"
     inkscape:window-y="0"
     inkscape:window-maximized="1"
     inkscape:current-layer="g1386" /><g
     id="g1386"
     inkscape:groupmode="layer"
     inkscape:label="ink_ext_XXXXXX"
     transform="matrix(1.3333333,0,0,-1.3333333,0,666.66667)"><g
       id="g1388"
       transform="scale(0.1)"><path
         d="M 0,0 H 7500 V 5000 H 0 Z"
         style="fill:#ECB365;fill-opacity:1;fill-rule:nonzero;stroke:none"
         id="path1390" /><path
         d="M 5838.03,795.512 H 1429.95 c -198.49,0 -385.88,91.57 -507.829,248.178 l -355.238,456.15 c -202.188,259.63 -175.981,629.95 60.754,858.53 122.855,118.61 193.535,281.19 196.484,451.94 6.856,397.35 297.419,732.68 689.749,796.06 361.8,58.45 738.99,118.22 768.11,118.22 0.16,0 0.32,0 0.47,-0.01 0.04,0 0.07,0 0.11,0 12.93,0.01 93.92,56.22 207.61,140.1 467.35,344.84 1028.83,526.49 1599.62,526.49 191.93,0 385.03,-20.56 575.81,-62.37 l 984.13,-215.66 c 277.43,-60.8 506.72,-228.05 651.37,-451.39 -98.2,-12.84 -177.43,-85.85 -199.6,-180.8 -7.04,0.81 -14.19,1.26 -21.44,1.26 -74.52,0 -138.8,-43.73 -168.64,-106.92 -40.48,32.28 -91.73,51.62 -147.52,51.62 -79.39,0 -149.6,-39.1 -192.58,-99.05 h 499.19 c -11.11,-6.16 -21.26,-14.17 -30.39,-24.02 l 51.67,-75.91 c 4.5,2.73 9.64,6.19 15.41,10.44 5.71,4.25 12.44,7.49 20.08,9.71 3,0.87 6.13,1.3 9.39,1.3 5.03,0 10.35,-1.04 15.97,-3.12 6.18,-2.29 11.46,-5.57 15.85,-9.79 4.34,-4.22 7.34,-9.15 9.02,-14.76 1.68,-5.59 1.45,-11.27 -0.66,-16.98 -2.98,-8.03 -8.53,-14.32 -16.63,-18.9 -8.04,-4.62 -17.16,-8.08 -27.25,-10.4 -10.11,-2.34 -19.82,-3.92 -29.16,-4.8 -9.35,-0.88 -16.57,-1.69 -21.66,-2.38 -16.61,-2.11 -29.86,-6.4 -39.74,-12.93 -9.94,-6.54 -17.55,-14.46 -22.97,-23.72 -5.42,-9.26 -10.21,-19.43 -14.31,-30.49 l 89.88,-33.35 c 3.12,8.43 9.78,13.93 19.97,16.49 10.17,2.53 22.15,4.29 35.94,5.29 13.78,0.98 27.66,3.24 41.74,6.74 10.62,2.61 20.2,6.14 28.68,10.61 8.48,4.48 15.92,9.77 22.37,15.89 6.45,6.11 12,13.1 16.68,20.95 4.69,7.84 8.71,16.39 12.13,25.59 7.95,21.44 10.93,41.03 8.92,58.79 -1.95,17.74 -7.44,33.49 -16.38,47.28 -9,13.8 -20.1,25.54 -33.45,35.3 -9.24,6.74 -18.8,12.47 -28.72,17.17 h 239.4 c 24.65,-107.81 32.4,-221.16 20.75,-336.62 v -0.01 c -14.22,-140.92 18.44,-282.6 92.92,-403.07 h 0.01 c 306.74,-496.17 224.32,-1139.33 -197.61,-1542.13 l -75.89,-72.44 C 6162.73,859.289 6003.56,795.512 5838.03,795.512 m 176.68,2236.198 c -19.47,0 -37.78,-11.96 -44.95,-31.28 l -1.93,-5.19 c -9.21,-24.82 3.46,-52.41 28.27,-61.62 5.5,-2.04 11.13,-3 16.67,-3 19.47,0 37.78,11.95 44.95,31.27 l 1.93,5.19 c 9.21,24.82 -3.45,52.41 -28.27,61.62 -5.5,2.04 -11.13,3.01 -16.67,3.01 m -120,23.62 c -1.74,0 -3.51,-0.13 -5.29,-0.4 -19.09,-2.9 -32.22,-20.72 -29.32,-39.81 l 0.6,-3.99 c 2.62,-17.32 17.53,-29.73 34.52,-29.73 1.75,0 3.51,0.13 5.29,0.4 h 0.01 c 19.08,2.9 32.21,20.73 29.31,39.81 l -0.6,4 c -2.62,17.31 -17.53,29.72 -34.52,29.72 m 0.57,181.67 c 2.82,0 5.56,-0.36 8.21,-1.07 4.25,-1.15 7.92,-3.23 10.96,-6.22 3.06,-2.98 4.92,-6.68 5.58,-11.08 0.94,-6.16 -0.38,-12.14 -3.92,-17.93 -3.5,-5.78 -8.1,-11.21 -13.72,-16.26 -5.62,-5.07 -11.26,-9.5 -16.91,-13.37 -5.65,-3.86 -9.97,-6.94 -12.97,-9.17 -9.86,-7.21 -16.79,-14.63 -20.79,-22.29 -4.04,-7.69 -6.09,-15.42 -6.27,-23.25 -0.2,-7.82 0.34,-16 1.63,-24.51 l 69.14,10.49 c -0.99,6.47 1.32,12.34 6.91,17.57 5.6,5.21 12.61,10.56 21.06,16.07 8.45,5.5 16.51,11.84 24.25,19.05 5.87,5.42 10.72,11.06 14.55,16.91 3.83,5.85 6.71,11.86 8.66,18.04 1.96,6.18 3.03,12.6 3.24,19.26 0.22,6.66 -0.23,13.53 -1.31,20.61 -2.5,16.49 -7.53,30.04 -15.08,40.66 -7.5,10.63 -16.57,18.74 -27.15,24.38 -10.62,5.63 -21.86,9.2 -33.81,10.7 -5.59,0.71 -11.11,1.06 -16.56,1.06 -6.18,0 -12.28,-0.46 -18.29,-1.37 -14.26,-2.16 -27.24,-6.49 -38.87,-12.96 -11.64,-6.48 -21.43,-14.65 -29.33,-24.52 -7.93,-9.88 -13.51,-21.3 -16.71,-34.24 l 59.79,-30.18 c 1.9,3.34 3.96,7.37 6.14,12.11 2.14,4.73 5.29,9.18 9.39,13.29 4.09,4.1 9.7,6.72 16.81,7.8 1.83,0.28 3.61,0.42 5.37,0.42"
         style="fill:#d1f0fc;fill-opacity:1;fill-rule:nonzero;stroke:none"
         id="path1392" /><path
         d="m 6690.85,3327.86 c -21.67,52.65 -66.64,93.24 -122.18,108.73 -5.08,126.31 -109.03,227.17 -236.59,227.17 -112.21,0 -206.12,-78.06 -230.58,-182.81 -7.04,0.81 -14.19,1.26 -21.44,1.26 -74.52,0 -138.8,-43.73 -168.64,-106.92 -40.48,32.28 -91.73,51.62 -147.52,51.62 -79.39,0 -149.6,-39.1 -192.58,-99.05 h 1119.53"
         style="fill:#ffffff;fill-opacity:1;fill-rule:nonzero;stroke:none"
         id="path1394" /><path
         d="m 1456.21,2719.96 c -14.55,35.35 -44.75,62.61 -82.05,73.01 -3.41,84.82 -73.22,152.55 -158.88,152.55 -75.35,0 -138.41,-52.41 -154.84,-122.76 -4.73,0.54 -9.53,0.85 -14.4,0.85 -50.04,0 -93.204,-29.37 -113.243,-71.8 -27.184,21.68 -61.598,34.66 -99.063,34.66 -53.312,0 -100.464,-26.25 -129.32,-66.51 h 751.796"
         style="fill:#ffffff;fill-opacity:1;fill-rule:nonzero;stroke:none"
         id="path1396" /><path
         d="m 2406.86,3834.83 c 10.55,25.63 32.45,45.39 59.49,52.93 2.47,61.5 53.09,110.61 115.2,110.61 54.63,0 100.35,-38 112.26,-89 3.43,0.39 6.91,0.61 10.45,0.61 36.28,0 67.58,-21.29 82.1,-52.06 19.71,15.72 44.67,25.13 71.83,25.13 38.66,0 72.84,-19.04 93.76,-48.22 h -545.09"
         style="fill:#ffffff;fill-opacity:1;fill-rule:nonzero;stroke:none"
         id="path1398" /><path
         d="m 1989.79,3359.45 c -23.86,-37.33 -57.34,-68 -96.82,-88.4 -20.76,-10.94 -43.21,-18.89 -66.78,-23.56 -16.09,-3.28 -32.84,-4.96 -49.86,-4.96 -28.34,0 -55.65,4.67 -81.1,13.37 -19.64,6.55 -38.25,15.53 -55.37,26.57 -37.32,23.76 -68,57.15 -88.48,96.71 -8.42,16.09 -15.06,33.21 -19.83,51.17 -5.62,20.86 -8.61,42.84 -8.61,65.48 0,22.63 2.99,44.61 8.61,65.47 4.77,17.96 11.41,35.08 19.92,51.26 20.48,39.47 51.07,72.86 88.39,96.72 17.12,11.03 35.73,20.01 55.37,26.56 25.45,8.7 52.76,13.37 81.1,13.37 17.02,0 33.77,-1.68 49.86,-4.95 23.57,-4.68 46.02,-12.63 66.78,-23.57 39.48,-20.39 72.86,-51.08 96.82,-88.4 13.84,-21.6 24.5,-45.55 31.24,-70.99 5.61,-20.86 8.6,-42.84 8.6,-65.47 0,-22.64 -2.99,-44.62 -8.6,-65.48 -6.74,-25.44 -17.4,-49.3 -31.24,-70.9 z m 382.64,87.14 v 98.44 c 0,20.2 -16.38,36.58 -36.58,36.58 h -93.72 c -13.11,71.95 -42.53,138.15 -84.33,194.78 l 68.88,68.88 c 14.29,14.29 14.29,37.45 0,51.74 l -69.6,69.61 c -14.29,14.29 -37.46,14.29 -51.74,0 l -72.56,-72.56 c -56.51,36.4 -121.35,61.16 -191.1,70.73 v 111 c 0,20.2 -16.38,36.58 -36.59,36.58 h -98.43 c -20.21,0 -36.59,-16.38 -36.59,-36.58 v -118.48 c -63.98,-14.59 -123.06,-42.29 -174.3,-79.92 l -89.35,89.26 c -14.29,14.27 -37.45,14.26 -51.73,-0.01 l -69.62,-69.63 c -14.29,-14.29 -14.29,-37.45 0,-51.74 l 93.03,-93.03 c -32.86,-50.99 -56.14,-108.72 -67.54,-170.63 H 1175.9 c -20.2,0 -36.58,-16.38 -36.58,-36.58 v -98.44 c 0,-20.2 16.38,-36.59 36.58,-36.59 h 134.66 c 11.4,-61.89 34.68,-119.51 67.54,-170.5 l -93.03,-93.03 c -14.29,-14.28 -14.29,-37.45 0,-51.73 l 69.62,-69.63 c 14.28,-14.28 37.44,-14.29 51.73,-0.02 l 89.35,89.26 c 51.24,-37.75 110.32,-65.45 174.3,-80.04 v -118.48 c 0,-20.2 16.38,-36.58 36.59,-36.58 h 98.43 c 20.21,0 36.59,16.38 36.59,36.58 v 111 c 69.75,9.57 134.59,34.45 191.1,70.85 l 72.56,-72.56 c 14.28,-14.29 37.45,-14.29 51.74,0 l 69.6,69.62 c 14.29,14.28 14.29,37.45 0,51.73 l -68.88,68.89 c 41.8,56.63 71.1,122.82 84.33,194.64 h 93.72 c 20.2,0 36.58,16.39 36.58,36.59"
         style="fill:#f14557;fill-opacity:1;fill-rule:nonzero;stroke:none"
         id="path1400" /><path
         d="m 2335.85,3581.61 h -93.72 c -13.11,71.95 -42.53,138.15 -84.33,194.78 l 68.88,68.88 c 14.29,14.29 14.29,37.45 0,51.74 l -69.6,69.61 c -14.29,14.29 -37.46,14.29 -51.74,0 l -72.56,-72.56 c -56.51,36.4 -121.35,61.16 -191.1,70.73 v 111 c 0,20.2 -16.38,36.58 -36.59,36.58 h -98.43 c -20.21,0 -36.59,-16.38 -36.59,-36.58 v -118.48 c -63.98,-14.59 -123.06,-42.29 -174.3,-79.92 l -89.35,89.26 c -14.29,14.27 -37.45,14.26 -51.73,-0.01 l -69.62,-69.63 c -14.29,-14.29 -14.29,-37.45 0,-51.74 l 93.03,-93.03 c -32.86,-50.99 -56.15,-108.72 -67.54,-170.63 h -12.51 c 68.78,-95.63 160.48,-173.63 267.21,-225.78 -5,7.53 -9.7,15.28 -13.88,23.35 -8.42,16.09 -15.06,33.21 -19.83,51.17 -5.62,20.86 -8.61,42.84 -8.61,65.48 0,22.63 2.99,44.61 8.61,65.47 4.77,17.96 11.41,35.08 19.92,51.26 20.48,39.47 51.07,72.86 88.39,96.72 17.12,11.03 35.73,20.01 55.37,26.56 25.45,8.7 52.76,13.37 81.1,13.37 17.02,0 33.77,-1.68 49.86,-4.95 23.57,-4.68 46.02,-12.63 66.78,-23.57 39.48,-20.39 72.86,-51.08 96.81,-88.4 13.85,-21.6 24.51,-45.55 31.25,-70.99 5.61,-20.86 8.6,-42.84 8.6,-65.47 0,-22.64 -2.99,-44.62 -8.6,-65.48 -6.74,-25.44 -17.4,-49.3 -31.25,-70.9 -19.09,-29.88 -44.44,-55.4 -74.02,-74.89 115.99,5.94 224.57,39.71 319.48,94.49 2.6,10.2 4.97,20.5 6.89,30.95 h 42.18 c 31.29,21.63 60.72,45.72 88.12,71.93 v 63.1 c 0,20.2 -16.38,36.58 -36.58,36.58"
         style="fill:#f25466;fill-opacity:1;fill-rule:nonzero;stroke:none"
         id="path1402" /><path
         d="m 3949.36,605.559 h -804.44 v 525.121 h 804.44 V 605.559"
         style="fill:#285fb5;fill-opacity:1;fill-rule:nonzero;stroke:none"
         id="path1404" /><path
         d="m 3949.36,897.621 h -804.44 v 233.059 h 804.44 V 897.621"
         style="fill:#244ba5;fill-opacity:1;fill-rule:nonzero;stroke:none"
         id="path1406" /><path
         d="M 5472.65,1310.57 H 1621.63 v 1992.54 c 0,106.43 86.27,192.7 192.69,192.7 h 3465.63 c 106.43,0 192.7,-86.27 192.7,-192.7 V 1310.57"
         style="fill:#285fb5;fill-opacity:1;fill-rule:nonzero;stroke:none"
         id="path1408" /><path
         d="M 5338.4,1412.85 H 1755.87 V 3268.54 H 5338.4 V 1412.85"
         style="fill:#69b5e7;fill-opacity:1;fill-rule:nonzero;stroke:none"
         id="path1410" /><path
         d="M 5472.65,1412.85 H 1621.63 v -194.51 c 0,-106.43 86.27,-192.7 192.69,-192.7 h 3465.63 c 106.43,0 192.7,86.27 192.7,192.7 v 194.51"
         style="fill:#48b0e7;fill-opacity:1;fill-rule:nonzero;stroke:none"
         id="path1412" /><path
         d="m 3620,1203.54 c 0,40.26 -32.62,72.88 -72.87,72.88 -40.24,0 -72.86,-32.62 -72.86,-72.88 0,-40.24 32.62,-72.86 72.86,-72.86 40.25,0 72.87,32.62 72.87,72.86"
         style="fill:#285fb5;fill-opacity:1;fill-rule:nonzero;stroke:none"
         id="path1414" /><path
         d="M 4998.01,510.582 H 2096.26 c -26.72,0 -48.39,21.668 -48.39,48.387 0,78.191 63.37,141.562 141.54,141.562 h 2715.44 c 78.19,0 141.56,-63.371 141.56,-141.562 0,-26.719 -21.67,-48.387 -48.4,-48.387"
         style="fill:#48b0e7;fill-opacity:1;fill-rule:nonzero;stroke:none"
         id="path1416" /><path
         d="m 5159.46,2791.03 h -750.35 c -12.1,0 -21.91,9.81 -21.91,21.92 v 154.81 c 0,12.1 9.81,21.92 21.91,21.92 h 750.35 c 12.1,0 21.92,-9.82 21.92,-21.92 v -154.81 c 0,-12.11 -9.82,-21.92 -21.92,-21.92"
         style="fill:#98dbf7;fill-opacity:1;fill-rule:nonzero;stroke:none"
         id="path1418" /><path
         d="m 4499.08,2857.49 -30.4,-13.92 3.84,33.22 -22.63,24.61 32.78,6.61 16.41,29.12 16.42,-29.12 32.77,-6.61 -22.63,-24.61 3.84,-33.22 -30.4,13.92"
         style="fill:#f25879;fill-opacity:1;fill-rule:nonzero;stroke:none"
         id="path1420" /><path
         d="m 4641.68,2857.49 -30.39,-13.92 3.84,33.22 -22.63,24.61 32.77,6.61 16.41,29.12 16.42,-29.12 32.77,-6.61 -22.63,-24.61 3.84,-33.22 -30.4,13.92"
         style="fill:#f25879;fill-opacity:1;fill-rule:nonzero;stroke:none"
         id="path1422" /><path
         d="m 4784.29,2857.49 -30.4,-13.92 3.83,33.22 -22.62,24.61 32.77,6.61 16.42,29.12 16.41,-29.12 32.78,-6.61 -22.63,-24.61 3.84,-33.22 -30.4,13.92"
         style="fill:#f25879;fill-opacity:1;fill-rule:nonzero;stroke:none"
         id="path1424" /><path
         d="m 4926.88,2857.49 -30.4,-13.92 3.84,33.22 -22.62,24.61 32.77,6.61 16.41,29.12 16.42,-29.12 32.77,-6.61 -22.62,-24.61 3.84,-33.22 -30.41,13.92"
         style="fill:#f25879;fill-opacity:1;fill-rule:nonzero;stroke:none"
         id="path1426" /><path
         d="m 5069.49,2857.49 -30.4,-13.92 3.84,33.22 -22.63,24.61 32.78,6.61 16.41,29.12 16.41,-29.12 32.77,-6.61 -22.63,-24.61 3.84,-33.22 -30.39,13.92"
         style="fill:#f6f6f4;fill-opacity:1;fill-rule:nonzero;stroke:none"
         id="path1428" /><path
         d="m 2756.72,2829.07 h -799.99 c -24.21,0 -43.83,19.63 -43.83,43.84 v 188.39 c 0,24.21 19.62,43.84 43.83,43.84 h 799.99 c 24.21,0 43.84,-19.63 43.84,-43.84 v -188.39 c 0,-24.21 -19.63,-43.84 -43.84,-43.84"
         style="fill:#98dbf7;fill-opacity:1;fill-rule:nonzero;stroke:none"
         id="path1430" /><path
         d="m 2138.01,2967.1 c 0,42.75 -34.66,77.4 -77.4,77.4 -42.74,0 -77.4,-34.65 -77.4,-77.4 0,-42.74 34.66,-77.39 77.4,-77.39 42.74,0 77.4,34.65 77.4,77.39"
         style="fill:#f25879;fill-opacity:1;fill-rule:nonzero;stroke:none"
         id="path1432" /><path
         d="m 2008.65,2909.86 c 13.74,-12.48 31.93,-20.15 51.96,-20.15 20.03,0 38.22,7.67 51.96,20.15 -1.61,20.15 -14.53,37.07 -32.53,44.29 7.71,5.88 12.76,15.07 12.76,25.51 0,17.78 -14.41,32.2 -32.19,32.2 -17.78,0 -32.19,-14.42 -32.19,-32.2 0,-10.44 5.05,-19.63 12.76,-25.51 -17.99,-7.22 -30.92,-24.14 -32.53,-44.29"
         style="fill:#f6f6f4;fill-opacity:1;fill-rule:nonzero;stroke:none"
         id="path1434" /><path
         d="m 2606.7,2992.73 h -412.53 v 14.77 h 412.53 v -14.77"
         style="fill:#cdeffc;fill-opacity:1;fill-rule:nonzero;stroke:none"
         id="path1436" /><path
         d="m 2730.24,2959.72 h -536.07 v 14.77 h 536.07 v -14.77"
         style="fill:#cdeffc;fill-opacity:1;fill-rule:nonzero;stroke:none"
         id="path1438" /><path
         d="m 2730.24,2926.71 h -536.07 v 14.77 h 536.07 v -14.77"
         style="fill:#cdeffc;fill-opacity:1;fill-rule:nonzero;stroke:none"
         id="path1440" /><path
         d="m 2397.22,2593.33 h -462.41 c -12.1,0 -21.91,9.82 -21.91,21.92 v 82.79 c 0,12.11 9.81,21.92 21.91,21.92 h 462.41 c 12.11,0 21.92,-9.81 21.92,-21.92 v -82.79 c 0,-12.1 -9.81,-21.92 -21.92,-21.92"
         style="fill:#98dbf7;fill-opacity:1;fill-rule:nonzero;stroke:none"
         id="path1442" /><path
         d="m 2397.22,2414.42 h -462.41 c -12.1,0 -21.91,9.82 -21.91,21.93 v 82.79 c 0,12.1 9.81,21.91 21.91,21.91 h 462.41 c 12.11,0 21.92,-9.81 21.92,-21.91 v -82.79 c 0,-12.11 -9.81,-21.93 -21.92,-21.93"
         style="fill:#98dbf7;fill-opacity:1;fill-rule:nonzero;stroke:none"
         id="path1444" /><path
         d="m 2397.22,2235.52 h -462.41 c -12.1,0 -21.91,9.81 -21.91,21.92 v 82.78 c 0,12.11 9.81,21.92 21.91,21.92 h 462.41 c 12.11,0 21.92,-9.81 21.92,-21.92 v -82.78 c 0,-12.11 -9.81,-21.92 -21.92,-21.92"
         style="fill:#cdeffc;fill-opacity:1;fill-rule:nonzero;stroke:none"
         id="path1446" /><path
         d="m 2980.43,2414.42 h -462.4 c -12.11,0 -21.92,9.82 -21.92,21.93 v 82.79 c 0,12.1 9.81,21.91 21.92,21.91 h 462.4 c 12.11,0 21.92,-9.81 21.92,-21.91 v -82.79 c 0,-12.11 -9.81,-21.93 -21.92,-21.93"
         style="fill:#f25879;fill-opacity:1;fill-rule:nonzero;stroke:none"
         id="path1448" /><path
         d="m 2980.43,2235.52 h -462.4 c -12.11,0 -21.92,9.81 -21.92,21.92 v 82.78 c 0,12.11 9.81,21.92 21.92,21.92 h 462.4 c 12.11,0 21.92,-9.81 21.92,-21.92 v -82.78 c 0,-12.11 -9.81,-21.92 -21.92,-21.92"
         style="fill:#98dbf7;fill-opacity:1;fill-rule:nonzero;stroke:none"
         id="path1450" /><path
         d="m 5159.46,2351.11 h -462.41 c -12.1,0 -21.91,9.82 -21.91,21.93 v 82.78 c 0,12.11 9.81,21.92 21.91,21.92 h 462.41 c 12.1,0 21.92,-9.81 21.92,-21.92 v -82.78 c 0,-12.11 -9.82,-21.93 -21.92,-21.93"
         style="fill:#f25879;fill-opacity:1;fill-rule:nonzero;stroke:none"
         id="path1452" /><path
         d="m 5159.46,2172.21 h -462.41 c -12.1,0 -21.91,9.81 -21.91,21.91 v 82.79 c 0,12.1 9.81,21.92 21.91,21.92 h 462.41 c 12.1,0 21.92,-9.82 21.92,-21.92 v -82.79 c 0,-12.1 -9.82,-21.91 -21.92,-21.91"
         style="fill:#98dbf7;fill-opacity:1;fill-rule:nonzero;stroke:none"
         id="path1454" /><path
         d="m 5159.46,1993.3 h -462.41 c -12.1,0 -21.91,9.82 -21.91,21.91 v 82.8 c 0,12.1 9.81,21.91 21.91,21.91 h 462.41 c 12.1,0 21.92,-9.81 21.92,-21.91 v -82.8 c 0,-12.09 -9.82,-21.91 -21.92,-21.91"
         style="fill:#cdeffc;fill-opacity:1;fill-rule:nonzero;stroke:none"
         id="path1456" /><path
         d="m 2939.91,3144.21 c -22.85,-577.28 -291.31,-635.72 0,-1052.16 291.3,-416.43 1294.62,-268.89 1311.68,46.38 17.05,315.26 -194.81,505.22 -56,899.73 138.8,394.52 -1255.68,106.05 -1255.68,106.05"
         style="fill:#2c3686;fill-opacity:1;fill-rule:nonzero;stroke:none"
         id="path1458" /><path
         d="m 3014.64,2990.56 c -33.84,-262.38 -123.85,-521.15 -77.62,-663.35 0,0 5.06,160 35.02,198.56 0,0 -29.91,-224.59 61.71,-406.77 91.63,-182.17 1080.59,-147.48 1080.59,-147.48 0,0 20.24,199.53 0,344.11 -20.25,144.59 -58.79,200.77 -69.88,278.22 0,0 60.97,-125.92 84.7,-174.11 23.73,-48.2 26.93,-118.84 26.93,-118.84 0,0 6.44,128.47 -43.68,226.8 -50.12,98.31 -20.06,369.41 -5.21,474.83 14.85,105.43 -697.58,230.44 -775.12,188.18 -77.53,-42.27 -317.44,-200.15 -317.44,-200.15"
         style="fill:#101428;fill-opacity:1;fill-rule:nonzero;stroke:none"
         id="path1460" /><path
         d="m 3244.37,2277.9 c -343.75,-116.44 -590.33,-160.27 -661.56,-384.93 -71.23,-224.66 -171.09,-480.12 -171.09,-480.12 h 2324.5 c 0,0 -115.07,529.44 -241.09,617.1 -126.03,87.68 -619.17,234.57 -769.86,259.75 -150.69,25.18 -480.9,-11.8 -480.9,-11.8"
         style="fill:#ffffff;fill-opacity:1;fill-rule:nonzero;stroke:none"
         id="path1462" /><path
         d="m 4191.88,1769.01 c 0,0 8.77,-210.76 -22.03,-356.16 h 78.8 l -56.77,356.16"
         style="fill:#d0eefb;fill-opacity:1;fill-rule:nonzero;stroke:none"
         id="path1464" /><path
         d="m 2968.78,1685.96 c 0,0 -6.72,-161.61 16.9,-273.11 h -60.43 l 43.53,273.11"
         style="fill:#d0eefb;fill-opacity:1;fill-rule:nonzero;stroke:none"
         id="path1466" /><path
         d="m 2692.4,1957.14 c 30.12,79.41 127.34,172.64 127.44,172.73 -117.97,-54.25 -200.54,-121.84 -237.03,-236.9 -71.23,-224.66 -171.09,-480.12 -171.09,-480.12 h 187.53 c -8.22,239.27 63.01,464.84 93.15,544.29"
         style="fill:#d0eefb;fill-opacity:1;fill-rule:nonzero;stroke:none"
         id="path1468" /><path
         d="m 3665,1840.91 c 0,0 -167.12,10.96 -268.5,87.67 -101.36,76.71 -87.67,153.43 -87.67,153.43 0,0 -73.97,-5.49 -101.36,0 -27.4,5.48 11.93,290.94 171.71,296.15 159.79,5.22 494.48,-61.06 535.58,-63.28 41.1,-2.21 176.66,-123.72 142.45,-277.65 -5.48,-24.66 -71.67,44.78 -101.81,9.16 -30.14,-35.62 -54.78,-186.3 -290.4,-205.48"
         style="fill:#285fb5;fill-opacity:1;fill-rule:nonzero;stroke:none"
         id="path1470" /><path
         d="m 3609.56,1886.86 c 0,0 -200.73,134.66 -291.14,399.05 -14.3,41.82 9.86,65.2 54.25,72.32 l 236.89,-471.37"
         style="fill:#244ba5;fill-opacity:1;fill-rule:nonzero;stroke:none"
         id="path1472" /><path
         d="m 3673.48,1846.31 c 117.55,75.21 225.76,260.15 258.64,321.79 32.87,61.65 34.19,119.67 -66.47,130.39 -100.66,10.7 -192.17,-452.18 -192.17,-452.18"
         style="fill:#244ba5;fill-opacity:1;fill-rule:nonzero;stroke:none"
         id="path1474" /><path
         d="m 3880.64,2673.53 c -30.27,-244.41 -47.62,-375.08 34.12,-476.46 0,0 -145.66,-295.88 -249.76,-356.16 0,0 -249.32,178.08 -317.81,463.02 0,0 41.1,63 46.57,156.16 5.48,93.15 -8.21,254.79 -8.21,254.79 l 495.09,-41.35"
         style="fill:#f9a8be;fill-opacity:1;fill-rule:nonzero;stroke:none"
         id="path1476" /><path
         d="m 3816.88,2022.06 c -152.03,-184.09 -308.71,-28.72 -366.91,50.22 96.14,-146.4 215.03,-231.37 215.03,-231.37 47.92,27.74 104.61,105.4 151.88,181.15"
         style="fill:#f46986;fill-opacity:1;fill-rule:nonzero;stroke:none"
         id="path1478" /><path
         d="m 3393.76,2460.09 c -4.69,-79.74 -35.41,-137.26 -44.17,-152.2 112.78,20.01 354.74,66.41 506.42,120.47 2.39,67 12.46,146.87 24.63,245.17 l -302.02,25.22 -192.78,12.53 c 1.95,-24.12 12.92,-166.16 7.92,-251.19"
         style="fill:#f46986;fill-opacity:1;fill-rule:nonzero;stroke:none"
         id="path1480" /><path
         d="m 4274.44,3296.28 c 9.69,154.14 12.23,294.39 -108.06,474.15 -120.29,179.77 -94.87,-294.61 -92.9,-300.03 1.97,-5.43 106.64,-205.46 106.64,-205.46 l 94.32,31.34"
         style="fill:#f6859c;fill-opacity:1;fill-rule:nonzero;stroke:none"
         id="path1482" /><path
         d="m 4206.53,3052.31 c -15.27,-88.65 -4.92,-161.84 37.58,-169.17 42.5,-7.31 89.33,58.61 104.61,147.26 15.27,88.64 -6.8,166.44 -49.3,173.76 -42.5,7.32 -77.6,-63.2 -92.89,-151.85"
         style="fill:#f25466;fill-opacity:1;fill-rule:nonzero;stroke:none"
         id="path1484" /><path
         d="m 4289.62,2995.43 -26.76,-10.88 -26.23,-72.66 c 0,0 -4.44,-9.01 -9.91,-20.6 5.07,-4.12 10.8,-7.01 17.39,-8.15 37.66,-6.48 78.67,44.59 98.17,117.99 -33.8,-17.57 -52.66,-5.7 -52.66,-5.7"
         style="fill:#ee2a3a;fill-opacity:1;fill-rule:nonzero;stroke:none"
         id="path1486" /><path
         d="m 4167.21,3325.09 c 32.97,6.11 126.49,-18.68 137.11,-66.98 24.14,-109.85 -15.97,-364.65 -89.55,-427.55 -26.82,-22.92 -101.49,-18.26 -127.98,-10.13 -67.26,20.65 -67.48,128.18 -42.9,270.83 24.58,142.66 77.57,225.35 123.32,233.83"
         style="fill:#f25466;fill-opacity:1;fill-rule:nonzero;stroke:none"
         id="path1488" /><path
         d="m 4289.62,2995.43 c -34.22,-24.68 -51.99,0 -51.99,0 -23.2,-49.34 -65.84,-49.29 -119.67,-56.59 l -30.19,15.97 c 0,0 -29.49,-21.69 -57.14,-41.31 4.97,-49.1 21.75,-82.5 56.16,-93.07 26.49,-8.13 101.16,-12.79 127.98,10.13 32.24,27.56 58.05,91.96 74.85,164.87"
         style="fill:#ee2a3a;fill-opacity:1;fill-rule:nonzero;stroke:none"
         id="path1490" /><path
         d="m 4304.32,3258.11 c -10.62,48.3 -104.14,73.09 -137.11,66.98 -2.73,-0.51 -5.49,-1.32 -8.26,-2.35 60.43,4.48 92.08,-37.82 99.01,-86.27 6.94,-48.45 0.02,-267.72 -71.13,-364.44 -9.09,-12.34 -24.79,-48.37 -77.65,-56.03 33.56,-4.42 84.43,-3.52 105.59,14.56 73.58,62.9 113.69,317.7 89.55,427.55"
         style="fill:#f6859c;fill-opacity:1;fill-rule:nonzero;stroke:none"
         id="path1492" /><path
         d="m 4289.62,2995.43 c -34.22,-24.68 -51.99,0 -51.99,0 l -0.02,-0.04 c -11.29,-47.36 -27.62,-91.86 -50.78,-123.36 -9.09,-12.34 -24.79,-48.37 -77.65,-56.03 33.56,-4.41 84.43,-3.52 105.59,14.56 32.24,27.56 58.05,91.96 74.85,164.87"
         style="fill:#f25466;fill-opacity:1;fill-rule:nonzero;stroke:none"
         id="path1494" /><path
         d="m 4172.21,3071.24 c -13.33,-77.39 -40.94,-137.23 -61.66,-133.66 -20.73,3.57 -26.72,69.2 -13.38,146.59 13.33,77.39 40.95,137.23 61.67,133.66 20.72,-3.57 26.71,-69.2 13.37,-146.59"
         style="fill:#ee2a3a;fill-opacity:1;fill-rule:nonzero;stroke:none"
         id="path1496" /><path
         d="m 3136.59,2825.17 c 0.93,-2.25 1.89,-4.5 2.86,-6.75 33.73,-77.69 94.49,-158.59 153.96,-219.18 87.9,-89.55 207.18,-167.41 333.64,-184.37 135.92,-18.22 260.62,57.39 351.52,154.37 41.78,44.57 74.44,99.64 87.91,159.58 14.34,63.74 6.57,132.05 16.98,197.18 5.6,35.01 19.67,67.99 31.5,101.42 36.3,102.47 54.47,217.21 41.99,327.45 -5.18,45.82 -12.66,111.51 -37.47,151.25 -28.5,45.68 -94.46,81.62 -138.97,109.48 -142.66,89.27 -331.79,121.95 -493.92,71.48 -165.73,-51.59 -300.86,-184.44 -370.68,-341.54 -33.23,-74.78 -52.55,-148.38 -36.41,-228.98 20.11,-100.42 17.07,-194.62 57.09,-291.39"
         style="fill:#f9a8be;fill-opacity:1;fill-rule:nonzero;stroke:none"
         id="path1498" /><path
         d="m 3103.35,3202.75 c 0,0 257.54,-70.76 484.94,0 227.39,70.78 304.56,213.24 323.51,287.21 0,0 185.74,-145.63 222.89,-360.48 0,0 12.76,381.48 -105.76,428.98 -118.54,47.49 -366.67,109.58 -394.07,84.93 -27.4,-24.66 -487.67,-287.67 -487.67,-287.67 l -43.84,-152.97"
         style="fill:#f46986;fill-opacity:1;fill-rule:nonzero;stroke:none"
         id="path1500" /><path
         d="m 3365.47,3197.39 c 18.72,9.17 38.1,17 58.07,23.9 20.02,6.64 40.84,11.66 62.23,14.24 21.23,2.63 43.55,5.67 64.86,0.17 30.89,-8.42 43.22,-14.61 58.24,-28.86 l -1.03,-2.82 c -11.2,-0.69 -21.54,-0.06 -31.76,0.39 l -29.96,1.63 c -19.57,0.75 -38.81,5.51 -58.85,5.54 -19.9,0.02 -40.03,-1.79 -60.2,-4.87 -20.25,-2.81 -40.35,-7.52 -60.6,-12.15 l -1,2.83"
         style="fill:#101428;fill-opacity:1;fill-rule:nonzero;stroke:none"
         id="path1502" /><path
         d="m 4035.77,3190.97 c -19.22,8.22 -39.11,13.82 -59.36,16.62 -20.19,3.04 -40.54,3.91 -60.71,3.04 -20.28,-0.93 -39.78,-6.4 -59.76,-7.6 -20.13,-1.41 -40.26,-3.39 -62.68,-2.66 l -1.02,2.82 c 16.99,14.93 37.49,23.75 58.63,29.41 21.29,5.88 43.71,3.76 65.3,2.03 21.7,-1.66 43.19,-5.71 63.73,-12.45 20.43,-6.98 40.21,-16.03 57.39,-28.62 l -1.52,-2.59"
         style="fill:#101428;fill-opacity:1;fill-rule:nonzero;stroke:none"
         id="path1504" /><path
         d="m 3510.28,3082.11 c 0,22.09 -8.76,40 -19.57,40 -10.8,0 -19.56,-17.91 -19.56,-40 0,-22.09 8.76,-40 19.56,-40 10.81,0 19.57,17.91 19.57,40"
         style="fill:#101428;fill-opacity:1;fill-rule:nonzero;stroke:none"
         id="path1506" /><path
         d="m 3921.23,3080.2 c 0,22.09 -8.42,40 -18.8,40 -10.38,0 -18.8,-17.91 -18.8,-40 0,-22.1 8.42,-40 18.8,-40 10.38,0 18.8,17.9 18.8,40"
         style="fill:#101428;fill-opacity:1;fill-rule:nonzero;stroke:none"
         id="path1508" /><path
         d="m 3756.31,2889.72 c -5.73,-14.91 -15.48,-28.63 -29.03,-37.08 -13.56,-8.46 -31.15,-11.07 -45.87,-4.85 -23.78,10.05 -30.34,37.81 2.03,31.53 12.62,-2.45 24.65,-3.95 37.52,-2.15 6.61,0.93 32.5,5.14 35.35,12.55"
         style="fill:#f46986;fill-opacity:1;fill-rule:nonzero;stroke:none"
         id="path1510" /><path
         d="m 3520.62,2780.99 c 81.46,-10.56 277.77,-15.32 341.87,-12.14 -26.24,-87.01 -90.77,-172.27 -179.2,-169.13 -90.74,3.21 -143.48,90.56 -162.67,181.27"
         style="fill:#ec1f32;fill-opacity:1;fill-rule:nonzero;stroke:none"
         id="path1512" /><path
         d="m 3790.4,2644.87 c -68.28,57.5 -117.56,8.3 -117.56,8.3 -15.55,10.57 -58.61,28.43 -96.41,2.87 20.91,-25.54 47.13,-44.4 78.86,-52.26 9.89,-1.34 20.17,-2.71 30.48,-4 40.44,-0.67 75.74,17.17 104.63,45.09"
         style="fill:#f36480;fill-opacity:1;fill-rule:nonzero;stroke:none"
         id="path1514" /><path
         d="m 3541.81,2778.63 c 1.41,-14.61 4.24,-29.05 8.61,-42.96 88.25,-32.41 186.91,-37.52 277.62,-14.32 3.3,15.18 5.77,30.9 7.56,46.72 -73.57,-1.12 -214.73,2.77 -293.79,10.56"
         style="fill:#ffffff;fill-opacity:1;fill-rule:nonzero;stroke:none"
         id="path1516" /><path
         d="m 4047.9,2611.69 c -6.6,-0.53 -13.09,-0.38 -19.42,0.48 -62.23,8.43 -95.57,13.08 -95.57,13.08 l 3.81,27.28 c 0.01,0 33.31,-4.64 95.47,-13.06 57.29,-7.82 130.79,83.24 150.17,190.3 1.33,7.36 8.04,12.49 15.45,11.47 7.66,-1.04 13.12,-8.21 11.76,-15.82 -20.14,-112.98 -94.27,-208.34 -161.67,-213.73"
         style="fill:#f6859c;fill-opacity:1;fill-rule:nonzero;stroke:none"
         id="path1518" /><path
         d="m 4206.32,2836.61 c 0.05,-0.97 0.01,-1.96 -0.18,-2.97 -20.13,-112.98 -94.26,-208.35 -161.67,-213.73 -6.6,-0.53 -13.08,-0.38 -19.41,0.48 -49.12,6.66 -80.16,10.94 -91.09,12.46 l -1.06,-7.6 c 0,0 33.34,-4.65 95.57,-13.08 6.33,-0.86 12.82,-1 19.42,-0.48 67.4,5.39 141.53,100.75 161.67,213.73 0.75,4.2 -0.62,8.22 -3.25,11.19"
         style="fill:#f25466;fill-opacity:1;fill-rule:nonzero;stroke:none"
         id="path1520" /><path
         d="m 3934.42,2609.69 -54.59,7.47 c -18.84,2.58 -32.03,19.94 -29.45,38.79 2.58,18.84 19.95,32.02 38.79,29.45 l 54.59,-7.48 c 18.85,-2.57 32.03,-19.94 29.45,-38.78 -2.58,-18.85 -19.95,-32.03 -38.79,-29.45"
         style="fill:#2c3686;fill-opacity:1;fill-rule:nonzero;stroke:none"
         id="path1522" /><path
         d="m 3965.23,2666.03 c 0.14,-2.24 0.07,-4.51 -0.24,-6.8 -2.58,-18.85 -19.94,-32.03 -38.79,-29.45 l -47.77,6.54 c -12.99,1.78 -23.15,10.65 -27.44,22.12 l -0.61,-2.49 c -2.58,-18.85 10.61,-36.21 29.45,-38.79 l 54.59,-7.47 c 18.84,-2.59 36.21,10.6 38.79,29.45 1.38,10.09 -1.86,19.68 -7.98,26.89"
         style="fill:#27285f;fill-opacity:1;fill-rule:nonzero;stroke:none"
         id="path1524" /><path
         d="m 3859.51,3557.3 c 0,0 273.98,-115.06 276.71,-490.41 0,0 219.18,241.1 90.42,602.74 -128.77,361.64 -501.37,347.94 -501.37,347.94 l 134.24,-460.27"
         style="fill:#2c3686;fill-opacity:1;fill-rule:nonzero;stroke:none"
         id="path1526" /><path
         d="m 3859.51,3557.3 c 0,0 267.22,-112.49 276.31,-477.1 0,2.1 0.03,4.1 0,6.26 -4.47,367.89 -132.01,465.61 -258.04,532.61 l -30.02,-21.49 11.75,-40.28"
         style="fill:#27285f;fill-opacity:1;fill-rule:nonzero;stroke:none"
         id="path1528" /><path
         d="m 3087.83,3223.06 c 0,0 755.25,-43.84 815.52,339.72 60.27,383.56 -133.32,476.65 -228.31,485.85 -94.98,9.19 -280.04,31.17 -438.35,-122.38 -158.31,-153.55 -335.04,-246.57 -315.37,-743.37 l 166.51,40.18"
         style="fill:#2c3686;fill-opacity:1;fill-rule:nonzero;stroke:none"
         id="path1530" /><path
         d="m 3072.16,3326.95 c 32.93,18.33 65.8,37.14 97.59,57.85 31.97,20.42 63.38,41.9 94.11,64.4 61.56,44.88 121.14,92.94 177.39,144.88 -51.08,-57.1 -106.06,-110.89 -163.65,-161.96 -28.76,-25.59 -58.38,-50.31 -88.82,-74.12 -30.24,-24.1 -61.89,-46.49 -93.92,-68.55 l -22.7,37.5"
         style="fill:#101428;fill-opacity:1;fill-rule:nonzero;stroke:none"
         id="path1532" /><path
         d="m 3501.49,3893.62 c -178.96,-96.8 -375.75,-329.62 -379.56,-522.47 0,0 -75.67,70.24 -35.88,170.94 39.79,100.71 156.96,212.27 221.87,260.2 64.91,47.94 193.57,91.33 193.57,91.33"
         style="fill:#101428;fill-opacity:1;fill-rule:nonzero;stroke:none"
         id="path1534" /><path
         d="m 3132.81,3305.53 c -23.98,62.13 -7.54,274.17 0,334.44 7.53,60.27 29.79,106.16 32.19,117.47 2.4,11.3 -2.8,14.7 -2.8,14.7 124.6,191.77 301.43,219.2 480.72,275.29 l -10.31,5.09 c -101.33,8.03 -258.66,6.87 -395.92,-126.27 -158.31,-153.55 -335.04,-246.57 -315.37,-743.37 l 166.51,40.18 c 0,0 258.28,-14.95 484.82,49.31 -251.9,-49.48 -415.87,-28.96 -439.84,33.16"
         style="fill:#101428;fill-opacity:1;fill-rule:nonzero;stroke:none"
         id="path1536" /><path
         d="m 3809.83,3564 c -74.02,-115.55 -165.62,-223.38 -515.31,-273.6 -232.96,-33.46 -269.78,14.34 -269.78,14.34 0,0 406.59,27.08 570.86,110.44 164.27,83.35 214.23,148.82 214.23,148.82"
         style="fill:#101428;fill-opacity:1;fill-rule:nonzero;stroke:none"
         id="path1538" /><path
         d="m 3139.88,3763.03 c 45.26,132.41 272.15,281.94 535.16,285.6 0,0 -135.16,32.87 -292.23,-25.58 -157.08,-58.45 -270.14,-153.77 -332.33,-261.36 -62.19,-107.58 89.4,1.34 89.4,1.34"
         style="fill:#f6859c;fill-opacity:1;fill-rule:nonzero;stroke:none"
         id="path1540" /><path
         d="m 3369.05,3987.23 c -143.83,-57.54 -223.74,-179.45 -223.74,-179.45 -7.25,-0.91 -72.86,-13.13 -73.88,-13.32 -7.47,-10.78 -14.55,-21.69 -20.95,-32.77 -2.24,-3.86 -4.12,-7.38 -5.82,-10.7 20.56,1.42 50.74,2.77 58.69,-0.75 3.28,-1.45 9.82,-1.01 20.03,1.51 9.87,6.52 16.5,11.28 16.5,11.28 45.26,132.41 272.15,281.94 535.16,285.6 -88.53,1.12 -162.15,-3.87 -305.99,-61.4"
         style="fill:#f25466;fill-opacity:1;fill-rule:nonzero;stroke:none"
         id="path1542" /><path
         d="m 3104.73,3296.26 c -12.39,246.01 22.37,413.8 53.42,459.46 31.05,45.66 -96.36,25.8 -121.94,-10.05 -16.57,-23.22 -72.62,-218.9 -52.05,-451.12 20.57,-232.22 120.57,1.71 120.57,1.71"
         style="fill:#f6859c;fill-opacity:1;fill-rule:nonzero;stroke:none"
         id="path1544" /><path
         d="m 3135.29,3782.24 c 10.94,-4.15 14.13,-9.63 6.37,-21.5 -7.76,-11.87 -39.73,-115.98 -47.94,-207.76 -8.23,-91.78 -4.12,-188.12 -5.94,-199.08 -1.83,-10.96 -82.15,-31.19 -106.37,-20.17 0.69,-12.93 1.58,-25.99 2.75,-39.18 1.52,-17.15 3.48,-31.69 5.79,-44.03 24.4,-2.75 58.27,-3.96 89.2,-4.43 14.99,25.41 25.58,50.17 25.58,50.17 -12.39,246.01 22.37,413.8 53.42,459.46 12.55,18.46 -0.81,26.21 -22.86,26.52"
         style="fill:#f25466;fill-opacity:1;fill-rule:nonzero;stroke:none"
         id="path1546" /><path
         d="m 3083.51,3308.2 c -32.17,9.47 -127.74,-5.56 -143.27,-52.51 -35.32,-106.78 -21.67,-364.36 45.05,-434.5 24.31,-25.56 99.07,-28.6 126.26,-23.24 69.03,13.61 80.32,120.55 70.55,264.97 -9.76,144.42 -53.95,232.14 -98.59,245.28"
         style="fill:#f25466;fill-opacity:1;fill-rule:nonzero;stroke:none"
         id="path1548" /><path
         d="m 2985.29,2821.19 c 24.31,-25.56 99.07,-28.6 126.26,-23.24 39.67,7.83 60.2,46.58 68.69,105.45 -33.19,-28.48 -118.06,-19.36 -160.95,0.04 0,0 7.03,128.23 -15.69,200.54 0,0 -40.63,-89.61 -65.34,-172.86 10.61,-48.01 26.24,-88.07 47.03,-109.93"
         style="fill:#ee2a3a;fill-opacity:1;fill-rule:nonzero;stroke:none"
         id="path1550" /><path
         d="m 3071.85,3055.47 c 8.72,-129 -21.74,-236.11 -68.04,-239.24 -46.29,-3.13 -90.89,98.91 -99.61,227.91 -8.72,128.99 21.74,236.11 68.04,239.24 46.3,3.13 90.89,-98.91 99.61,-227.91"
         style="fill:#f6859c;fill-opacity:1;fill-rule:nonzero;stroke:none"
         id="path1552" /><path
         d="m 3012.81,3001.19 c 0,0 -59.15,-7.38 -81.98,-96.89 19.11,-55.12 45.72,-89.92 72.98,-88.07 23.55,1.59 42.97,30.18 55.25,74.78 -14.96,3.16 -28.76,7.45 -39.77,12.43 0,0 5.19,20.85 -6.48,97.75"
         style="fill:#f25466;fill-opacity:1;fill-rule:nonzero;stroke:none"
         id="path1554" /><path
         d="m 3011.54,3040.41 c 6.53,-96.63 -10.94,-173.74 -53.97,-176.65 -43.02,-2.91 -83.19,73.06 -89.72,169.68 -6.54,96.61 23.05,177.3 66.08,180.2 43.02,2.91 71.07,-76.62 77.61,-173.23"
         style="fill:#f25466;fill-opacity:1;fill-rule:nonzero;stroke:none"
         id="path1556" /><path
         d="m 2946.8,2897.2 c -19.64,-1.33 -38.76,10.31 -55.71,31.2 17.06,-40.81 41.25,-66.34 66.48,-64.64 37.01,2.5 55.06,59.95 55.24,137.43 -9.19,-60.98 -31,-101.63 -66.01,-103.99"
         style="fill:#ee2a3a;fill-opacity:1;fill-rule:nonzero;stroke:none"
         id="path1558" /><path
         d="m 5034.07,2534.5 c -8.93,-32.88 19.38,-62.11 28.51,-67.59 9.13,-5.47 71.23,-31.04 109.59,-31.96 38.35,-0.91 94.97,80.37 74.88,89.5 -20.09,9.13 -160.73,19.18 -176.26,19.18 -15.52,0 -36.72,-9.13 -36.72,-9.13"
         style="fill:#f9a8be;fill-opacity:1;fill-rule:nonzero;stroke:none"
         id="path1560" /><path
         d="m 5136.09,2551.85 c 9.59,-98.63 43.84,-175.35 56.17,-176.71 12.32,-1.37 134.71,39.72 168.73,54.79 34,15.07 7.83,246.55 -12.95,242.47 -20.78,-4.07 -68.93,-48.54 -107.57,-69.87 -38.63,-21.32 -104.38,-50.68 -104.38,-50.68"
         style="fill:#ffffff;fill-opacity:1;fill-rule:nonzero;stroke:none"
         id="path1562" /><path
         d="m 5329.77,2510.84 c -12.95,-19.73 -111.47,-69.77 -165.05,-88.01 10.8,-29.12 21.66,-47.04 27.54,-47.69 10.55,-1.18 101.78,28.79 149.15,46.88 -1.2,36.65 -11.64,88.82 -11.64,88.82"
         style="fill:#d0eefb;fill-opacity:1;fill-rule:nonzero;stroke:none"
         id="path1564" /><path
         d="m 5034.27,2539.06 c -3.79,-39.13 31.04,-44.74 73.97,-34.7 42.92,10.04 118.72,105.02 152.51,147.94 33.79,42.92 96.57,119.41 108.9,126.26 12.33,6.85 39.73,10.48 65.76,49.08 26.03,38.59 1.37,119.41 -8.91,129 -10.27,9.59 -106.62,-22.43 -118.72,-38.61 -12.1,-16.18 0.23,-103.17 -3.88,-114.13 -4.11,-10.96 -90.64,-100.46 -127.17,-122.37 -36.52,-21.92 -139.72,-114.16 -142.46,-142.47"
         style="fill:#f9a8be;fill-opacity:1;fill-rule:nonzero;stroke:none"
         id="path1566" /><path
         d="m 5373.65,2892.07 c 11.46,5.47 15.94,30.36 8.66,25.98 -7.27,-4.39 -19.44,-4.3 -35.87,-4.07 -16.46,0.23 -23.1,1.65 -23.1,1.65 0,0 -2.47,-10.78 -3.03,-19.61 0,0 41.88,-9.43 53.34,-3.95"
         style="fill:#f46986;fill-opacity:1;fill-rule:nonzero;stroke:none"
         id="path1568" /><path
         d="m 5446.45,2886.41 c -5.8,12.46 -10.29,21.92 -10.29,21.92 l -69.21,-62.26 c -16.56,15.34 -37.18,29.33 -37.18,29.33 l -6.43,-10.15 c 9.17,-17.71 15.57,-55.15 15.11,-64.28 0,0 9.13,-10.96 14.61,-11.87 0,0 -77.17,-109.59 -125.57,-163.47 -48.11,-53.56 -81.78,-99.89 -103.71,-114.79 43.83,24.26 106.95,103.33 136.97,141.46 33.79,42.92 96.57,119.41 108.9,126.26 12.33,6.85 39.73,10.48 65.76,49.08 10.32,15.3 12.61,37.25 11.04,58.77"
         style="fill:#f46986;fill-opacity:1;fill-rule:nonzero;stroke:none"
         id="path1570" /><path
         d="m 5311.38,2880.16 c 0.31,-6.39 60.53,-62.1 66.79,-68.49 0.47,-0.48 5.44,-1.22 6.91,0 18.19,15.01 102.68,150.55 104.37,155.43 1.59,4.57 -44.58,51.19 -58.8,63.66 -1.93,1.7 -10.49,0.68 -12.04,-1.39 -16.91,-22.61 -107.65,-140.96 -107.23,-149.21"
         style="fill:#101428;fill-opacity:1;fill-rule:nonzero;stroke:none"
         id="path1572" /><path
         d="m 5318.28,2880.16 c 0.32,-6.39 60.54,-62.1 66.8,-68.49 6.26,-6.4 109.46,150.15 111.29,155.43 1.57,4.57 -50.26,50.43 -64.48,62.9 -1.93,1.7 -4.83,1.44 -6.37,-0.63 -16.92,-22.61 -107.65,-140.96 -107.24,-149.21"
         style="fill:#2c3686;fill-opacity:1;fill-rule:nonzero;stroke:none"
         id="path1574" /><path
         d="m 5329.77,2889.32 c 0.3,-5.98 56.63,-58.1 62.49,-64.08 5.86,-5.98 102.4,140.47 104.11,145.42 1.47,4.27 -47.01,47.17 -60.32,58.84 -1.81,1.59 -4.52,1.34 -5.96,-0.59 -15.82,-21.15 -100.71,-131.87 -100.32,-139.59"
         style="fill:#48b0e7;fill-opacity:1;fill-rule:nonzero;stroke:none"
         id="path1576" /><path
         d="m 5373.88,2965.71 c 10.39,6 24.08,26.32 25.68,33.17 1.6,6.84 1.37,13.01 -3.88,14.38 -5.25,1.37 -23.29,-20.09 -31.96,-26.48 -8.68,-6.4 -19.64,-19.64 -16.21,-28.54 3.42,-8.91 21.91,-5.48 23.96,-4.11 2.07,1.37 2.41,11.58 2.41,11.58"
         style="fill:#f9a8be;fill-opacity:1;fill-rule:nonzero;stroke:none"
         id="path1578" /><path
         d="m 5398.62,3011.46 c 2.6,-7.79 -20.24,-39.04 -38.92,-48.03 l 6.14,-7.67 c 0,0 3.1,0.68 7.07,1.6 0.78,3.47 0.97,8.35 0.97,8.35 10.39,6 24.08,26.32 25.68,33.17 1.21,5.19 1.35,9.96 -0.94,12.58"
         style="fill:#f46986;fill-opacity:1;fill-rule:nonzero;stroke:none"
         id="path1580" /><path
         d="m 5348.44,2934.14 c 17.79,9.14 31.14,8.12 40.73,11.89 9.59,3.76 12.33,18.14 6.17,20.54 -6.17,2.4 -45.2,-3.77 -55.49,-8.22 -10.27,-4.45 -16.51,-24.96 -16.51,-24.96 l 25.1,0.75"
         style="fill:#f9a8be;fill-opacity:1;fill-rule:nonzero;stroke:none"
         id="path1582" /><path
         d="m 5356.71,2944.8 c -9.82,-1.82 -13.01,0 -13.01,0 0,-3.78 -3.71,-5.66 -8.12,-11.05 l 12.86,0.39 c 17.79,9.14 31.14,8.12 40.73,11.89 4.37,1.71 7.24,5.64 8.57,9.63 -4.72,-7.89 -31.26,-9.04 -41.03,-10.86"
         style="fill:#f46986;fill-opacity:1;fill-rule:nonzero;stroke:none"
         id="path1584" /><path
         d="m 5307.78,2918.03 c 8.22,-12.64 53.42,-7.17 62.56,-5.8 9.13,1.37 15.22,7.08 14.71,12.83 -1.02,11.6 -60.37,9.55 -65.4,7.72 -5.02,-1.83 -11.87,-14.75 -11.87,-14.75"
         style="fill:#f9a8be;fill-opacity:1;fill-rule:nonzero;stroke:none"
         id="path1586" /><path
         d="m 5384.52,2922.27 c -6.56,-6.09 -21.53,-9.56 -37.68,-10.85 -13.99,-1.12 -21.95,-0.59 -23.78,-0.42 16.69,-2.69 40.87,0.27 47.28,1.23 7.63,1.15 12.87,5.34 14.18,10.04"
         style="fill:#f46986;fill-opacity:1;fill-rule:nonzero;stroke:none"
         id="path1588" /><path
         d="m 5528.55,314.191 c 2.75,-23.98 12.34,-32.871 47.27,-37.671 34.92,-4.79 86.3,-4.11 113.01,21.921 26.71,26.02 43.15,56.161 45.2,69.18 2.05,13.008 1.37,27.391 5.48,34.25 4.11,6.84 25.84,11.109 23.17,49.309 -2.68,38.191 -234.13,-136.989 -234.13,-136.989"
         style="fill:#fbc8d4;fill-opacity:1;fill-rule:nonzero;stroke:none"
         id="path1590" /><path
         d="m 5754.76,541.879 c -3.94,53.051 -129.63,32.582 -130.32,11.351 -0.68,-21.23 -30.13,-110.269 -59.06,-137.308 l 0.03,-0.063 c -37.87,-17.218 -52.14,-60.339 -36.86,-101.668 12.97,-35.07 110.28,-26.582 133.57,-13.699 24.54,13.578 48.82,49.129 56.1,68.379 l 0.01,0.008 c 5.29,11.351 7.58,28.191 19.23,42.582 11.64,14.379 17.8,11.641 23.28,28.75 5.48,17.129 -2.05,48.641 -5.98,101.668"
         style="fill:#f25466;fill-opacity:1;fill-rule:nonzero;stroke:none"
         id="path1592" /><path
         d="m 5647.33,544.141 c -12.08,-54.711 -38.16,-90.321 -30.52,-96.692 7.62,-6.359 54.69,-13.98 63.6,0 8.91,14 24.17,73.16 24.17,96.692 0,23.539 -57.25,0 -57.25,0"
         style="fill:#fbc8d4;fill-opacity:1;fill-rule:nonzero;stroke:none"
         id="path1594" /><path
         d="m 5369.25,499.289 c 3.14,23.813 3.45,58.742 -16.72,98.461 -20.17,39.73 -19.18,43.148 -42.46,47.262 -23.29,4.109 -108.22,15.75 -108.22,15.75 0,0 -14.39,-39.723 -64.39,-67.121 -50,-27.403 -60.27,-36.981 -92.46,-36.981 -32.2,0 -103.34,-3.789 -75.34,-89.039 0,0 22.6,-9.82 79.22,-9.371 56.62,0.461 114.16,5.031 134.7,12.789 20.55,7.762 42.01,11.871 54.34,6.852 12.32,-5.02 52.51,-3.192 75.34,0 22.83,3.191 55.99,21.398 55.99,21.398"
         style="fill:#f25466;fill-opacity:1;fill-rule:nonzero;stroke:none"
         id="path1596" /><path
         d="m 5100.65,577.32 c -3.53,-1.172 -4.84,-5.3 -2.82,-8.418 6.74,-10.461 20.75,-21.941 28.21,-19.32 9.14,3.188 51.48,35.219 73.98,54.789 10.5,9.141 20.55,26.488 14.61,34.699 -5.94,8.219 -21.46,17.809 -27.85,12.801 -6.4,-5.031 -18.72,-29.141 -44.75,-50.641 -17.65,-14.589 -33.2,-21.171 -41.38,-23.91"
         style="fill:#fbc8d4;fill-opacity:1;fill-rule:nonzero;stroke:none"
         id="path1598" /><path
         d="m 4969.66,467.621 c 56.16,-5.48 185.54,5.481 211.94,12.32 26.41,6.86 40.79,18.5 66.13,8.911 25.35,-9.59 103.43,5.48 115.76,10.269 12.33,4.801 8.9,-14.5 0,-16.492 -8.91,-2.008 -65.07,-13.867 -93.84,-16.5 -28.76,-2.617 -30.13,18.613 -64.38,2.851 -34.24,-15.75 -90.41,-15.75 -115.06,-15.75 -24.66,0 -95.21,-5.48 -108.23,0 -13.01,5.481 -12.32,14.391 -12.32,14.391"
         style="fill:#fbc8d4;fill-opacity:1;fill-rule:nonzero;stroke:none"
         id="path1600" /><path
         d="m 5614.17,540.898 c 38.42,-10.468 147.95,-6.847 153.43,8.223 5.48,15.07 -15.07,252.051 -15.07,327.391 0,75.347 -26.03,261.638 -21.92,282.188 4.11,20.56 4.11,35.63 -2.74,71.24 -6.85,35.62 -9.55,448.4 -42.47,726.48 l -427.39,-40.19 c 0,0 -68.49,-263.01 -73.98,-449.31 -5.48,-186.3 0.92,-275.8 0,-303.19 -0.9,-27.4 11.65,-54.79 14.51,-76.71 2.85,-21.92 -0.81,-184.469 -4.46,-242.918 -3.65,-58.454 -6.32,-166.211 -12.28,-178.993 -5.98,-12.8 129.18,-38.359 147.44,-29.23 18.27,9.133 18.27,10.961 18.27,105.941 0,94.969 12.78,323.28 12.78,363.46 0,40.19 12.79,47.49 7.31,67.58 -5.48,20.09 14.61,111.42 34.7,179 20.09,67.57 43.83,140.63 43.83,140.63 0,0 56.62,-365.29 74.9,-387.21 18.26,-21.91 14.6,-78.53 25.56,-111.409 10.96,-32.883 43.84,-255.711 43.84,-323.281 0,-67.578 -16.45,-118.719 23.74,-129.692"
         style="fill:#244ba5;fill-opacity:1;fill-rule:nonzero;stroke:none"
         id="path1602" /><path
         d="m 5705.19,535.551 c 18.49,0.91 35.4,2.847 47.01,5.738 4.56,19.492 9.42,44.02 14.47,72.52 -4.21,79.73 -14.14,210.3 -14.14,262.703 0,75.347 -26.03,261.638 -21.92,282.188 4.11,20.56 4.11,35.63 -2.74,71.24 -6.85,35.62 -9.55,448.4 -42.47,726.48 l -86,-8.09 -251.67,-94.65 c 121.31,-3.39 262.41,15.61 262.41,15.61 0,0 19.66,-222.65 20.34,-255.52 0.66,-32.88 24.4,-339.85 24.4,-368.1 0,-28.25 10.96,-36.4 12.79,-67.03 1.82,-30.62 -21.92,-41.58 -21.92,-41.58 0,0 32.87,-10.97 32.87,-16.44 0,-5.48 6.86,-93.61 6.86,-127.858 0,-34.242 14.92,-80.821 19.1,-183.563 4.19,-102.738 17.88,-224.648 17.88,-238.347 0,-13.372 -0.05,-27.293 -17.27,-35.301"
         style="fill:#263873;fill-opacity:1;fill-rule:nonzero;stroke:none"
         id="path1604" /><path
         d="m 5427.95,1699.61 -91.79,23.29 71.23,-34.25 -57.53,-1.37 44.09,-15.75 c 0,0 13.74,-114.45 -14.87,-191.1 -31.35,-84.01 -45.65,-298.62 -55.24,-315.07 -9.59,-16.43 -34.25,-12.32 -34.25,-12.32 0,0 26.03,-2.75 27.39,-21.92 1.38,-19.18 -5.48,-72.6 -5.48,-129.23 0,-56.62 -5.47,-146.421 -10.95,-184.62 -5.48,-38.211 -8.04,-131.668 -10.96,-156.508 -2.92,-24.821 -40.24,-19.032 -40.24,-19.032 h -0.01 c 18.92,-3.582 38.44,-6.332 53.69,-7.351 56.42,-5.309 44.7,15.582 44.62,126.613 1.39,103.438 12.64,306.608 12.64,344.288 0,40.19 12.79,47.49 7.31,67.58 -5.48,20.09 14.61,111.42 34.7,179 20.09,67.57 43.83,140.63 43.83,140.63 0,0 -9.97,93.42 -11.34,115.34 -1.36,21.92 -6.84,91.78 -6.84,91.78"
         style="fill:#263873;fill-opacity:1;fill-rule:nonzero;stroke:none"
         id="path1606" /><path
         d="m 5504.58,2740.89 c -98.62,-48.4 -114.09,-46.53 -156.54,-68.49 -42.45,-21.95 -47.11,-252.98 -47.11,-288.59 0,-35.62 -0.45,-177.17 -8.67,-215.52 -8.23,-38.36 -39.73,-180.82 -50.69,-202.74 -10.95,-21.92 -31.5,-58.9 -5.48,-80.82 26.03,-21.92 83.37,-36.99 210.86,-28.76 127.49,8.21 269.96,86.3 276.81,97.25 6.85,10.96 -45.21,212.33 -45.21,250.69 0,38.36 -5.47,67.12 -8.22,84.93 -2.73,17.8 43.71,101.37 54.05,154.79 10.34,53.42 79.11,200.8 70.06,227.8 -9.04,26.99 -107.95,57.07 -174.28,91.4 -66.35,34.33 -115.58,-21.94 -115.58,-21.94"
         style="fill:#ffffff;fill-opacity:1;fill-rule:nonzero;stroke:none"
         id="path1608" /><path
         d="m 5482.05,2702.34 c 0.05,-5.88 -0.1,-11.72 1.36,-17.33 1.04,-5.6 2.91,-11.07 6.02,-15.65 5.77,-9.63 16.47,-14.56 27.52,-14.61 11.09,-0.25 22.37,2.65 33.17,6.63 10.89,3.92 21.3,9.19 31.93,14.25 -4.75,-3.46 -9.69,-6.67 -14.59,-9.98 -5.23,-2.7 -10.29,-5.82 -15.75,-8.18 -10.76,-5 -22.62,-8.34 -34.96,-8.2 l -4.63,0.22 -4.59,1.05 c -3.11,0.47 -5.95,1.99 -8.8,3.34 -5.35,3.25 -10.27,7.68 -12.92,13.35 -6.07,10.95 -6.15,23.73 -3.76,35.11"
         style="fill:#d0eefb;fill-opacity:1;fill-rule:nonzero;stroke:none"
         id="path1610" /><path
         d="m 5723.76,1953.22 c 6.85,10.96 -45.21,212.33 -45.21,250.69 0,38.35 -5.47,67.12 -8.22,84.93 -2.73,17.8 43.71,101.37 54.05,154.79 1.8,9.28 5.39,21.44 10,35.28 l -40.56,31.93 c -30.27,-70.14 -54.91,-193.43 -80.95,-223.56 -26.02,-30.14 -86.3,-42.47 -86.3,-42.47 0,0 57.66,-13.7 83.63,-8.22 0,0 19.42,-108.22 15.84,-161.64 -3.58,-53.43 -14.42,-134.25 -15.84,-145.2 -0.54,-4.1 -0.68,-18.36 -0.63,-34.62 63.22,24.32 110.32,51.9 114.19,58.09"
         style="fill:#d0eefb;fill-opacity:1;fill-rule:nonzero;stroke:none"
         id="path1612" /><path
         d="m 5616.44,2860.15 c -3.18,-57.16 -2.27,-96.43 9.6,-107.39 0,0 -28.68,-94.85 -115.06,-86.76 -29.23,2.74 -22.84,52.06 -6.4,74.89 l -3.65,70.11 115.51,49.15"
         style="fill:#f9a8be;fill-opacity:1;fill-rule:nonzero;stroke:none"
         id="path1614" /><path
         d="m 5620.16,2762.83 v 0 c -6.18,17.53 -6.26,51.7 -3.72,97.32 l -115.51,-49.15 2.34,-44.96 c 19.19,-8.91 116.89,-3.21 116.89,-3.21"
         style="fill:#f46986;fill-opacity:1;fill-rule:nonzero;stroke:none"
         id="path1616" /><path
         d="m 5891.03,2397.83 c 17.35,-26.48 38.35,-92.23 26.48,-122.37 -11.88,-30.14 -121.46,-164.39 -170.77,-214.61 -49.32,-50.23 -60.28,-58.45 -69.42,-74.88 -9.13,-16.45 -52.95,-84.25 -63.92,-94.52 -10.96,-10.28 -29.44,-11.65 -29.44,-11.65 0,0 -14.86,-15.06 -40.99,-12.33 0,0 -24.08,-15.75 -42.58,-19.86 0,0 -6.85,-11.63 -13.02,-12.67 -6.16,-1.03 -13,11.3 0,35.96 13.02,24.66 32.2,34.93 36.31,50.68 4.1,15.75 20.7,47.89 20.7,47.89 0,0 -34.4,-32.82 -54.26,-34.88 -19.87,-2.05 -21.67,9.59 -10.15,19.18 11.51,9.59 26.58,23.97 40.97,42.47 14.38,18.49 31.5,30.82 56.84,34.25 25.35,3.42 43.16,6.16 50,10.96 6.86,4.79 43.05,51.36 69.13,101.59 26.08,50.23 50.83,114.41 111.93,170.78 l -21.93,43.83 104.12,40.18"
         style="fill:#f9a8be;fill-opacity:1;fill-rule:nonzero;stroke:none"
         id="path1618" /><path
         d="m 5501.46,1850.75 c 5.87,13.89 15.66,25.73 26.25,36.28 l 4.17,3.83 c 1.25,1.19 3.38,2.7 3.88,3.41 2.15,2.5 4.09,5.8 6.19,8.78 4.07,6.15 8.04,12.43 12.47,18.47 -2.42,-7.11 -5.46,-13.9 -8.82,-20.59 -1.65,-3.41 -3.42,-6.57 -5.81,-9.94 -1.83,-2.21 -2.94,-2.67 -4.32,-4.11 l -3.95,-3.78 c -5.29,-5.05 -10.35,-10.37 -15.45,-15.67 -5.06,-5.34 -9.84,-10.9 -14.61,-16.68"
         style="fill:#f46986;fill-opacity:1;fill-rule:nonzero;stroke:none"
         id="path1620" /><path
         d="m 5544.38,1872.21 c 4.31,7.38 9.25,13.77 13.75,20.5 4.65,6.63 8.85,13.28 13.19,20.6 -0.22,-8.62 -3.98,-16.75 -8.68,-23.71 -4.9,-6.93 -10.92,-13.03 -18.26,-17.39"
         style="fill:#f46986;fill-opacity:1;fill-rule:nonzero;stroke:none"
         id="path1622" /><path
         d="m 5564.21,1869.29 c 12.68,3.59 19.75,10.51 19.75,10.51 0,0 18.48,1.37 29.44,11.65 4.48,4.19 14.46,18.04 25.31,34.02 -0.22,-0.26 -12.61,-12.73 -21.61,-23.02 -12.68,-14.49 -29,-9.7 -29,-9.7 l 3.2,13.36 c 0,0 -13.3,-30.31 -27.09,-36.82"
         style="fill:#f46986;fill-opacity:1;fill-rule:nonzero;stroke:none"
         id="path1624" /><path
         d="m 5920.37,2308.95 c -1.45,-12.5 -2.32,-22.44 -23.25,-55.24 -23.56,-36.9 -160.27,-192.46 -189.73,-221.23 -29.44,-28.76 -28.77,-30.6 -48.26,-76.04 8.24,12.85 15.16,24.05 18.19,29.53 9.14,16.43 20.1,24.65 69.42,74.88 49.31,50.22 158.89,184.47 170.77,214.61 3.45,8.76 4.06,20.56 2.86,33.49"
         style="fill:#f46986;fill-opacity:1;fill-rule:nonzero;stroke:none"
         id="path1626" /><path
         d="m 5824.7,2344.89 8.94,-16.98 c 0,0 -14.05,-3.72 -24.8,-14.09 l -17.42,33.73 33.28,-2.66"
         style="fill:#f46986;fill-opacity:1;fill-rule:nonzero;stroke:none"
         id="path1628" /><path
         d="m 5711.27,2437.75 c -22.44,51.49 -26.84,135.1 0,179.11 26.85,44 72.62,59.85 83.17,54.57 10.57,-5.28 35.21,-73.93 60.74,-105.62 25.51,-31.68 95.04,-120.58 96.81,-128.06 1.76,-7.48 -59.87,-67.87 -170.75,-112.21 -13.2,-5.29 -69.97,112.21 -69.97,112.21"
         style="fill:#ffffff;fill-opacity:1;fill-rule:nonzero;stroke:none"
         id="path1630" /><path
         d="m 5788.21,2397.83 14.62,-35.21 c 0,0 -78.43,84.81 -108.94,148.09 2.33,-26.39 8.37,-52.27 17.38,-72.96 0,0 56.77,-117.5 69.97,-112.21 18.97,7.58 36.39,15.65 52.4,23.83 l -45.43,48.46"
         style="fill:#d0eefb;fill-opacity:1;fill-rule:nonzero;stroke:none"
         id="path1632" /><path
         d="m 5675.29,2934.59 c 20.16,49.22 44.82,101.27 13.76,128.67 0,0 34.71,10.96 52.97,7.31 0,0 -18.26,10.95 -54.79,14.61 0,0 7.18,83.1 -11.94,118.72 0,0 0.07,-36.53 -9.98,-51.15 0,0 -20.09,42.93 -79.45,59.37 -59.36,16.43 -116.9,18.26 -157.99,-23.75 -41.09,-42.01 -89.22,-95.87 -19.95,-177.16 69.27,-81.28 160.59,-102.29 199.86,-107.77 39.27,-5.48 67.51,31.15 67.51,31.15"
         style="fill:#2c3686;fill-opacity:1;fill-rule:nonzero;stroke:none"
         id="path1634" /><path
         d="m 5463.56,3090.69 c 13.61,-6.42 27.94,-9.78 42.22,-13.31 14.35,-3.24 28.79,-6.14 43.33,-8.39 14.52,-2.38 29.13,-4.21 43.76,-5.59 14.65,-1.06 29.32,-2.36 44.19,-0.04 -13.75,-6.48 -29.42,-8.19 -44.46,-8.51 -15.19,-0.34 -30.29,1.07 -45.23,3.33 -14.9,2.53 -29.66,5.98 -43.97,11.02 -14.21,4.98 -28.47,11.44 -39.84,21.49"
         style="fill:#101428;fill-opacity:1;fill-rule:nonzero;stroke:none"
         id="path1636" /><path
         d="m 5623.76,3019.65 c 15.83,3.92 42.06,29.27 42.06,29.27 0,0 -27.18,-19.22 -83.09,-14.64 -55.89,4.58 -93.22,16.19 -93.22,16.19 0,0 57.61,-33.8 78.84,-39.26 21.24,-5.45 55.41,8.44 55.41,8.44"
         style="fill:#101428;fill-opacity:1;fill-rule:nonzero;stroke:none"
         id="path1638" /><path
         d="m 5429.24,3056.64 c -25.95,12.82 -33.49,-0.19 -33.49,-11.15 0,-10.96 12.17,-34.28 12.17,-34.28 l 21.32,45.43"
         style="fill:#101428;fill-opacity:1;fill-rule:nonzero;stroke:none"
         id="path1640" /><path
         d="m 5702.96,3016.37 c -20.71,-40.99 -66.88,-72.75 -66.88,-72.75 0,0 -18.02,-24.3 2.22,-34.16 0.84,-0.41 1.79,-0.77 2.72,-1.13 20.99,9.05 34.27,26.26 34.27,26.26 11.49,28.04 24.4,56.98 27.67,81.78"
         style="fill:#101428;fill-opacity:1;fill-rule:nonzero;stroke:none"
         id="path1642" /><path
         d="m 5636.08,2943.62 c 0,0 21.24,15.76 35.63,0 14.37,-15.75 -13.02,-89.04 -45.21,-71.23 0,0 -53.42,-67.81 -90.41,-86.98 -36.99,-19.18 -61.65,-9.59 -73.97,4.11 -12.33,13.69 -53.69,69.88 -57.54,129.45 -1.37,21.23 4.8,63.01 4.8,71.91 0,8.91 -5.48,43.84 2.06,54.12 7.52,10.27 17.8,11.64 17.8,11.64 0,0 45.89,-22.6 85.61,-26.03 0,0 -19.17,12.33 -25.34,19.86 0,0 78.77,-27.39 134.25,-30.82 0,0 -0.68,-31.51 2.05,-45.2 2.74,-13.7 10.27,-30.83 10.27,-30.83"
         style="fill:#f9a8be;fill-opacity:1;fill-rule:nonzero;stroke:none"
         id="path1644" /><path
         d="m 5664.75,2923.59 c -1.93,13.43 -13.19,16.07 -22.39,6.72 -9.43,-9.59 -13.1,-39.96 -11.19,-44.44 1.93,-4.48 16.95,-4.16 20.47,5.12 3.52,9.26 -4.79,15.08 -13.43,12.33 0,0 -1.37,13.53 6.16,22.25 7.51,8.71 14.46,5.38 16.06,3.14 1.6,-2.24 4.32,-5.12 4.32,-5.12"
         style="fill:#f46986;fill-opacity:1;fill-rule:nonzero;stroke:none"
         id="path1646" /><path
         d="m 5576.37,2982.99 c -3.02,3.02 -6.26,5.82 -9.67,8.48 -3.44,2.62 -7.14,4.98 -11.11,6.89 -3.95,1.92 -8.07,3.99 -12.57,4.34 -4.45,0.4 -8.98,0.03 -13.21,-1.73 l 0.02,-0.61 c 2.12,-0.88 4.17,-1.44 6.19,-2.03 l 5.9,-1.67 c 3.85,-1.16 7.89,-1.51 11.78,-2.84 3.86,-1.32 7.65,-3 11.35,-4.94 3.74,-1.88 7.32,-4.13 10.94,-6.37 l 0.38,0.48"
         style="fill:#101428;fill-opacity:1;fill-rule:nonzero;stroke:none"
         id="path1648" /><path
         d="m 5426,2998.37 c 3.8,1.94 7.79,3.36 11.89,4.21 4.08,0.9 8.22,1.35 12.35,1.45 4.15,0.09 8.22,-0.76 12.31,-0.73 4.13,-0.01 8.27,-0.14 12.84,0.32 l 0.17,0.59 c -3.68,2.82 -7.98,4.33 -12.38,5.2 -4.43,0.91 -8.98,0.17 -13.37,-0.48 -4.4,-0.64 -8.74,-1.76 -12.84,-3.42 -4.07,-1.71 -7.99,-3.83 -11.33,-6.63 l 0.36,-0.51"
         style="fill:#101428;fill-opacity:1;fill-rule:nonzero;stroke:none"
         id="path1650" /><path
         d="m 5533.95,2958.91 c 0.57,5.8 3.81,10.22 7.23,9.88 3.42,-0.34 5.73,-5.31 5.16,-11.1 -0.58,-5.8 -3.81,-10.22 -7.24,-9.88 -3.42,0.33 -5.73,5.31 -5.15,11.1"
         style="fill:#101428;fill-opacity:1;fill-rule:nonzero;stroke:none"
         id="path1652" /><path
         d="m 5442.99,2966.23 c 0.56,5.79 3.3,10.26 6.1,9.99 2.79,-0.28 4.6,-5.2 4.03,-11 -0.57,-5.79 -3.31,-10.26 -6.11,-9.99 -2.79,0.28 -4.6,5.2 -4.02,11"
         style="fill:#101428;fill-opacity:1;fill-rule:nonzero;stroke:none"
         id="path1654" /><path
         d="m 5501.2,2902.59 c -8.34,-5.51 -20.02,-5.39 -28.24,0.3 0.66,-4.47 2.34,-8.82 6.56,-10.41 4.23,-1.58 9.06,-1.12 13.19,0.71 4.13,1.83 5.71,5.85 8.49,9.4"
         style="fill:#f46986;fill-opacity:1;fill-rule:nonzero;stroke:none"
         id="path1656" /><path
         d="m 5530.47,2868.6 c -19.13,-0.31 -64.81,3.22 -79.63,5.35 4.49,-19.36 18.59,-38.48 40.21,-38.49 19.48,-0.01 33.51,15.99 39.42,33.14"
         style="fill:#ec1f32;fill-opacity:1;fill-rule:nonzero;stroke:none"
         id="path1658" /><path
         d="m 5510.99,2841.78 c -7.43,2.35 -15.25,1.14 -18.42,0.18 0,0 -9.59,7.07 -24.62,2.42 6.29,-5.39 13.98,-8.92 23.1,-8.92 7.52,-0.01 14.2,2.41 19.94,6.32"
         style="fill:#f36480;fill-opacity:1;fill-rule:nonzero;stroke:none"
         id="path1660" /><path
         d="m 5462.63,2857.76 c 18.89,-6.03 40.13,-4.29 58.83,2.27 0.33,2.86 0.76,5.74 1.19,8.62 -18.86,0.4 -49.26,2.69 -65.49,4.51 1.01,-5.35 2.76,-10.58 5.47,-15.4"
         style="fill:#ffffff;fill-opacity:1;fill-rule:nonzero;stroke:none"
         id="path1662" /><path
         d="m 6012.77,2930.62 c -5.54,0 -11.17,0.96 -16.67,3 -24.81,9.21 -37.48,36.8 -28.27,61.62 l 1.93,5.19 c 7.17,19.32 25.48,31.28 44.95,31.28 5.54,0 11.17,-0.97 16.67,-3.01 24.82,-9.21 37.48,-36.8 28.27,-61.62 l -1.93,-5.19 c -7.17,-19.32 -25.48,-31.27 -44.95,-31.27 m 82.24,137.14 -89.88,33.35 c 4.1,11.06 8.89,21.23 14.31,30.49 5.42,9.26 13.03,17.18 22.97,23.72 9.88,6.53 23.13,10.82 39.74,12.93 5.09,0.69 12.31,1.5 21.66,2.38 9.34,0.88 19.05,2.46 29.16,4.8 10.09,2.32 19.21,5.78 27.25,10.4 8.1,4.58 13.65,10.87 16.63,18.9 2.11,5.71 2.34,11.39 0.66,16.98 -1.68,5.61 -4.68,10.54 -9.02,14.76 -4.39,4.22 -9.67,7.5 -15.85,9.79 -5.62,2.08 -10.94,3.12 -15.97,3.12 -3.26,0 -6.39,-0.43 -9.39,-1.3 -7.64,-2.22 -14.37,-5.46 -20.08,-9.71 -5.77,-4.25 -10.91,-7.71 -15.41,-10.44 l -51.67,75.91 c 9.13,9.85 19.28,17.86 30.39,24.02 h 132.38 c 9.92,-4.7 19.48,-10.43 28.72,-17.17 13.35,-9.76 24.45,-21.5 33.45,-35.3 8.94,-13.79 14.43,-29.54 16.38,-47.28 2.01,-17.76 -0.97,-37.35 -8.92,-58.79 -3.42,-9.2 -7.44,-17.75 -12.13,-25.59 -4.68,-7.85 -10.23,-14.84 -16.68,-20.95 -6.45,-6.12 -13.89,-11.41 -22.37,-15.89 -8.48,-4.47 -18.06,-8 -28.68,-10.61 -14.08,-3.5 -27.96,-5.76 -41.74,-6.74 -13.79,-1 -25.77,-2.76 -35.94,-5.29 -10.19,-2.56 -16.85,-8.06 -19.97,-16.49"
         style="fill:#94bacd;fill-opacity:1;fill-rule:nonzero;stroke:none"
         id="path1664" /><path
         d="m 6202.89,3327.86 h -132.38 c 4.01,2.22 8.14,4.2 12.4,5.94 16.03,6.6 33.19,9.89 51.46,9.93 0.11,0 0.23,0 0.35,0 18.15,0 36.46,-3.43 54.88,-10.26 4.5,-1.67 8.93,-3.54 13.29,-5.61"
         style="fill:#b0c4cd;fill-opacity:1;fill-rule:nonzero;stroke:none"
         id="path1666" /><path
         d="m 5895.22,2981.4 c -16.99,0 -31.9,12.41 -34.52,29.73 l -0.6,3.99 c -2.9,19.09 10.23,36.91 29.32,39.81 1.78,0.27 3.55,0.4 5.29,0.4 16.99,0 31.9,-12.41 34.52,-29.72 l 0.6,-4 c 2.9,-19.08 -10.23,-36.91 -29.31,-39.81 h -0.01 c -1.78,-0.27 -3.54,-0.4 -5.29,-0.4 m -48.14,110.45 c -1.29,8.51 -1.83,16.69 -1.63,24.51 0.18,7.83 2.23,15.56 6.27,23.25 4,7.66 10.93,15.08 20.79,22.29 3,2.23 7.32,5.31 12.97,9.17 5.65,3.87 11.29,8.3 16.91,13.37 5.62,5.05 10.22,10.48 13.72,16.26 3.54,5.79 4.86,11.77 3.92,17.93 -0.66,4.4 -2.52,8.1 -5.58,11.08 -3.04,2.99 -6.71,5.07 -10.96,6.22 -2.65,0.71 -5.39,1.07 -8.21,1.07 -1.76,0 -3.54,-0.14 -5.37,-0.42 -7.11,-1.08 -12.72,-3.7 -16.81,-7.8 -4.1,-4.11 -7.25,-8.56 -9.39,-13.29 -2.18,-4.74 -4.24,-8.77 -6.14,-12.11 l -59.79,30.18 c 3.2,12.94 8.78,24.36 16.71,34.24 7.9,9.87 17.69,18.04 29.33,24.52 11.63,6.47 24.61,10.8 38.87,12.96 6.01,0.91 12.11,1.37 18.29,1.37 5.45,0 10.97,-0.35 16.56,-1.06 11.95,-1.5 23.19,-5.07 33.81,-10.7 10.58,-5.64 19.65,-13.75 27.15,-24.38 7.55,-10.62 12.58,-24.17 15.08,-40.66 1.08,-7.08 1.53,-13.95 1.31,-20.61 -0.21,-6.66 -1.28,-13.08 -3.24,-19.26 -1.95,-6.18 -4.83,-12.19 -8.66,-18.04 -3.83,-5.85 -8.68,-11.49 -14.55,-16.91 -7.74,-7.21 -15.8,-13.55 -24.25,-19.05 -8.45,-5.51 -15.46,-10.86 -21.06,-16.07 -5.59,-5.23 -7.9,-11.1 -6.91,-17.57 l -69.14,-10.49"
         style="fill:#94bacd;fill-opacity:1;fill-rule:nonzero;stroke:none"
         id="path1668" /><path
         d="m 5917.83,3045.24 1.94,5.19 c 9.19,24.82 36.78,37.48 61.61,28.27 24.82,-9.21 37.48,-36.8 28.27,-61.62 l -1.93,-5.19 c -9.2,-24.82 -36.79,-37.48 -61.62,-28.27 -24.81,9.21 -37.48,36.8 -28.27,61.62 z m 37.3,105.87 c 4.1,11.06 8.89,21.23 14.31,30.49 5.42,9.26 13.03,17.18 22.97,23.72 9.88,6.53 23.13,10.82 39.74,12.93 5.09,0.69 12.31,1.5 21.66,2.37 9.34,0.89 19.05,2.47 29.16,4.81 10.09,2.32 19.21,5.78 27.25,10.4 8.1,4.59 13.65,10.87 16.63,18.9 2.11,5.7 2.34,11.39 0.66,16.98 -1.68,5.61 -4.68,10.54 -9.02,14.75 -4.39,4.23 -9.67,7.51 -15.85,9.8 -9.25,3.43 -17.73,4.03 -25.36,1.82 -7.64,-2.22 -14.37,-5.46 -20.08,-9.71 -5.76,-4.25 -10.91,-7.71 -15.41,-10.44 l -51.67,75.91 c 12.43,13.4 26.72,23.4 42.79,29.96 16.03,6.6 33.19,9.89 51.46,9.93 18.26,0.04 36.69,-3.38 55.23,-10.26 14.73,-5.47 28.71,-13.07 42.01,-22.78 13.35,-9.76 24.45,-21.5 33.45,-35.3 8.94,-13.79 14.43,-29.54 16.39,-47.28 2,-17.76 -0.98,-37.35 -8.93,-58.79 -3.42,-9.2 -7.44,-17.75 -12.13,-25.59 -4.68,-7.85 -10.22,-14.84 -16.68,-20.95 -6.45,-6.11 -13.89,-11.41 -22.37,-15.89 -8.48,-4.47 -18.06,-8 -28.68,-10.61 -14.08,-3.5 -27.96,-5.76 -41.74,-6.74 -13.79,-1 -25.77,-2.76 -35.94,-5.29 -10.19,-2.56 -16.85,-8.06 -19.97,-16.49 l -89.88,33.35"
         style="fill:#f25466;fill-opacity:1;fill-rule:nonzero;stroke:none"
         id="path1670" /><path
         d="m 5810.7,3061.13 -0.6,3.99 c -2.9,19.09 10.23,36.91 29.32,39.81 19.1,2.89 36.92,-10.23 39.81,-29.32 l 0.6,-4 c 2.9,-19.09 -10.23,-36.91 -29.31,-39.81 h -0.01 c -19.08,-2.89 -36.92,10.24 -39.81,29.33 z m -13.62,80.72 c -1.29,8.51 -1.83,16.69 -1.63,24.51 0.18,7.83 2.24,15.56 6.27,23.25 4,7.66 10.93,15.08 20.79,22.29 3,2.24 7.32,5.31 12.97,9.17 5.65,3.87 11.29,8.3 16.91,13.37 5.62,5.05 10.22,10.48 13.72,16.26 3.54,5.79 4.86,11.77 3.92,17.93 -0.66,4.4 -2.52,8.1 -5.58,11.08 -3.04,2.99 -6.71,5.07 -10.96,6.22 -4.3,1.15 -8.82,1.37 -13.58,0.65 -7.11,-1.08 -12.72,-3.69 -16.81,-7.8 -4.1,-4.11 -7.25,-8.57 -9.39,-13.29 -2.18,-4.74 -4.24,-8.77 -6.14,-12.11 l -59.79,30.18 c 3.2,12.94 8.78,24.36 16.71,34.24 7.9,9.87 17.69,18.03 29.33,24.51 11.63,6.48 24.61,10.81 38.87,12.97 11.31,1.72 22.93,1.81 34.85,0.32 11.95,-1.51 23.19,-5.08 33.81,-10.71 10.58,-5.64 19.65,-13.75 27.16,-24.38 7.54,-10.62 12.57,-24.17 15.07,-40.66 1.08,-7.08 1.53,-13.95 1.31,-20.61 -0.21,-6.66 -1.28,-13.08 -3.24,-19.26 -1.95,-6.18 -4.83,-12.19 -8.66,-18.04 -3.83,-5.85 -8.68,-11.49 -14.55,-16.91 -7.74,-7.21 -15.8,-13.55 -24.25,-19.05 -8.45,-5.51 -15.46,-10.86 -21.06,-16.07 -5.59,-5.23 -7.9,-11.1 -6.91,-17.57 l -69.14,-10.49"
         style="fill:#f25466;fill-opacity:1;fill-rule:nonzero;stroke:none"
         id="path1672" /><path
         d="m 6119.57,861.742 c 48.57,-0.082 89.59,49.949 88.47,109.297 -0.74,38.671 -6.42,76.931 -17.02,112.841 -24.31,82.28 -74.37,161.82 -56.3,248.74 7.44,35.79 26.29,68.89 26.81,105.46 0.55,37.69 -18.45,70.12 -37.36,98.84 -31.48,47.84 -65.03,93.6 -100.45,137.07 -8.64,-81.72 -47.9,-154.51 -75.2,-230.84 -27.31,-76.32 -41.44,-170.1 -2.62,-234.81 27.71,-46.2 80.16,-74.02 86.25,-131.74 2.47,-23.5 -3.74,-47.45 -5.06,-71.3 -3.75,-67.968 38.05,-132.87 92.48,-143.558"
         style="fill:#f25466;fill-opacity:1;fill-rule:nonzero;stroke:none"
         id="path1674" /><path
         d="m 6158.83,752.051 -21,97.691 c -5.14,32.809 -10.66,65.547 -16.79,98.18 -12.12,65.248 -26.14,130.198 -43.67,194.078 -4.47,15.94 -9.05,31.86 -14.17,47.55 -2.45,7.89 -5.23,15.65 -7.9,23.45 -2.88,7.62 -5.76,15.31 -8.24,24.01 -4.41,16.89 -6.43,33.91 -7.07,50.74 -0.94,16.89 -0.69,33.65 -0.41,50.38 0.89,33.43 3.05,66.66 4.29,99.77 3.2,33.03 6.36,66.07 2.02,99.17 9.64,-32.2 9.93,-66.39 11.12,-99.65 -1.26,-33.37 -3.41,-66.54 -4.28,-99.62 -0.28,-16.5 -0.52,-33.03 0.4,-49.37 0.59,-16.38 2.61,-32.6 6.59,-47.86 2.05,-7.32 4.95,-15.21 7.97,-23.15 2.71,-7.93 5.54,-15.84 8.02,-23.83 5.2,-15.92 9.83,-31.99 14.33,-48.07 17.68,-64.44 31.76,-129.67 43.92,-195.2 6.21,-32.738 11.6,-65.629 16.96,-98.511 3.06,-33.25 6.12,-66.438 7.91,-99.758"
         style="fill:#f6859c;fill-opacity:1;fill-rule:nonzero;stroke:none"
         id="path1676" /><path
         d="m 5994.79,1433.19 c 9.56,-6.66 18.15,-13.47 27.1,-20.17 4.41,-3.41 8.42,-7.42 12.83,-11.01 4.3,-3.7 9.18,-6.72 14.27,-8.99 l -1.59,-0.2 c 5.41,5.03 10.27,10.72 15.56,15.89 5.38,5.05 10.79,10.07 16.36,14.91 11.31,9.47 23.41,17.96 36.68,25.08 l 0.56,-0.67 c -9.38,-11.77 -19.91,-22.16 -31.25,-31.58 -5.76,-4.61 -11.67,-9.04 -17.6,-13.43 -6.03,-4.29 -12.5,-8.04 -18.42,-12.45 l -0.83,-0.63 -0.76,0.43 c -5.03,2.89 -9.99,5.63 -15.29,8 -5.2,2.5 -10.53,4.97 -15.21,8.41 -9.25,6.91 -17.6,15.44 -23.08,25.84 l 0.67,0.57"
         style="fill:#f6859c;fill-opacity:1;fill-rule:nonzero;stroke:none"
         id="path1678" /><path
         d="m 5960.7,1296.66 c 8.14,-2.64 15.84,-5.89 23.42,-9.38 7.56,-3.53 15.08,-7.09 22.04,-11.82 7.05,-4.55 14.12,-9.17 21.86,-12.36 7.63,-3.39 15.82,-5.64 23.67,-8.35 l -3.95,-0.9 c 8.05,10.38 16.19,20.68 25.22,30.19 9.18,9.39 18.45,18.69 29.05,26.82 l 0.66,-0.58 c -6.72,-11.55 -14.79,-21.91 -22.95,-32.18 -8.3,-10.17 -17.5,-19.54 -26.79,-28.82 l -1.93,-1.94 -2.02,1.05 c -7.51,3.9 -14.58,8.55 -22.12,12.21 -7.45,3.86 -15.47,6.48 -23.42,9.33 -8.05,2.67 -15.42,6.76 -22.66,11.05 -7.23,4.3 -14.13,9.23 -20.52,14.92 l 0.44,0.76"
         style="fill:#f6859c;fill-opacity:1;fill-rule:nonzero;stroke:none"
         id="path1680" /><path
         d="m 6055.58,1113.57 c 7.14,-0.6 13.18,-2.76 19.11,-5.17 2.89,-1.38 5.52,-3.48 8.45,-4.99 2.85,-1.56 6.26,-2.32 9.19,-2.06 l -1.28,-0.62 c 2.01,3.53 3.55,7.39 5.7,10.79 2.22,3.34 4.29,6.8 6.76,9.95 4.99,6.25 10.91,11.76 18.18,16.23 l 0.68,-0.55 c -2.63,-8.1 -6.61,-15.16 -11.51,-21.47 -2.49,-3.13 -5.36,-5.95 -8.1,-8.9 -2.8,-2.88 -6.2,-5.3 -9.16,-8.06 l -0.75,-0.7 -0.52,0.09 c -3.67,0.62 -6.71,1.44 -10.22,1.64 -3.42,0.28 -7.02,0.35 -10.26,1.41 -6.36,2.4 -12.23,5.99 -16.69,11.64 l 0.42,0.77"
         style="fill:#f6859c;fill-opacity:1;fill-rule:nonzero;stroke:none"
         id="path1682" /><path
         d="m 6071,958.801 c 4.95,0.379 9.58,0.34 14.2,0.078 4.6,-0.277 9.19,-0.41 13.73,-1.629 4.54,-1.121 9.14,-2.68 13.81,-2.84 4.66,-0.301 9.4,0.57 13.92,1.559 l -1.57,-0.571 c 2.91,3.243 6.14,6.063 9.4,8.832 3.23,2.821 6.48,5.61 10.04,7.989 7.09,4.801 14.57,9.082 23.01,12.09 l 0.53,-0.707 c -5.24,-7.27 -11.42,-13.274 -18,-18.75 -3.27,-2.762 -6.86,-5.102 -10.47,-7.422 -3.56,-2.36 -7.17,-4.692 -11.09,-6.578 l -1.26,-0.614 -0.32,0.043 c -4.86,0.641 -9.52,1.52 -14.25,1.438 -4.72,0.082 -9.5,-0.989 -14.32,-1.348 -4.83,-0.473 -9.58,0.527 -14.25,1.668 -4.66,1.211 -9.23,3.109 -13.35,5.91 l 0.24,0.852"
         style="fill:#f6859c;fill-opacity:1;fill-rule:nonzero;stroke:none"
         id="path1684" /><path
         d="m 6164.5,830.051 c 33.57,-34.571 86.47,7.64 121.34,47.64 43.86,50.289 91.01,108.418 96.11,179.509 1.93,26.72 -2.46,53.27 1.53,79.85 9.14,60.99 58,103.38 81.17,159.79 33.57,81.79 7.55,175.15 -24.8,250.72 -21.22,49.59 -45.75,101.16 -41.76,159.46 3.63,53.25 30.49,101.55 56.36,146.66 -60.48,-3.62 -128.61,-11.61 -171.12,-69.31 -40.31,-54.74 -42.38,-134.27 -38.53,-204.58 3.86,-70.31 10.13,-145.86 -19.46,-209.74 -40.18,-86.75 -140.13,-137.99 -142.89,-234.48 -1.39,-48.67 24.45,-88.07 42.14,-129.55 11.49,-26.961 18.64,-61.469 13.93,-91.7 -4.98,-31.84 2.87,-63.269 22.83,-81.398 l 3.15,-2.871"
         style="fill:#f6859c;fill-opacity:1;fill-rule:nonzero;stroke:none"
         id="path1686" /><path
         d="m 6158.83,688.449 c 3.73,23.27 8.03,46.371 11.96,69.5 3.6,23.199 7.49,46.313 10.3,69.52 9.07,45.761 15.98,91.902 18.22,138.16 1.25,23.18 0.79,46.241 0.9,70.071 0.05,23.84 2.81,48.5 8.85,71.89 6.03,23.43 14.31,45.71 23.52,67.87 9.72,21.85 20.57,43.31 33.18,63.51 24.37,40.71 55.46,77.19 65.22,120.58 4.98,21.53 4.89,44.11 1.88,66.55 -3.63,22.18 -9.4,45.18 -14.31,68.26 -9.83,46.06 -18.76,92.84 -20.01,141.01 1.09,24.08 4.59,48.28 12.03,71.2 7.26,22.97 18.98,44.26 33.94,62.44 -11.95,-20.3 -20.22,-42.33 -24.52,-64.88 -4.28,-22.59 -4.67,-45.61 -2.81,-68.44 1.17,-45.81 9.82,-91.77 19.59,-137.42 4.83,-22.84 10.57,-45.39 14.54,-69.56 3.24,-24.02 3.44,-49.1 -2.19,-73.36 -5.48,-24.32 -16.89,-46.62 -29.43,-66.85 -12.6,-20.34 -25.97,-39.47 -38.03,-59.24 -12.26,-19.64 -22.62,-40.19 -31.97,-61.19 -8.81,-21.17 -16.91,-43 -22.57,-65.06 -5.67,-22.12 -8.19,-44.42 -8.27,-67.52 -0.12,-23.11 0.35,-47.01 -0.93,-70.728 -2.25,-47.571 -9.51,-94.512 -18.4,-140.84 -11.8,-45.82 -25.46,-90.922 -40.69,-135.473"
         style="fill:#f25466;fill-opacity:1;fill-rule:nonzero;stroke:none"
         id="path1688" /><path
         d="m 6361.41,1650.71 c -1.53,-7.65 -4.47,-14.35 -7.86,-20.75 -3.34,-6.42 -7.23,-12.48 -12.83,-17.39 -5.55,-4.93 -10.79,-10.08 -14.28,-16.4 -3.68,-6.2 -5.95,-13.35 -9.11,-19.9 l -2.9,-6.03 -6.28,5.34 c -4.19,3.54 -8.19,7.26 -12.16,11.02 -4.04,3.69 -7.69,7.74 -11.08,12.03 -6.69,8.66 -12.91,17.76 -17.33,28.51 l 1.04,0.97 c 10.36,-5.28 18.93,-12.21 27.03,-19.57 4.01,-3.72 7.75,-7.68 11.12,-11.99 3.42,-4.26 6.81,-8.54 10.02,-13.01 l -9.19,-0.7 c 4.9,5.38 10.69,10.16 15.08,15.88 4.56,5.6 7.37,12.38 9.88,19.38 2.47,7.01 6.64,12.88 11.35,18.38 4.66,5.53 9.78,10.76 16.31,15.02 l 1.19,-0.79"
         style="fill:#f25466;fill-opacity:1;fill-rule:nonzero;stroke:none"
         id="path1690" /><path
         d="m 6418.35,1448.12 c -0.98,-10.78 -4.62,-21.2 -9.69,-30.66 -5.19,-9.37 -11.37,-18.33 -19.66,-25.19 -8.26,-6.9 -16.76,-13.14 -24.09,-20.61 -7.62,-7.23 -14.19,-15.46 -22.4,-22.71 l -4.29,-3.79 -3.87,5.76 -13.57,20.12 c -4.59,6.67 -9.02,13.38 -13.21,20.25 l -12.77,20.42 c -4.38,6.72 -8.57,13.59 -13.85,20.01 l 0.83,1.15 c 7.97,-3.31 14.86,-8.69 21.03,-14.45 6.16,-5.83 11.82,-12.11 16.8,-18.82 5.13,-6.62 9.6,-13.66 13.54,-20.98 3.98,-7.32 7.84,-14.61 11.12,-22.38 l -8.16,1.97 c 8.68,4.84 18.07,9.96 25.78,16.74 7.99,6.57 14,15.24 19.39,24 5.38,8.77 11.53,16.61 17.61,24.67 6.05,8.1 11.58,16.41 18.12,24.99 l 1.34,-0.49"
         style="fill:#f25466;fill-opacity:1;fill-rule:nonzero;stroke:none"
         id="path1692" /><path
         d="m 6363.13,1204.3 c -7.24,-10.03 -16.97,-17.97 -27.22,-24.66 -10.4,-6.49 -21.44,-11.95 -33.27,-15.03 -11.84,-3.07 -23.85,-4.92 -35.24,-8.68 -11.52,-3.45 -22.6,-8.06 -34.38,-11.77 l -2.42,-0.76 -2.59,2.57 c -7.43,7.38 -13.45,15.49 -19.5,23.79 -5.87,8.37 -11.49,17.04 -15.65,26.52 -4.36,9.35 -7.79,19.22 -9.98,29.42 -2.02,10.23 -2.67,20.88 -0.79,31.05 l 1.42,0.01 c 2.37,-9.89 5.78,-18.97 9.57,-27.86 3.74,-8.93 8.48,-17.4 12.97,-25.96 l 14.44,-25.38 c 4.89,-8.45 10.43,-16.7 15.59,-24.86 l -5,1.8 c 11.63,0.96 23.71,2.34 35.09,5.6 11.52,3.02 22.16,8.77 32.55,14.43 10.32,5.82 21.08,10.19 31.67,15.13 10.56,5 20.86,10.22 31.81,15.7 l 0.93,-1.06"
         style="fill:#f25466;fill-opacity:1;fill-rule:nonzero;stroke:none"
         id="path1694" /><path
         d="m 6281.76,986.66 c -4.03,-5.59 -9.47,-9.941 -15.42,-13.121 -5.98,-3.09 -12.38,-5.629 -19.06,-6.269 -6.72,-0.668 -13.52,0.609 -20,0.98 -6.56,0.48 -12.81,-0.031 -19.62,-0.469 l -0.8,-0.051 -1.47,1.372 c -5.14,4.82 -10.51,9.449 -14.92,14.796 -4.52,5.262 -9.18,10.434 -13.19,16.063 -4.03,5.639 -7.51,11.659 -10.77,17.849 -3.25,6.2 -6.1,12.71 -8.26,19.71 l 1.15,0.84 c 6.04,-4.15 11.4,-8.8 16.35,-13.75 4.95,-4.95 9.66,-10.08 13.84,-15.6 4.19,-5.5 7.72,-11.49 11.41,-17.369 3.79,-5.809 6.62,-12.309 9.68,-18.649 l -2.26,1.317 c 5.87,-1.61 12.39,-2.11 18.55,-0.911 6.22,1.133 12.08,4.063 17.85,5.911 5.83,1.73 11.67,2.921 17.58,4.351 6.03,1.231 11.77,3.082 18.58,4.192 l 0.78,-1.192"
         style="fill:#f25466;fill-opacity:1;fill-rule:nonzero;stroke:none"
         id="path1696" /><path
         d="m 6351.49,510.582 h -300.64 c -17.59,0 -32.54,12.848 -35.2,30.238 l -48.1,315.828 c -3.28,21.551 13.4,40.973 35.19,40.973 h 396.86 c 21.81,0 38.49,-19.422 35.2,-40.973 L 6386.69,540.82 c -2.65,-17.39 -17.6,-30.238 -35.2,-30.238"
         style="fill:#9bdff5;fill-opacity:1;fill-rule:nonzero;stroke:none"
         id="path1698" /><path
         d="m 6399.6,897.621 h -61.38 c 21.8,0 38.48,-19.422 35.2,-40.973 L 6325.31,540.82 c -2.64,-17.39 -17.6,-30.238 -35.19,-30.238 h 61.37 c 17.6,0 32.55,12.848 35.2,30.238 l 48.11,315.828 c 3.29,21.551 -13.39,40.973 -35.2,40.973"
         style="fill:#87d8f7;fill-opacity:1;fill-rule:nonzero;stroke:none"
         id="path1700" /><path
         d="m 1878.13,1406.11 c 1.59,-12.87 -1.11,-25.84 -7.36,-37.2 -22.78,-41.45 -34.33,-89.06 -32.84,-136.35 0.98,-31.15 7.38,-63.03 -1.1,-93.03 -14.63,-51.75 -69.26,-83.75 -86.83,-134.58 -15.58,-45.059 -1.09,-101.72 -33.48,-136.708 -8.02,-8.672 -20.49,-15.312 -31.46,-10.922 -5.51,2.211 -9.64,6.809 -13.56,11.262 -37.13,42.168 -76.88,93.418 -65.42,148.428 10.76,51.67 64.01,86.59 74.1,138.4 8.25,42.33 -13.39,91.16 10.86,126.83 6.7,9.84 16.27,17.36 23.58,26.75 28.85,37.04 18.17,96.07 51.4,129.22 10.84,10.81 24.4,16.95 39.18,20.1 34.84,7.45 68.55,-16.83 72.93,-52.19 v -0.01"
         style="fill:#f25466;fill-opacity:1;fill-rule:nonzero;stroke:none"
         id="path1702" /><path
         d="m 1666.96,749.539 c -2.22,27.563 -3.18,55.141 -4.2,82.781 1.25,27.559 2.72,55.129 5.08,82.68 2.37,27.551 5.46,55.09 10.33,82.469 4.95,27.211 11.49,55.011 22.94,80.591 19.99,50.55 36.16,103.42 52.49,155.81 l 23.69,78.98 c 9.73,25.8 19.22,51.65 28.4,77.69 -4.02,-27.4 -10.29,-54.29 -15.78,-81.38 l -23.74,-79.15 c -16.43,-52.66 -32.44,-105.2 -52.93,-157.01 -11.08,-24.78 -17.2,-50.99 -22.12,-77.82 -4.77,-26.809 -7.83,-54.02 -10.17,-81.289 -2.3,-27.301 -3.9,-54.692 -4.95,-82.11 l -9.04,-82.242"
         style="fill:#f6859c;fill-opacity:1;fill-rule:nonzero;stroke:none"
         id="path1704" /><path
         d="m 1812.49,1308.22 c -4.55,-6.88 -10.4,-12.04 -16.69,-16.6 -3.24,-2.16 -7.03,-3.57 -10.54,-5.35 -3.57,-1.71 -6.7,-4.01 -9.59,-6.63 l -1.26,-1.13 -1.11,1.7 c -2.63,4.03 -5.83,7.76 -8.35,11.83 -2.42,4.12 -4.98,8.17 -7.14,12.43 -4.2,8.56 -7.33,17.65 -8.92,27.5 l 0.79,0.39 c 6.89,-7.22 12.24,-15.21 16.52,-23.73 2.08,-4.29 3.76,-8.78 5.58,-13.2 1.72,-4.46 2.76,-9.28 4.37,-13.8 l -2.37,0.58 c 3.35,1.99 6.48,4.28 9.16,7.19 2.73,2.84 5.19,6.03 8.21,8.47 6.21,4.66 12.85,8.72 20.81,11.06 l 0.53,-0.71"
         style="fill:#f6859c;fill-opacity:1;fill-rule:nonzero;stroke:none"
         id="path1706" /><path
         d="m 1805.79,1213.99 c -4.74,-3.9 -9.62,-8.12 -14.74,-11.65 -5.1,-3.61 -10.29,-7.1 -15.9,-9.9 -5.67,-2.71 -11.69,-4.87 -17.14,-7.97 -5.49,-3.02 -10.49,-6.84 -15.38,-10.82 l -1.72,-1.39 -1.74,2.27 c -7.55,9.9 -14.02,20.42 -20.12,31.15 -5.74,10.93 -10.86,22.21 -14.53,34.31 l 0.76,0.43 c 8.47,-9.39 15.49,-19.6 21.89,-30.15 6.04,-10.76 11.72,-21.73 16.3,-33.31 l -3.46,0.88 c 5.72,2.67 11.35,5.47 16.51,9.03 5.19,3.51 9.83,7.93 14.83,11.75 5.07,3.74 10.58,6.76 16.21,9.57 5.71,2.74 11.37,5.39 18.04,6.65 l 0.19,-0.85"
         style="fill:#f6859c;fill-opacity:1;fill-rule:nonzero;stroke:none"
         id="path1708" /><path
         d="m 1772.3,1089.62 c -5.18,-5.24 -10.98,-9.09 -16.95,-12.57 -5.89,-3.63 -12.36,-6.04 -19.26,-7.67 -6.87,-1.67 -13.1,-4.69 -18.64,-8.93 -5.53,-4.2 -10.95,-8.83 -16.48,-12.46 l -4.18,-2.74 -3.11,4.66 c -4.58,6.87 -8.74,13.96 -11.97,21.56 -3.24,7.6 -6.12,15.4 -7.72,23.9 l 0.96,0.53 c 6.31,-5.91 11.36,-12.51 16.05,-19.32 4.69,-6.8 8.45,-14.11 11.79,-21.66 l -7.28,1.93 c 6.32,3.47 13.03,5.47 19.69,7.81 6.64,2.28 12.71,5.57 18.17,10.13 5.44,4.61 11.39,8.26 17.94,10.65 6.48,2.52 13.19,4.56 20.53,5.17 l 0.46,-0.99"
         style="fill:#f6859c;fill-opacity:1;fill-rule:nonzero;stroke:none"
         id="path1710" /><path
         d="m 1623.12,744.148 c -21.54,3.551 -102.31,29.391 -96.66,50.473 24.21,90.52 48.42,193.207 -35.42,237.489 -40.35,21.3 -90.99,32.13 -113.96,71.55 -23.67,40.61 -6.25,92.21 14.99,134.13 21.23,41.93 46.8,86.8 37.7,132.91 -9.53,48.27 -55.19,83.9 -62.49,132.57 -9.97,66.45 54.56,119.99 116.54,145.93 21.08,8.83 44.26,16.37 66.47,11.01 15.88,-3.83 29.63,-14.01 40.52,-26.18 43.54,-48.69 41.76,-122.15 31.82,-186.7 -9.93,-64.56 -25.14,-132.73 -0.82,-193.36 17.27,-43.05 54.24,-83.55 44.34,-128.87 -3.97,-18.16 -15.29,-34 -19.61,-52.07 -11.63,-48.72 28.84,-92.62 47.4,-139.151 23.93,-60.039 7.5,-133.41 -37.88,-178.969 -8.63,-8.66 -20.86,-12.738 -32.94,-10.762"
         style="fill:#f6859c;fill-opacity:1;fill-rule:nonzero;stroke:none"
         id="path1712" /><path
         d="m 1630.74,743.141 c -4.98,35.839 -9.97,71.55 -16.36,106.988 -1.52,8.859 -3.38,17.68 -4.8,26.543 -1.35,8.879 -2.15,17.82 -3.62,26.668 -2.67,17.742 -5.65,35.422 -9.04,53.012 -6.84,35.109 -15.02,70.068 -27.02,103.308 -6.02,16.55 -13.17,32.75 -22.59,46.72 -4.68,6.96 -10.22,13.13 -16.34,17.29 -8.07,5.3 -15.76,12.13 -21.79,20.27 -12.42,16.45 -16.17,37.37 -15.71,56.21 0.42,19.11 4.03,37.33 8.06,55.14 8.3,35.55 18.75,69.89 24.56,104.86 5.91,34.78 7.05,70.43 -2.13,103.8 -2.83,8.14 -5.05,16.43 -7.73,24.72 -2.74,8.26 -6.29,16.28 -10.3,24.14 -8.05,15.72 -18.54,30.35 -30.17,44.26 14.25,-11.17 27.47,-24.09 38.49,-39.03 5.54,-7.43 10.72,-15.26 15.13,-23.56 4.57,-8.22 8.42,-16.96 10.42,-26.19 10.06,-36.52 8.63,-74.76 2.5,-110.86 -6.04,-36.28 -16.67,-71.14 -24.75,-105.82 -3.94,-17.32 -7.3,-34.72 -7.65,-51.74 -0.35,-16.95 2.92,-33.5 12.5,-46.17 4.74,-6.35 10.69,-11.74 17.67,-16.34 8.83,-6.02 15.36,-13.72 20.77,-21.65 10.77,-15.98 18.17,-33.12 24.5,-50.41 12.5,-34.66 20.76,-70.191 27.72,-105.851 3.44,-17.828 6.46,-35.73 9.16,-53.66 1.24,-8.98 2.92,-17.898 4,-26.898 0.91,-9.032 1.31,-18.11 1.89,-27.149 1.96,-36.222 3.31,-72.402 2.63,-108.601"
         style="fill:#f25466;fill-opacity:1;fill-rule:nonzero;stroke:none"
         id="path1714" /><path
         d="m 1487.68,1449.69 c 6.2,-2.16 11.39,-5.78 16.21,-9.63 4.78,-3.93 9.34,-8.08 12.69,-13.34 3.41,-5.23 6.44,-10.73 10.79,-15.02 4.19,-4.44 9.26,-8.06 14.11,-11.95 l -6.39,-0.4 c 2.16,4.63 4.81,8.98 7.25,13.43 2.51,4.41 5.03,8.8 8.01,12.88 2.79,4.2 5.99,8.15 9.03,12.17 3.06,4.04 6.51,7.76 9.29,12.03 l 1.08,-0.18 c 0.24,-5.65 -1.47,-10.88 -3.19,-15.82 -1.89,-4.91 -4,-9.68 -6.56,-14.17 -2.37,-4.61 -5.39,-8.79 -8.45,-12.93 -3.14,-4.09 -6.14,-8.23 -9.75,-12.02 l -4,-4.2 -2.39,3.8 c -3.28,5.18 -6.42,10.57 -10.5,15.08 -3.91,4.68 -9.23,8.05 -14.24,11.63 -5.05,3.57 -9.03,8.11 -12.95,12.73 -3.87,4.69 -7.48,9.51 -10.73,15.06 l 0.69,0.85"
         style="fill:#f25466;fill-opacity:1;fill-rule:nonzero;stroke:none"
         id="path1716" /><path
         d="m 1565.98,1312.64 c -2.56,-6.17 -5.91,-11.79 -9.65,-17.06 -3.81,-5.21 -7.78,-10.29 -12.34,-14.82 -4.66,-4.43 -10,-8.22 -15,-12.3 -4.9,-4.18 -9.22,-8.88 -13.14,-14.02 l -1.25,-1.63 -1.76,1.41 c -6.52,5.18 -11.7,9.92 -16.84,15.45 -4.87,5.55 -10.05,10.84 -14.58,16.62 -4.57,5.75 -8.84,11.72 -12.88,17.85 -4.1,6.11 -7.77,12.51 -12.03,18.48 l 0.62,0.91 c 7.15,-3.38 12.72,-8.62 18.25,-13.61 5.44,-5.13 10.48,-10.56 15.15,-16.28 4.72,-5.67 8.73,-11.89 13.11,-17.79 4.28,-5.77 7.89,-12.95 11.95,-18.01 l -3.01,-0.22 c 4.96,4.06 9.43,8.64 13.27,13.78 3.75,5.24 7.11,10.82 11.05,15.83 4.04,4.93 8.64,9.34 13.22,13.78 4.66,4.36 9.6,8.46 15,12.3 l 0.86,-0.67"
         style="fill:#f25466;fill-opacity:1;fill-rule:nonzero;stroke:none"
         id="path1718" /><path
         d="m 1421.95,1206.83 c 6.8,-7.98 13.85,-15.35 21.07,-22.36 7.23,-7.05 15,-13.2 22.55,-19.98 7.7,-6.54 16.43,-12.4 26.32,-15.29 9.81,-3.1 20.22,-3.48 30.26,-3.37 l -4.49,-3.16 c 1.77,8.45 4.4,16.42 7.16,24.49 2.73,8.05 6.21,15.87 10.41,23.33 4.16,7.49 9.1,14.64 14.93,21.09 5.92,6.28 12.77,12.19 20.96,15.12 l 0.55,-0.95 c -6.19,-5.61 -10.98,-12.09 -15.12,-19.01 -4.23,-6.86 -7.8,-14.11 -11.32,-21.41 l -10.07,-22.24 c -3.32,-7.46 -6.23,-15.23 -9.13,-22.77 l -1.41,-3.64 -3.09,0.48 c -10.69,1.68 -20.83,5.29 -30.74,8.78 -9.79,3.82 -19.86,7.18 -29.49,12.11 -9.74,4.76 -17.93,12.15 -24.81,20.37 -6.86,8.24 -12.46,17.61 -15.52,27.93 l 0.98,0.48"
         style="fill:#f25466;fill-opacity:1;fill-rule:nonzero;stroke:none"
         id="path1720" /><path
         d="m 1616.72,1125.86 c 3.3,-7.93 4.43,-16.57 4.21,-25.13 -0.36,-8.54 -1.71,-17.17 -4.7,-25.22 -3.15,-8 -7.76,-15.35 -12.93,-22.01 l -15.07,-20.03 -1.07,-1.43 -1.74,1.23 c -8.16,5.8 -17.43,10.2 -26.28,14.81 -8.83,4.74 -17.98,8.79 -27.14,12.69 -9.15,3.95 -18.28,7.94 -27.68,11.47 -9.32,3.82 -18.91,6.87 -28.64,10.53 l 0.16,1.09 c 20.78,0.45 41.75,-3.96 60.85,-12.38 9.58,-4.18 18.59,-9.54 27.31,-15.2 8.7,-5.8 16.44,-12.78 24.04,-19.98 l -2.82,-0.19 c 5.58,5.88 10.67,12.39 13.92,19.86 3.61,7.29 5.4,15.23 7.88,22.66 4.82,15 7.88,30.44 8.63,46.98 l 1.07,0.25"
         style="fill:#f25466;fill-opacity:1;fill-rule:nonzero;stroke:none"
         id="path1722" /><path
         d="M 1769.56,510.582 H 1539 c -21.4,0 -39.59,18.488 -42.81,43.527 l -36.5,283.621 c -4,31.032 16.3,58.981 42.81,58.981 h 303.56 c 26.51,0 46.81,-27.949 42.81,-58.981 l -36.5,-283.621 c -3.22,-25.039 -21.41,-43.527 -42.81,-43.527"
         style="fill:#9bdff5;fill-opacity:1;fill-rule:nonzero;stroke:none"
         id="path1724" /><path
         d="m 1806.06,896.711 h -50.21 c 26.52,0 46.81,-27.949 42.81,-58.981 l -36.49,-283.621 c -3.22,-25.039 -21.42,-43.527 -42.82,-43.527 h 50.21 c 21.4,0 39.59,18.488 42.81,43.527 l 36.5,283.621 c 4,31.032 -16.3,58.981 -42.81,58.981"
         style="fill:#87d8f7;fill-opacity:1;fill-rule:nonzero;stroke:none"
         id="path1726" /><path
         d="M 1134.54,2003.59 H 438.047 c -37.832,0 -68.496,30.67 -68.496,68.5 v 362.21 c 0,37.82 30.664,68.48 68.496,68.48 h 696.493 c 37.83,0 68.5,-30.66 68.5,-68.48 v -362.21 c 0,-37.83 -30.67,-68.5 -68.5,-68.5"
         style="fill:#87d8f7;fill-opacity:1;fill-rule:nonzero;stroke:none"
         id="path1728" /><path
         d="M 1158.07,2003.59 H 414.516 c -24.832,0 -44.965,20.13 -44.965,44.96 l 416.742,276.63 416.747,-276.63 c 0,-24.83 -20.13,-44.96 -44.97,-44.96"
         style="fill:#9bdff5;fill-opacity:1;fill-rule:nonzero;stroke:none"
         id="path1730" /><path
         d="M 1158.07,2502.78 H 414.516 c -24.832,0 -44.965,-20.12 -44.965,-44.96 l 416.742,-276.62 416.747,276.62 c 0,24.84 -20.13,44.96 -44.97,44.96"
         style="fill:#f9fdff;fill-opacity:1;fill-rule:nonzero;stroke:none"
         id="path1732" /><path
         d="M 6114,4313.29 H 4450.7 c -51.81,0 -93.82,-42 -93.82,-93.83 v -389.01 c 0,-51.82 42.01,-93.83 93.82,-93.83 h 167.07 l -56.94,-140.54 189.32,140.54 H 6114 c 51.82,0 93.82,42.01 93.82,93.83 v 389.01 c 0,51.83 -42,93.83 -93.82,93.83"
         style="fill:#87d8f7;fill-opacity:1;fill-rule:nonzero;stroke:none"
         id="path1734" /><path
         d="m 5392.29,3926.5 c 0,12.11 -9.81,21.92 -21.91,21.92 h -809.87 c -12.11,0 -21.92,-9.81 -21.92,-21.92 0,-12.1 9.81,-21.92 21.92,-21.92 h 809.87 c 12.1,0 21.91,9.82 21.91,21.92 z m 633.83,98.46 c 0,12.1 -9.81,21.92 -21.92,21.92 H 4560.51 c -12.11,0 -21.92,-9.82 -21.92,-21.92 0,-12.11 9.81,-21.92 21.92,-21.92 H 6004.2 c 12.11,0 21.92,9.81 21.92,21.92 z m -21.92,76.53 H 4736.56 c -12.1,0 -21.91,9.81 -21.91,21.92 0,12.1 9.81,21.92 21.91,21.92 H 6004.2 c 12.11,0 21.92,-9.82 21.92,-21.92 0,-12.11 -9.81,-21.92 -21.92,-21.92"
         style="fill:#ffffff;fill-opacity:1;fill-rule:nonzero;stroke:none"
         id="path1736" /><path
         d="m 6671.55,2364.16 c -42.59,-42.6 -111.66,-42.6 -154.26,0 -42.59,42.61 -42.59,111.67 0,154.27 42.6,42.6 111.67,42.6 154.26,0 42.6,-42.6 42.6,-111.66 0,-154.27 z m -215.53,215.55 c -64.65,-64.65 -74.41,-163.15 -29.72,-238.27 l -328.92,-328.92 c -6.74,-6.74 -6.74,-17.66 0,-24.4 l 43.87,-43.86 c 6.74,-6.74 17.66,-6.74 24.39,0 l 23.36,23.36 60.78,-60.77 c 6.73,-6.74 17.65,-6.74 24.39,0 l 35.93,35.92 c 6.74,6.74 6.74,17.66 0,24.4 l -60.77,60.77 31.47,31.47 51.92,-51.92 c 6.73,-6.74 17.66,-6.74 24.39,0 l 35.94,35.93 c 6.73,6.74 6.73,17.65 0,24.39 l -51.93,51.93 153.44,153.43 c 75.13,-44.68 173.63,-34.93 238.27,29.71 76.45,76.45 76.45,200.38 0,276.83 -76.44,76.44 -200.38,76.44 -276.81,0"
         style="fill:#87d8f7;fill-opacity:1;fill-rule:nonzero;stroke:none"
         id="path1738" /><path
         d="m 1005.35,1251.08 -2.55,7.25 c -12.179,34.67 6.05,72.66 40.72,84.84 34.67,12.18 72.65,-6.04 84.84,-40.71 l 2.54,-7.25 c 12.19,-34.67 -6.04,-72.65 -40.7,-84.84 h -0.01 c -34.67,-12.19 -72.65,6.05 -84.84,40.71 z m -54.088,146.12 c -5.434,15.45 -9.332,30.55 -11.758,45.25 -2.43,14.7 -1.324,29.89 3.488,45.69 4.758,15.75 15.09,32.07 30.961,49.06 4.82,5.25 11.817,12.52 21.012,21.75 9.205,9.23 18.165,19.53 26.875,30.99 8.72,11.44 15.39,23.21 19.89,35.27 4.56,12.08 4.92,23.73 0.98,34.93 -2.81,7.98 -7.6,14.25 -14.36,18.73 -6.77,4.5 -14.34,7.1 -22.72,7.74 -8.435,0.63 -16.978,-0.56 -25.61,-3.59 -12.918,-4.54 -22.497,-11.43 -28.688,-20.56 -6.195,-9.14 -10.504,-18.57 -12.832,-28.17 -2.387,-9.65 -4.812,-17.9 -7.195,-24.82 l -122.492,35.22 c 1.39,25.33 7.773,48.68 19.109,69.95 11.262,21.25 26.668,40 46.133,56.24 19.465,16.25 42.183,28.93 68.086,38.04 20.562,7.22 42.234,11.51 65.059,12.94 22.89,1.42 45.17,-1.26 67.01,-8.03 21.79,-6.78 41.62,-18.73 59.44,-35.94 17.88,-17.19 32.09,-40.74 42.61,-70.7 4.52,-12.85 7.8,-25.55 9.76,-38.08 1.96,-12.52 2.24,-24.9 0.77,-37.16 -1.47,-12.24 -4.72,-24.5 -9.8,-36.79 -5.08,-12.31 -12.18,-24.57 -21.21,-36.78 -11.92,-16.22 -24.74,-30.95 -38.59,-44.22 -13.84,-13.3 -25.07,-25.8 -33.68,-37.53 -8.6,-11.77 -10.83,-23.54 -6.7,-35.31 L 951.262,1397.2"
         style="fill:#ffffff;fill-opacity:1;fill-rule:nonzero;stroke:none"
         id="path1740" /></g></g></svg>
