<?xml version="1.0" encoding="UTF-8" standalone="no"?>
<!-- Created with Inkscape (http://www.inkscape.org/) -->

<svg
   version="1.1"
   id="svg25"
   xml:space="preserve"
   width="666.56"
   height="666.56"
   viewBox="0 0 666.56 666.56"
   sodipodi:docname="Logo1.svg"
   inkscape:version="1.1.2 (0a00cf5339, 2022-02-04, custom)"
   xmlns:inkscape="http://www.inkscape.org/namespaces/inkscape"
   xmlns:sodipodi="http://sodipodi.sourceforge.net/DTD/sodipodi-0.dtd"
   xmlns="http://www.w3.org/2000/svg"
   xmlns:svg="http://www.w3.org/2000/svg"><defs
     id="defs29" /><sodipodi:namedview
     id="namedview27"
     pagecolor="#ffffff"
     bordercolor="#666666"
     borderopacity="1.0"
     inkscape:pageshadow="2"
     inkscape:pageopacity="0.0"
     inkscape:pagecheckerboard="0"
     showgrid="false"
     inkscape:zoom="1.1911906"
     inkscape:cx="332.86025"
     inkscape:cy="333.28"
     inkscape:window-width="1920"
     inkscape:window-height="1003"
     inkscape:window-x="0"
     inkscape:window-y="0"
     inkscape:window-maximized="1"
     inkscape:current-layer="g31" /><g
     id="g31"
     inkscape:groupmode="layer"
     inkscape:label="ink_ext_XXXXXX"
     transform="matrix(1.3333333,0,0,-1.3333333,0,666.56)"><g
       id="g33"
       transform="scale(0.1)"><path
         d="M 0,0 H 4999.2 V 4999.2 H 0 Z"
         style="fill:#f03372;fill-opacity:1;fill-rule:nonzero;stroke:none"
         id="path35" /><path
         d="m 2435.79,4189.77 v -934.62 c 0,-39.77 -32.23,-71.99 -71.99,-71.99 H 840.055 c -39.77,0 -71.989,32.22 -71.989,71.99 v 934.62 c 0,39.76 32.219,71.99 71.989,71.99 H 2363.8 c 39.76,0 71.99,-32.23 71.99,-71.99"
         style="fill:#dbdedb;fill-opacity:1;fill-rule:nonzero;stroke:none"
         id="path37" /><path
         d="m 2435.79,4189.77 v -74.49 H 768.066 v 74.49 c 0,39.76 32.219,71.99 71.989,71.99 H 2363.8 c 39.76,0 71.99,-32.23 71.99,-71.99"
         style="fill:#2c6995;fill-opacity:1;fill-rule:nonzero;stroke:none"
         id="path39" /><path
         d="m 1097.53,4188.52 c 0,-22.67 -18.38,-41.04 -41.05,-41.04 -22.67,0 -41.05,18.37 -41.05,41.04 0,22.67 18.38,41.05 41.05,41.05 22.67,0 41.05,-18.38 41.05,-41.05"
         style="fill:#3ab983;fill-opacity:1;fill-rule:nonzero;stroke:none"
         id="path41" /><path
         d="m 990.473,4188.52 c 0,-22.67 -18.379,-41.04 -41.051,-41.04 -22.664,0 -41.043,18.37 -41.043,41.04 0,22.67 18.379,41.05 41.043,41.05 22.672,0 41.051,-18.38 41.051,-41.05"
         style="fill:#f9b031;fill-opacity:1;fill-rule:nonzero;stroke:none"
         id="path43" /><path
         d="m 880.672,4188.52 c 0,-22.67 -18.379,-41.04 -41.043,-41.04 -22.672,0 -41.051,18.37 -41.051,41.04 0,22.67 18.379,41.05 41.051,41.05 22.664,0 41.043,-18.38 41.043,-41.05"
         style="fill:#f03372;fill-opacity:1;fill-rule:nonzero;stroke:none"
         id="path45" /><path
         d="m 1379.17,3897.04 v -53.91 h 486.01 v 53.91 h -486.01"
         style="fill:#f9b031;fill-opacity:1;fill-rule:nonzero;stroke:none"
         id="path47" /><path
         d="m 1928.74,3843.13 h 371.203 v 53.9102 H 1928.74 Z"
         style="fill:#ffffff;fill-opacity:1;fill-rule:nonzero;stroke:none"
         id="path49" /><path
         d="m 939.508,3748.36 h 833.281 v 53.9023 H 939.508 Z"
         style="fill:#2c6995;fill-opacity:1;fill-rule:nonzero;stroke:none"
         id="path51" /><path
         d="m 1166.17,3970.77 h 833.277 v 53.8984 H 1166.17 Z"
         style="fill:#2c6995;fill-opacity:1;fill-rule:nonzero;stroke:none"
         id="path53" /><path
         d="m 1838.13,3802.26 v -53.9 h 202.54 v 53.9 h -202.54"
         style="fill:#f9b031;fill-opacity:1;fill-rule:nonzero;stroke:none"
         id="path55" /><path
         d="m 2104.24,3748.36 h 195.703 v 53.9023 H 2104.24 Z"
         style="fill:#ffffff;fill-opacity:1;fill-rule:nonzero;stroke:none"
         id="path57" /><path
         d="m 2061.74,3970.77 h 238.203 v 53.8984 H 2061.74 Z"
         style="fill:#ffffff;fill-opacity:1;fill-rule:nonzero;stroke:none"
         id="path59" /><path
         d="m 939.508,3653.59 h 439.664 v 53.8906 H 939.508 Z"
         style="fill:#2c6995;fill-opacity:1;fill-rule:nonzero;stroke:none"
         id="path61" /><path
         d="m 1444.51,3707.48 v -53.89 h 596.16 v 53.89 h -596.16"
         style="fill:#f9b031;fill-opacity:1;fill-rule:nonzero;stroke:none"
         id="path63" /><path
         d="m 1109.27,3558.81 h 269.902 v 53.9023 H 1109.27 Z"
         style="fill:#f9b031;fill-opacity:1;fill-rule:nonzero;stroke:none"
         id="path65" /><path
         d="m 1442.73,3558.81 h 857.211 v 53.9023 H 1442.73 Z"
         style="fill:#ffffff;fill-opacity:1;fill-rule:nonzero;stroke:none"
         id="path67" /><path
         d="m 939.508,3464.04 h 374.32 v 53.8906 h -374.32 z"
         style="fill:#2c6995;fill-opacity:1;fill-rule:nonzero;stroke:none"
         id="path69" /><path
         d="m 1379.17,3517.93 v -53.89 h 661.5 v 53.89 h -661.5"
         style="fill:#f9b031;fill-opacity:1;fill-rule:nonzero;stroke:none"
         id="path71" /><path
         d="m 2104.24,3464.04 h 195.703 v 53.8906 H 2104.24 Z"
         style="fill:#ffffff;fill-opacity:1;fill-rule:nonzero;stroke:none"
         id="path73" /><path
         d="m 939.508,3369.26 h 626.82 v 53.8984 h -626.82 z"
         style="fill:#2c6995;fill-opacity:1;fill-rule:nonzero;stroke:none"
         id="path75" /><path
         d="m 1631.67,3423.16 v -53.9 h 233.51 v 53.9 h -233.51"
         style="fill:#f9b031;fill-opacity:1;fill-rule:nonzero;stroke:none"
         id="path77" /><path
         d="m 1928.74,3369.26 h 371.203 v 53.8984 H 1928.74 Z"
         style="fill:#ffffff;fill-opacity:1;fill-rule:nonzero;stroke:none"
         id="path79" /><path
         d="m 1213.7,3328.39 v -53.9 h 826.97 v 53.9 H 1213.7"
         style="fill:#f9b031;fill-opacity:1;fill-rule:nonzero;stroke:none"
         id="path81" /><path
         d="m 2104.24,3274.49 h 195.703 v 53.8984 H 2104.24 Z"
         style="fill:#ffffff;fill-opacity:1;fill-rule:nonzero;stroke:none"
         id="path83" /><g
         id="g85"
         transform="scale(10)"><text
           transform="matrix(1,0,0,-1,93.9508,395.012)"
           style="font-variant:normal;font-weight:800;font-size:11.0227px;font-family:Montserrat;-inkscape-font-specification:Montserrat-ExtraBold;writing-mode:lr-tb;fill:#398ac0;fill-opacity:1;fill-rule:nonzero;stroke:none"
           id="text89"><tspan
             x="0 6.7128243 11.287245"
             y="0"
             sodipodi:role="line"
             id="tspan87">&lt;/&gt;</tspan></text></g><path
         d="m 822.531,2282.51 c 0.36,-2.89 0.614,-5.75 0.75,-8.57 l 0.016,-0.19 0.004,-0.2 c 1.859,-40.58 -19.981,-71.5 -91.125,-58.78 -8.422,1.52 -15.883,6.01 -22.551,12.5 l -0.02,-0.01 c 0,0 -40.792,39.74 -64.281,85.89 -14.293,28.1 -10.789,41.52 -11.379,43.29 -5,7.06 -9.316,12.23 -12.523,14.6 -5.856,4.35 -12.883,5.63 -12.883,5.63 0,0 -2.363,-8.37 4.469,-21.83 6.832,-13.45 -14.692,-33.7 -30.274,0.76 -12.98,28.72 -8.828,47.24 6.036,53.38 -3.731,0.16 -7.504,0.16 -11.321,-0.07 -51.746,-3.18 -49.617,39.71 4.141,39.69 5.933,0 12.047,-0.25 18.238,-0.7 -0.437,1.06 -0.765,2.07 -0.992,3.03 -3.332,0.62 -6.719,1.1 -10.133,1.37 -52.551,4.23 -39.098,46.9 12.047,38 14.063,-2.45 28.801,-6.63 43.094,-11.85 -5.489,4.02 -11.031,7.62 -16.512,10.57 -38.035,20.43 -23.41,56.31 14.152,38.85 37.559,-17.46 90.766,-60.35 118.176,-95.4 25.844,-33.04 57.164,-100.84 62.871,-149.96"
         style="fill:#ef9e97;fill-opacity:1;fill-rule:nonzero;stroke:none"
         id="path91" /><path
         d="m 651.086,2463.69 c 18.973,-16.85 30.551,-30.29 37.324,-39.38 3.387,-4.55 5.57,-8.01 6.883,-10.27 0.656,-1.12 1.094,-1.95 1.352,-2.46 l 0.257,-0.53 0.039,-0.09 2.481,1.12 -2.496,-1.08 0.015,-0.04 2.481,1.12 -2.496,-1.08 13.219,5.71 c -0.457,1.07 -10.211,22.87 -49.5,57.75 l -9.559,-10.77"
         style="fill:#cc6379;fill-opacity:1;fill-rule:nonzero;stroke:none"
         id="path93" /><path
         d="m 601.98,2387.87 0.372,2.02 -0.434,-2.01 0.062,-0.01 0.372,2.02 -0.434,-2.01 c 0.488,-0.14 12.328,-2.72 24.711,-18.13 l 11.234,9 c -15.758,19.7 -32.136,23.1 -33.304,23.28 l -2.579,-14.16"
         style="fill:#cc6379;fill-opacity:1;fill-rule:nonzero;stroke:none"
         id="path95" /><path
         d="m 671.973,2337.7 c -5.813,10.69 -9.102,21.3 -12.297,31.51 -3.223,10.18 -6.274,20.08 -12.391,28.86 -7.019,9.97 -17.769,21.55 -26.707,32.3 -4.453,5.34 -8.43,10.46 -11.125,14.74 -2.769,4.21 -3.894,7.8 -3.754,8.42 v 0.07 l -1.082,0.21 1.008,-0.44 0.074,0.23 -1.082,0.21 1.008,-0.44 c 1.445,3.32 2.969,5.09 4.258,6.03 1.305,0.93 2.496,1.32 4.453,1.35 3.348,0.07 8.894,-1.83 15.297,-5.72 6.418,-3.84 13.687,-9.42 21.222,-15.74 10.79,-9.03 25.016,-19.14 39.559,-27.14 14.617,-7.95 29.238,-14.03 42.395,-14.14 4.261,0 8.472,0.7 12.359,2.54 l -6.188,13 c -1.437,-0.69 -3.48,-1.15 -6.171,-1.14 -8.379,-0.12 -22,4.87 -35.457,12.36 -13.524,7.43 -27.196,17.13 -37.25,25.56 -7.829,6.55 -15.547,12.54 -23.071,17.05 -7.539,4.46 -14.883,7.7 -22.695,7.77 -4.469,0.03 -9.137,-1.29 -12.977,-4.14 -3.863,-2.84 -6.781,-6.93 -8.941,-11.9 -0.805,-1.85 -1.121,-3.79 -1.117,-5.58 0.14,-6 2.746,-10.82 5.976,-16.11 4.953,-7.82 12.157,-16.27 19.348,-24.63 7.176,-8.32 14.348,-16.52 18.871,-22.99 4.414,-6.23 7.274,-14.72 10.438,-24.9 3.191,-10.14 6.761,-21.87 13.382,-34.07 l 12.657,6.87"
         style="fill:#cc6379;fill-opacity:1;fill-rule:nonzero;stroke:none"
         id="path97" /><path
         d="m 1658.84,2379.36 -0.07,-0.06 c -7.29,-21.5 -16.34,-45.05 -27.68,-70.44 -27.01,-60.66 -66.68,-131.76 -124.98,-209.42 -22.6,-29.96 -47.77,-60.8 -76.11,-92.52 -1.32,-1.47 -2.72,-3.02 -4.05,-4.49 -13.03,-14.35 -26.72,-28.92 -41.07,-43.65 -12.22,-12.66 -25.47,-22.67 -39.75,-30.26 l -123.07,144.5 c 0,0 7.66,14.5 20.62,38.72 3.75,7.06 8.02,14.94 12.65,23.55 5.74,10.67 12.14,22.38 18.92,34.96 1.76,3.31 3.53,6.69 5.45,10.08 4.34,8.18 8.9,16.64 13.61,25.4 70.59,129.85 173.86,315.26 214.64,365.31 l 0.3,0.29 c 4.41,4.05 8.68,7.8 12.73,11.34 l 68.89,-26.65 37.1,-14.35 c 3.46,-5.08 6.92,-10.6 10.23,-16.27 8.76,-30.47 19.36,-80.09 21.64,-146.04"
         style="fill:#eb9c95;fill-opacity:1;fill-rule:nonzero;stroke:none"
         id="path99" /><path
         d="m 1415.72,2001.25 c -9.2,-16.63 -19.5,-30.69 -30.84,-42.47 -12.22,-12.66 -25.47,-22.67 -39.75,-30.26 -208.52,-111.36 -618.142,287.89 -618.142,287.89 l 64.918,75.29 463.424,-156.41 21.28,-7.21 139.11,-126.83"
         style="fill:#eb9c95;fill-opacity:1;fill-rule:nonzero;stroke:none"
         id="path101" /><path
         d="m 2481.47,1625.63 -897.56,-14.5 -62.71,915.23 c -5.96,42.1 2.43,66.03 42.03,81.55 33.12,13.04 83.69,32.76 146.03,47.11 13.11,2.95 26.65,5.75 40.71,8.17 35.11,6.11 73.09,10.02 113.2,10.02 l 123.74,8.53 c 0,0 43.65,-0.88 102.61,-6.4 23.62,-2.13 49.82,-5 76.7,-8.91 27.37,-3.97 55.42,-8.91 82.21,-15.16 57.27,-13.4 94.29,-68.82 85.09,-126.9 l 147.95,-898.74"
         style="fill:#398ac0;fill-opacity:1;fill-rule:nonzero;stroke:none"
         id="path103" /><path
         d="m 2166.22,2666.43 c -470.42,-276.25 -467.33,-74.34 -456.96,-11.41 13.11,2.95 26.65,5.75 40.71,8.17 35.11,6.11 73.09,10.02 113.2,10.02 l 123.74,8.53 c 0,0 43.65,-0.88 102.61,-6.4 23.62,-2.13 49.82,-5 76.7,-8.91"
         style="fill:#2c6995;fill-opacity:1;fill-rule:nonzero;stroke:none"
         id="path105" /><path
         d="m 2089.52,2675.34 c -408.23,-248.72 -339.55,-12.15 -339.55,-12.15 35.11,6.11 73.09,10.02 113.2,10.02 l 123.74,8.53 c 0,0 43.65,-0.88 102.61,-6.4"
         style="fill:#ef9e97;fill-opacity:1;fill-rule:nonzero;stroke:none"
         id="path107" /><path
         d="m 1568.73,3019.94 c 0,0 -73.32,-1.08 -65.99,59.89 7.33,60.97 74.24,62.01 74.24,62.01 l -8.25,-121.9"
         style="fill:#2a2d4b;fill-opacity:1;fill-rule:nonzero;stroke:none"
         id="path109" /><path
         d="m 2045.55,3201.97 c -19.86,18.94 -46.6,26.55 -72.88,24.37 -11.71,93.81 -156.79,100.56 -230.77,91.41 0.51,1.46 0.95,2.88 1.5,4.41 0.43,0.72 0.8,1.53 1.01,2.48 5.69,25.19 9.17,59.35 -6.96,81.74 -14.23,19.74 -41.07,26.8 -63.55,23.81 -49.27,-6.54 -68.51,-50.06 -73.69,-94.79 -25.1,28.42 -80.19,31.33 -103.21,-3.83 -31.73,-48.46 1.99,-91.67 30.17,-130.35 -27.05,-3.86 -76.35,-20.43 -64.94,-54.44 12.92,-38.53 81.1,-22.92 108.79,-15.95 1.01,0.26 1.82,0.68 2.5,1.18 5.47,-1.79 12.53,2.79 9.67,9.74 -10.97,26.63 105.4,35.09 120.82,36.36 40.22,3.32 80.68,6.94 121.03,8.04 38.82,1.05 75.68,-4.03 99.74,-39.46 23.65,-34.82 41.38,-75.52 61,-112.87 l 0.46,-0.7 c 2.32,-28.35 -0.39,-55.68 -8.24,-83.05 -2.09,-7.26 6.58,-11.21 11.78,-8.18 64.17,37.46 89.7,96.7 84.75,171.8 -2.15,32.53 -4.48,64.91 -28.98,88.28"
         style="fill:#2a2d4b;fill-opacity:1;fill-rule:nonzero;stroke:none"
         id="path111" /><path
         d="m 2001.82,2650.44 c -155.45,-41.11 -246.2,-76.77 -224.38,-15.52 l 4.79,23.72 1.22,6.16 13.33,66.29 12.85,63.67 6.29,30.88 165.79,14.66 8.86,-83.5 3.67,-34.39 7.58,-71.97"
         style="fill:#ef9e97;fill-opacity:1;fill-rule:nonzero;stroke:none"
         id="path113" /><path
         d="m 1994.24,2722.41 c -20.83,-8.21 -172.4,-67.3 -212.01,-63.77 l 1.22,6.16 13.33,66.29 186.36,94.7 11.1,-103.38"
         style="fill:#cc6379;fill-opacity:1;fill-rule:nonzero;stroke:none"
         id="path115" /><path
         d="m 1562.63,3015.94 c 0.42,-6.43 0.85,-12.71 1.42,-19.29 0.29,-4 0.72,-7.99 1.14,-12 2.72,-25.86 6.72,-49.43 11.72,-70.57 6.15,-26.14 14,-48.86 23,-68.71 7.29,-16 15.43,-30.15 24.28,-42.57 56.58,-80.43 139.29,-89.14 194.15,-84 63.29,5.86 159.71,36.85 191.14,164.99 9.57,38.29 13.15,85.43 8.29,143.15 -0.43,6 -1,11.85 -1.72,17.71 -0.57,6.43 -1.43,12.72 -2.28,18.86 -19.43,140.86 -83.86,247.57 -249.43,232.14 -167.57,-15.71 -210.14,-135.43 -201.71,-279.71"
         style="fill:#eb9c95;fill-opacity:1;fill-rule:nonzero;stroke:none"
         id="path117" /><path
         d="m 1907.91,3141.84 c 0,0 -19.28,-166.7 34.94,-202.58 0,0 59.19,-39.54 71.73,118.3 l -106.67,84.28"
         style="fill:#2a2d4b;fill-opacity:1;fill-rule:nonzero;stroke:none"
         id="path119" /><path
         d="m 1927.17,3076.84 c 0,0 -96.86,-18.77 -105.13,61.9 0,0 -57.94,-57.85 -120.77,-2.3 0,0 -12.76,-51.23 -91.57,-39.94 0,0 17.66,-67.79 -47.31,-76.29 l -17.86,36.26 9.34,79.8 23.11,54.49 55.82,69.5 59.18,28.5 75.01,12.51 h 62.6 l 74.99,-16.68 55,-50.74 45.28,-59.77 12.58,-116.07 -12.18,-10 -78.09,28.83"
         style="fill:#2a2d4b;fill-opacity:1;fill-rule:nonzero;stroke:none"
         id="path121" /><path
         d="m 1948.35,2982.61 c 0.26,-14.53 3.22,-29.51 6.97,-43.35 1.65,-6.27 3.48,-12.27 5.22,-17.85 l 0.08,-0.17 0.79,-2.52 c 0.43,-1.4 1.04,-2.71 1.83,-3.75 0.95,-1.65 2.35,-2.96 3.82,-3.92 13.24,-16.27 37,-20.1 58.15,-12.27 6.53,2.35 12.89,5.92 18.55,10.62 19.15,15.76 31.6,35.78 35.69,57.36 3.3,17.94 1.04,36.92 -8.01,55.37 -3.4,6.88 -7.31,12.8 -11.75,17.67 -5.84,6.53 -12.54,11.23 -19.76,14.19 -4.1,1.83 -8.45,2.96 -12.88,3.57 -16.64,2.26 -35.18,-3.13 -52.93,-15.32 -6.18,-4.27 -11.15,-9.23 -14.89,-14.8 -8.7,-12.8 -11.49,-28.55 -10.88,-44.83"
         style="fill:#ef9e97;fill-opacity:1;fill-rule:nonzero;stroke:none"
         id="path123" /><path
         d="m 1999.98,2933.03 -0.22,0.74 c -1.07,3.65 -5.49,20.41 -5.46,36.56 -0.04,9.54 1.62,18.67 5.34,24.53 1.87,2.96 4.11,5.18 7.16,6.82 3.05,1.63 7.05,2.71 12.59,2.72 5.59,0 12.7,-1.15 21.45,-3.98 l 4.56,14.12 c -9.85,3.18 -18.42,4.69 -26.01,4.7 -7.5,0 -14.09,-1.53 -19.58,-4.47 -8.3,-4.4 -13.57,-11.8 -16.47,-19.67 -2.95,-7.92 -3.87,-16.48 -3.88,-24.77 0.04,-21.34 6.25,-41.28 6.33,-41.66 l 14.19,4.35"
         style="fill:#cc6379;fill-opacity:1;fill-rule:nonzero;stroke:none"
         id="path125" /><path
         d="m 1990.24,2955.7 35.36,16.03 -6.13,13.52 -35.36,-16.04"
         style="fill:#cc6379;fill-opacity:1;fill-rule:nonzero;stroke:none"
         id="path127" /><path
         d="m 1741.42,2875.22 -81.73,-7.97 0.72,-7.39 1.23,-7.31 c 11.83,1.97 21.64,6.64 29.33,13.08 11.58,9.68 18.28,22.92 22.13,36.4 3.86,13.51 4.95,27.46 4.95,39.38 0,17.8 -2.47,31.11 -2.52,31.41 l -14.59,-2.71 0.08,-0.47 c 0.42,-2.43 2.2,-13.86 2.19,-28.23 0.03,-14.66 -1.92,-32.36 -8.46,-46.44 -3.26,-7.06 -7.58,-13.19 -13.28,-17.95 -5.72,-4.74 -12.83,-8.23 -22.29,-9.84 l 1.95,-14.7 81.73,7.97 -1.44,14.77"
         style="fill:#cc6379;fill-opacity:1;fill-rule:nonzero;stroke:none"
         id="path129" /><path
         d="m 1777.08,2769.89 c -6.48,0 -11.6,1.43 -13.29,4.85 -4.78,9.66 22.03,21.53 40.11,21.53 6.42,0 11.73,-1.49 14.15,-5.11 6.58,-9.88 -22.64,-21.27 -40.97,-21.27"
         style="fill:#db7e87;fill-opacity:1;fill-rule:nonzero;stroke:none"
         id="path131" /><path
         d="m 1837.61,2874.58 c -7.57,-17.97 -21.14,-30.92 -38.63,-39.67 -17.46,-8.71 -38.82,-12.97 -60.89,-12.96 -5.76,0 -11.57,0.29 -17.37,0.85 l -1.44,-14.77 c 6.27,-0.61 12.55,-0.92 18.81,-0.92 23.95,0.01 47.46,4.54 67.51,14.52 20.02,9.94 36.63,25.58 45.69,47.2 l -13.68,5.75"
         style="fill:#cc6379;fill-opacity:1;fill-rule:nonzero;stroke:none"
         id="path133" /><path
         d="m 1612.67,2964.29 c 1.55,-15.24 11.31,-26.73 21.78,-25.66 10.48,1.07 17.71,14.29 16.15,29.53 -1.55,15.24 -11.3,26.73 -21.78,25.66 -10.47,-1.07 -17.7,-14.29 -16.15,-29.53"
         style="fill:#2a2d4b;fill-opacity:1;fill-rule:nonzero;stroke:none"
         id="path135" /><path
         d="m 1790.1,2982.39 c 1.55,-15.24 11.31,-26.72 21.78,-25.66 10.48,1.07 17.71,14.29 16.15,29.53 -1.55,15.24 -11.3,26.73 -21.78,25.66 -10.47,-1.07 -17.71,-14.29 -16.15,-29.53"
         style="fill:#2a2d4b;fill-opacity:1;fill-rule:nonzero;stroke:none"
         id="path137" /><path
         d="m 1780.28,3017.02 c 55.26,-3.08 86.42,12.26 38.78,18.81 -47.63,6.56 -67.41,-17.23 -38.78,-18.81"
         style="fill:#2a2d4b;fill-opacity:1;fill-rule:nonzero;stroke:none"
         id="path139" /><path
         d="m 1646.64,3028.51 c -48.87,-25.97 -83.58,-25.12 -43.09,0.82 40.49,25.93 68.42,12.63 43.09,-0.82"
         style="fill:#2a2d4b;fill-opacity:1;fill-rule:nonzero;stroke:none"
         id="path141" /><path
         d="m 1845.73,2921.69 c -12.56,-14.68 -30.92,-24.18 -51.46,-25.11 -1.07,-0.06 -2.13,-0.06 -3.19,-0.06 -21.86,0 -41.47,9.74 -54.65,25.17 -6.31,7.37 -11.18,15.99 -14.12,25.42 -0.74,2.43 -1.37,4.93 -1.81,7.49 -0.99,4.5 -1.43,9.18 -1.43,13.93 0,16.05 5.25,30.91 14.18,42.9 13.11,17.68 34.16,29.17 57.83,29.17 23.67,0 44.72,-11.49 57.84,-29.17 8.99,-11.99 14.23,-26.85 14.23,-42.9 0,-4.75 -0.44,-9.43 -1.37,-13.93 -2.44,-12.43 -8.12,-23.67 -16.05,-32.91 z m -193.05,25.42 c -2.94,-9.43 -7.81,-18.05 -14.12,-25.42 -13.18,-15.43 -32.78,-25.17 -54.64,-25.17 h -1.75 c -21.12,0.5 -40.04,10.18 -52.9,25.17 -7.94,9.24 -13.62,20.48 -15.99,32.91 -0.94,4.5 -1.38,9.18 -1.38,13.93 0,16.05 5.25,30.91 14.18,42.9 13.11,17.68 34.16,29.17 57.84,29.17 23.66,0 44.71,-11.49 57.83,-29.17 8.93,-11.99 14.18,-26.85 14.18,-42.9 0,-4.75 -0.44,-9.43 -1.44,-13.93 -0.44,-2.56 -1.06,-5.06 -1.81,-7.49 z m 207.91,64.32 c -8.18,13.18 -20.04,23.86 -34.1,30.67 -1.62,0.81 -3.31,1.56 -5,2.19 -7.93,3.24 -16.54,5.25 -25.54,5.74 -1.62,0.13 -3.25,0.19 -4.87,0.19 -10.81,0 -21.11,-2.13 -30.54,-5.93 -16.18,-6.56 -29.86,-18.18 -38.97,-32.86 -6.13,-9.86 -10.18,-21.1 -11.62,-33.1 h -44.91 c -1.43,12 -5.49,23.24 -11.61,33.1 -9.12,14.68 -22.8,26.3 -39.04,32.86 -9.43,3.8 -19.73,5.93 -30.47,5.93 -10.81,0 -21.12,-2.06 -30.48,-5.93 -13.99,-5.62 -25.98,-14.93 -34.86,-26.8 -1.43,-1.93 -2.87,-3.93 -4.05,-6.06 -7.12,-11.3 -11.44,-24.48 -12.18,-38.59 -0.07,-1.44 -0.13,-2.87 -0.13,-4.31 0,-4.75 0.44,-9.37 1.19,-13.93 1.56,-8.8 4.49,-17.11 8.56,-24.73 v -0.07 c 1.5,-2.8 3.24,-5.49 5.06,-8.11 11.05,-15.68 27.48,-27.36 46.52,-32.29 5.75,-1.5 11.75,-2.32 17.93,-2.5 l 2.44,-0.06 c 27.91,0 52.58,14.05 67.26,34.85 5.49,7.68 9.62,16.23 11.99,25.42 0.62,2.43 1.18,4.93 1.56,7.49 0.56,3.69 0.87,7.44 0.87,11.24 h 43.79 c 0,-3.8 0.31,-7.55 0.94,-11.24 0.37,-2.56 0.87,-5.06 1.55,-7.49 2.38,-9.19 6.5,-17.74 11.93,-25.42 14.68,-20.8 39.35,-34.85 67.27,-34.85 1.31,0 2.62,0 3.87,0.12 11.18,0.5 21.68,3.25 31.17,7.81 h 0.06 c 10.87,5.18 20.36,12.68 27.92,21.86 1.37,1.62 2.62,3.31 3.87,5.06 6.75,9.61 11.49,20.86 13.55,32.91 0.81,4.56 1.25,9.18 1.25,13.93 0,15.74 -4.49,30.41 -12.18,42.9"
         style="fill:#ffffff;fill-opacity:1;fill-rule:nonzero;stroke:none"
         id="path143" /><path
         d="m 2394.72,2540.7 0.03,-0.06 c 27.1,-71.89 53.82,-175.46 59.97,-313.06 1.72,-39.2 1.84,-81.1 -0.19,-125.86 -1.61,-34.83 -4.52,-71.4 -8.87,-109.6 l -1.51,0.27 -191.88,34.23 c 0,0 -3.31,16.06 -8.72,42.93 -3.47,17.63 -7.89,39.92 -12.84,65.28 -2.54,12.46 -5.12,25.72 -7.81,39.55 -31.52,162.92 -75.69,406.06 -64.82,435.29 l 108.87,36.07 c 5.91,-1.72 12.04,-3.74 18.23,-6.07 26.15,-17.88 65.87,-49.44 109.54,-98.97"
         style="fill:#eb9c95;fill-opacity:1;fill-rule:nonzero;stroke:none"
         id="path145" /><path
         d="m 2260.19,2074.24 -488.98,-150.31 -8.74,-99 c 0,0 724.65,-108.65 684.69,227.6 l -186.97,21.71"
         style="fill:#eb9c95;fill-opacity:1;fill-rule:nonzero;stroke:none"
         id="path147" /><path
         d="m 1618.27,1842.18 c 0,0 -36.61,-0.65 -70.32,-13.42 -33.7,-12.78 -34.02,23.2 -3.83,34.72 0,0 -17.62,-1.88 -38.93,-12 -21.29,-10.11 -32.03,13.22 -20.75,25.57 0,0 -14.75,-5.43 -22.08,8.29 -7.34,13.72 7.87,27.74 13.74,31.76 0,0 -27.37,23.97 30.92,49.48 58.29,25.52 135.92,39.5 233.23,-9.02 66.96,-33.38 71.14,-85.86 55.38,-113.13 -28.6,-49.53 -117.43,-57.52 -177.36,-2.25"
         style="fill:#ef9e97;fill-opacity:1;fill-rule:nonzero;stroke:none"
         id="path149" /><path
         d="m 1546.61,1856.72 c 41.03,15.13 63.61,16.29 69.61,16.29 l 1.36,-0.03 0.26,-0.01 0.04,0.68 -0.06,-0.68 h 0.02 l 0.04,0.68 -0.06,-0.68 1.21,14.35 c -0.2,0.02 -1.13,0.09 -2.81,0.09 -7.87,0 -32.18,-1.54 -74.59,-17.18 l 4.98,-13.51"
         style="fill:#cc6379;fill-opacity:1;fill-rule:nonzero;stroke:none"
         id="path151" /><path
         d="m 1487.63,1870.6 c 66.09,32.65 103.77,34.61 112.03,34.62 l 1.42,-0.02 0.29,-0.02 v 0 l 1.11,14.36 c -0.19,0.01 -1.13,0.08 -2.82,0.08 -10.6,0.01 -50.59,-2.59 -118.41,-36.12 l 6.38,-12.9"
         style="fill:#cc6379;fill-opacity:1;fill-rule:nonzero;stroke:none"
         id="path153" /><path
         d="m 1479.97,1911.03 c 23.14,14.78 51.11,23.23 73.2,27.83 11.05,2.3 20.63,3.67 27.41,4.45 3.39,0.39 6.08,0.63 7.91,0.78 0.91,0.07 1.61,0.12 2.07,0.15 l 0.66,0.04 -0.74,14.38 c -0.55,-0.12 -67.36,-3.22 -118.25,-35.49 l 7.74,-12.14"
         style="fill:#cc6379;fill-opacity:1;fill-rule:nonzero;stroke:none"
         id="path155" /><path
         d="m 2528.08,2098.43 -73.55,3.29 -271.05,7.27 0.3,13.22 -67.45,507.12 54.75,25.41 c 0,0 41.34,6.92 95.87,-9 5.91,-1.72 12.04,-3.74 18.23,-6.07 103.27,-38.42 239.87,-154.86 242.9,-541.24"
         style="fill:#398ac0;fill-opacity:1;fill-rule:nonzero;stroke:none"
         id="path157" /><path
         d="m 1550.54,2602.05 c 0,0 -184.12,-95.58 -294.9,-410.26 l 228.8,-214.09 126.26,157 -60.16,467.35"
         style="fill:#398ac0;fill-opacity:1;fill-rule:nonzero;stroke:none"
         id="path159" /><path
         d="m 2202.84,2049.08 66.5,20.82 -4.3,13.74 -66.5,-20.82"
         style="fill:#cc6379;fill-opacity:1;fill-rule:nonzero;stroke:none"
         id="path161" /><path
         d="m 1193.53,2148.55 92.46,-31.37 4.63,13.63 -92.46,31.38"
         style="fill:#cc6379;fill-opacity:1;fill-rule:nonzero;stroke:none"
         id="path163" /><path
         d="m 1556.68,2063.14 c -0.01,0.01 -0.37,6.11 -0.91,16.77 -1.63,31.97 -4.88,104.84 -4.88,175.79 -0.01,47.29 1.45,93.77 5.76,126.51 l -7.36,0.97 c -4.38,-33.39 -5.82,-80.02 -5.82,-127.48 0,-94.89 5.8,-192.96 5.8,-193 l 7.41,0.44"
         style="fill:#1f5165;fill-opacity:1;fill-rule:nonzero;stroke:none"
         id="path165" /><path
         d="m 1553.38,2310.8 -25.43,50.25 -6.62,-3.35 25.43,-50.25"
         style="fill:#1f5165;fill-opacity:1;fill-rule:nonzero;stroke:none"
         id="path167" /><path
         d="m 2236.15,2111.3 -32.34,0.86 -57.89,322.85 -7.31,-1.31 58.96,-328.79 38.38,-1.03 0.2,7.42"
         style="fill:#1f5165;fill-opacity:1;fill-rule:nonzero;stroke:none"
         id="path169" /><path
         d="m 2153.8,2387.26 -29.65,29.54 -5.24,-5.26 29.65,-29.54"
         style="fill:#1f5165;fill-opacity:1;fill-rule:nonzero;stroke:none"
         id="path171" /><path
         d="m 3017.45,3013.34 c 0,0 -141.28,-46.79 -100.67,-177.19 0,0 -108.27,13.03 -137.59,-129.73 0,0 -164.65,6.25 -155.63,-162.99 9.03,-169.24 196.77,-81.61 196.77,-81.61 0,0 47.88,-152.09 177.04,-77.01 0,0 80.13,-108.91 168.93,0 l -148.85,628.53"
         style="fill:#2a2d4b;fill-opacity:1;fill-rule:nonzero;stroke:none"
         id="path173" /><path
         d="m 3413.78,2960.13 c 0,0 118.27,-90.34 37.33,-200.35 0,0 106.59,-23.01 87.72,-167.53 0,0 157.67,-47.82 93.91,-204.85 -63.76,-157.03 -212.61,-12.92 -212.61,-12.92 0,0 -94.91,-128.14 -192.49,-15.02 0,0 -111.28,-76.8 -159.67,55.13 l 345.81,545.54"
         style="fill:#2a2d4b;fill-opacity:1;fill-rule:nonzero;stroke:none"
         id="path175" /><path
         d="m 3475.38,2942.69 c -1.5,-8.86 -3.36,-17.92 -5.56,-27.32 -5.14,-22.3 -12.15,-46.05 -21.14,-71.51 l -0.61,-1.58 c -3.43,-9.68 -7.14,-19.62 -11.19,-29.79 -4.73,-11.94 -15.86,-20.03 -28.48,-20.52 l -326.68,-11.53 c -25.13,-0.89 -40.36,28.01 -49.01,51.96 -34.18,94.85 -99.72,317.28 132.25,392.78 40.57,13.17 83.8,15.78 125.53,7.41 86.68,-17.43 222.43,-78.24 184.89,-289.9"
         style="fill:#2a2d4b;fill-opacity:1;fill-rule:nonzero;stroke:none"
         id="path177" /><path
         d="m 3391.03,1978.13 c -3.49,-17.38 -4.64,-33.59 -3.69,-48.8 1.05,-16.37 4.44,-31.48 10.01,-45.48 81.09,-204.97 613.16,-168.21 613.16,-168.21 l -0.75,92.71 -423.84,168.33 -19.48,7.7 -175.41,-6.25"
         style="fill:#eb6266;fill-opacity:1;fill-rule:nonzero;stroke:none"
         id="path179" /><path
         d="m 3574.24,1926.57 -158.91,-77.96 c -9.4,11.82 -17,25.26 -22.79,40.61 -6.84,17.94 -13.11,35.47 -18.96,52.6 -0.52,1.77 -1.2,3.61 -1.79,5.38 -12.48,37.6 -22.57,73.37 -30.76,107.32 -21.06,88.11 -28.58,163.61 -29.19,225.53 -0.34,25.95 0.71,49.45 2.44,70.52 l -0.07,0.06 c 26.41,55.62 53.94,94.11 72.71,116.96 4.92,3.57 9.96,7.01 14.82,10.1 l 5.36,-0.19 31.69,-1.29 52.03,-2.07 c 6.41,-7.71 12.9,-16.39 19.57,-26.08 3.29,-4.85 6.59,-9.91 9.91,-15.31 14.92,-77.5 31.41,-245.09 42.23,-366.25 0.74,-9.24 1.48,-18.15 2.21,-26.78 0.38,-3.56 0.62,-7.12 0.92,-10.62 0.31,-3.42 0.61,-6.78 0.84,-10.07 0.89,-9.51 1.63,-18.48 2.35,-26.84 0.74,-9.11 1.53,-17.4 2.09,-24.87 2.11,-25.54 3.3,-40.75 3.3,-40.75"
         style="fill:#eb6266;fill-opacity:1;fill-rule:nonzero;stroke:none"
         id="path181" /><path
         d="m 3548.16,1983.53 52.39,-20.11 4.96,12.92 -52.39,20.11"
         style="fill:#87373d;fill-opacity:1;fill-rule:nonzero;stroke:none"
         id="path183" /><path
         d="m 3974.81,1821.74 c -2,-1.84 -3.9,-3.72 -5.7,-5.64 l -0.13,-0.13 -0.11,-0.14 c -25.8,-27.73 -28.93,-62.88 29.32,-96.75 6.91,-4.01 14.92,-5.31 23.58,-4.73 l 0.01,-0.02 c 0,0 52.97,3.66 97.51,22.3 27.12,11.36 32.71,23.01 34.21,23.92 7.81,2 13.99,3.07 17.71,2.83 6.78,-0.45 12.55,-3.77 12.55,-3.77 0,0 -3.37,-7.38 -16.35,-12.83 -12.97,-5.44 -9.88,-32.83 21.99,-17.72 26.55,12.58 34.77,28.25 27.9,41.59 2.76,-2.14 5.43,-4.41 8.01,-6.88 34.87,-33.47 59.23,-1.69 21,30.72 -4.22,3.58 -8.71,7.09 -13.39,10.5 0.95,0.5 1.79,1.01 2.53,1.56 2.75,-1.57 5.44,-3.27 8.04,-5.14 39.91,-28.7 56.08,9.76 14.35,34.29 -11.47,6.74 -24.48,12.65 -37.79,17.56 6.34,-0.45 12.44,-1.23 18.11,-2.44 39.38,-8.42 50.62,25.91 13.38,36.16 -37.23,10.25 -100.94,11.85 -141.57,3.46 -38.3,-7.91 -101.47,-37.22 -135.16,-68.7"
         style="fill:#eb6266;fill-opacity:1;fill-rule:nonzero;stroke:none"
         id="path185" /><path
         d="m 4205.69,1860.76 c -49,-1.1 -69.11,-10.71 -70.1,-11.21 l 6.13,-12.4 -1.22,2.46 1.18,-2.48 0.04,0.02 -1.22,2.46 1.18,-2.48 c 0.19,0.09 18.51,8.77 64.32,9.8 l -0.31,13.83"
         style="fill:#87373d;fill-opacity:1;fill-rule:nonzero;stroke:none"
         id="path187" /><path
         d="m 4201.99,1775.42 c -0.77,0.45 -9.03,4.99 -23.41,4.99 -4.3,0 -9.14,-0.41 -14.46,-1.44 l 2.64,-13.58 c 4.44,0.86 8.39,1.18 11.82,1.18 5.72,0 10.03,-0.9 12.82,-1.74 1.4,-0.42 2.42,-0.83 3.03,-1.1 l 0.63,-0.29 0.02,-0.01 6.91,11.99"
         style="fill:#87373d;fill-opacity:1;fill-rule:nonzero;stroke:none"
         id="path189" /><path
         d="m 4120.08,1757.45 c 12.09,4.69 21.71,10.88 30.1,16.17 8.39,5.33 15.53,9.63 22.39,11.38 10.21,2.69 26.29,4.57 40.34,7.15 7.06,1.31 13.63,2.79 19.17,4.91 2.77,1.07 5.31,2.29 7.6,4 2.25,1.69 4.44,4.05 5.47,7.38 0.91,3.02 1.41,5.95 1.41,8.81 0.07,5.6 -2.16,10.92 -5.82,14.57 -5.52,5.51 -12.98,7.91 -21.32,9.47 -8.38,1.49 -17.9,1.93 -27.88,1.99 -14.2,0.08 -32.9,1.9 -48.56,5.8 -7.82,1.93 -14.88,4.41 -20.11,7.22 -5.28,2.8 -8.43,5.93 -9.43,8.3 l -12.61,-5.68 c 3.07,-6.66 8.81,-11.18 15.5,-14.81 10.12,-5.39 23.08,-8.87 36.49,-11.21 13.41,-2.31 27.19,-3.38 38.63,-3.45 12.79,-0.05 24.41,-0.92 31.84,-3.29 3.72,-1.15 6.24,-2.64 7.55,-4.01 1.29,-1.41 1.81,-2.47 1.88,-4.9 0,-1.24 -0.22,-2.83 -0.82,-4.81 l 1.22,-0.37 -1.12,0.61 -0.1,-0.24 1.22,-0.37 -1.12,0.61 0.44,-0.24 -0.42,0.28 -0.02,-0.04 0.44,-0.24 -0.42,0.28 -0.34,-0.35 c -0.96,-0.92 -4.37,-2.59 -8.98,-3.85 -6.94,-1.99 -16.53,-3.57 -26.2,-5.08 -9.69,-1.52 -19.46,-2.98 -27.43,-5.05 -9.68,-2.56 -17.84,-7.77 -26.28,-13.07 -8.43,-5.33 -17.16,-10.88 -27.71,-14.96 l 5,-12.91"
         style="fill:#87373d;fill-opacity:1;fill-rule:nonzero;stroke:none"
         id="path191" /><path
         d="m 3524.66,2475.93 c 0.13,-2.75 0,-5.63 -0.41,-8.44 l -31.44,-458.94 -27.04,-394.43 -836.88,13.53 137.94,837.98 c -8.58,54.15 25.94,105.83 79.34,118.32 24.98,5.83 51.13,10.43 76.66,14.14 6.18,0.89 12.35,1.72 18.4,2.54 12.83,1.65 25.32,3.02 37.27,4.26 5.42,0.55 10.7,1.03 15.84,1.51 3.72,0.34 7.42,0.68 10.99,0.96 49.35,4.32 84.69,5.01 84.69,5.01 l 115.37,-7.97 c 22.92,0 45.09,-1.37 66.37,-3.7 1.57,-0.13 3.15,-0.34 4.73,-0.55 1.03,-0.14 1.99,-0.2 2.95,-0.34 2.81,-0.41 5.56,-0.76 8.3,-1.1 7.89,-1.1 15.58,-2.33 23.21,-3.64 7.06,-1.23 13.99,-2.54 20.79,-3.91 l 0.07,-0.07 c 5.76,-1.16 11.46,-2.4 17.08,-3.63 19.36,-4.4 37.48,-9.41 54.16,-14.56 8.02,-2.47 13.17,-3.98 16.68,-4.94 l 0.61,-0.13 c 3.02,-0.9 4.74,-1.31 5.97,-1.65 l 1.03,-0.28 c 1.37,-0.41 2.47,-0.82 5.08,-1.92 l 1.09,-0.48 c 18.88,-8.03 54.09,-29.79 91.15,-87.57"
         style="fill:#f9b031;fill-opacity:1;fill-rule:nonzero;stroke:none"
         id="path193" /><path
         d="m 3251.79,2500.22 24.01,98.7 0.69,1.23 c 1.03,-0.14 1.99,-0.2 2.95,-0.34 2.81,-0.41 5.56,-0.76 8.3,-1.1 7.89,-1.1 15.58,-2.33 23.21,-3.64 7.06,-1.23 13.99,-2.54 20.79,-3.91 l 0.07,-0.07 c 5.76,-1.16 11.46,-2.4 17.09,-3.63 113.58,-142.63 -97.11,-87.24 -97.11,-87.24"
         style="fill:#ffffff;fill-opacity:1;fill-rule:nonzero;stroke:none"
         id="path195" /><path
         d="m 3257.82,2508.67 c 0,0 -2.47,-4.95 -7.34,-12.22 -27.52,-41.18 -132.26,-158.27 -309.25,104.18 12.83,1.65 25.32,3.02 37.27,4.26 5.42,0.55 10.7,1.03 15.84,1.51 3.72,0.34 7.42,0.68 10.99,0.96 l 246.04,-96.15 6.45,-2.54"
         style="fill:#ffffff;fill-opacity:1;fill-rule:nonzero;stroke:none"
         id="path197" /><path
         d="m 2978.5,2604.89 c 5.42,0.55 10.7,1.03 15.84,1.51 54.98,5.14 95.68,5.97 95.68,5.97 l 115.37,-7.97 c 22.92,0 45.09,-1.37 66.37,-3.7 5.28,-0.82 10.56,-1.65 15.71,-2.54 0,0 63.14,-217.62 -308.97,6.73"
         style="fill:#eb6266;fill-opacity:1;fill-rule:nonzero;stroke:none"
         id="path199" /><path
         d="m 3238.25,2683.22 c -4.74,1 -9.51,2.47 -13.69,4.24 l -3.76,18.62 c 1.46,0.23 3.04,0.34 4.7,0.34 7.5,0 16.61,-2.2 24.02,-5.42 l -11.27,-17.78"
         style="fill:#bc3759;fill-opacity:1;fill-rule:nonzero;stroke:none"
         id="path201" /><path
         d="m 3250.52,2681.82 c -3.75,0 -8,0.51 -12.27,1.4 l 11.27,17.78 c 9.25,-4.03 15.86,-9.66 13.39,-14.67 -1.58,-3.19 -6.35,-4.51 -12.39,-4.51"
         style="fill:#542e3f;fill-opacity:1;fill-rule:nonzero;stroke:none"
         id="path203" /><path
         d="m 3639.96,2088.16 c 0,0 -32.67,-21.07 -71.51,-42.69 -24.92,-13.86 -52.5,-28 -75.64,-36.92 -19.9,-7.61 -36.58,-11.39 -45.43,-7.76 l -25.12,507.53 -2.95,59.71 0.42,-0.07 0.61,-0.13 c 1.16,-0.21 3.16,-0.69 5.97,-1.65 l 1.03,-0.28 c 1.51,-0.54 3.16,-1.16 5.08,-1.92 l 1.09,-0.48 c 15.66,-6.66 42.49,-22.71 72.35,-60.94 6.17,-7.9 12.42,-16.75 18.8,-26.63 3.15,-4.94 6.32,-10.09 9.47,-15.58 40.7,-69.74 82.22,-184.21 105.83,-372.19"
         style="fill:#f9b031;fill-opacity:1;fill-rule:nonzero;stroke:none"
         id="path205" /><path
         d="m 3451.44,2347.4 c 0,0 0.65,-1.87 1.82,-5.48 8.19,-25.28 41.09,-134.44 41.07,-248 0,-28.28 -2.04,-56.82 -6.96,-84.39 l 10.89,-1.95 c 5.06,28.35 7.13,57.53 7.13,86.34 -0.03,132.15 -43.41,256.8 -43.5,257.11 l -10.45,-3.63"
         style="fill:#eb9517;fill-opacity:1;fill-rule:nonzero;stroke:none"
         id="path207" /><path
         d="m 3474.91,2302.21 15.86,33.59 -10,4.73 -15.86,-33.6"
         style="fill:#eb9517;fill-opacity:1;fill-rule:nonzero;stroke:none"
         id="path209" /><path
         d="m 2774.86,2543.8 1.45,1.1 c 3.43,2.54 6.65,4.81 9.74,6.87 5.77,2.12 11.46,4.04 16.96,5.62 l 101.57,-33.63 c 10.09,-27.24 -31.09,-253.93 -60.47,-405.88 -2.54,-12.9 -4.94,-25.25 -7.27,-36.86 -4.18,-21.21 -7.9,-40.01 -10.98,-55.52 -0.34,-1.85 -0.69,-3.64 -1.04,-5.35 -5.01,-25.05 -8.09,-40.01 -8.09,-40.01 l -178.92,-31.92 -1.44,-0.27 c -2.61,23.06 -4.67,45.5 -6.19,67.25 -0.82,11.88 -1.5,23.48 -2.05,34.94 -1.92,41.72 -1.78,80.78 -0.2,117.36 5.15,114.55 25.53,203.77 47.9,269.31 l 99.03,106.99"
         style="fill:#eb6266;fill-opacity:1;fill-rule:nonzero;stroke:none"
         id="path211" /><path
         d="m 2814.76,2023.74 434.48,-196.85 -3.64,-92.59 c 0,0 -683.05,-14.79 -606.32,291.47 l 175.48,-2.03"
         style="fill:#eb6266;fill-opacity:1;fill-rule:nonzero;stroke:none"
         id="path213" /><path
         d="m 3381.01,1733.19 c 0,0 33.78,-4.92 63.45,-20.73 29.66,-15.8 34.21,17.44 7.66,31.67 0,0 16.07,-3.83 34.58,-15.7 18.49,-11.88 31.19,8.43 22.22,21.2 0,0 12.99,-6.78 21.4,5.05 8.41,11.82 -4,26.58 -8.95,30.99 0,0 28.14,18.95 -22.75,49.43 -50.89,30.48 -121.03,52.6 -216.78,19.23 -65.87,-22.95 -75.94,-70.99 -64.6,-98.07 20.6,-49.19 101.81,-67.09 163.77,-23.07"
         style="fill:#eb6266;fill-opacity:1;fill-rule:nonzero;stroke:none"
         id="path215" /><path
         d="m 3455.31,1750.27 c -45.34,23.63 -68.54,24.93 -69.65,24.97 l -0.6,-13.82 0.11,2.57 -0.15,-2.57 h 0.04 l 0.11,2.57 -0.15,-2.57 c 0.27,-0.02 21.44,-1.3 63.9,-23.43 l 6.39,12.27"
         style="fill:#87373d;fill-opacity:1;fill-rule:nonzero;stroke:none"
         id="path217" /><path
         d="m 3512.74,1755.39 c -68.16,45.28 -106.67,47.65 -107.96,47.7 l -0.7,-13.82 0.03,0.63 -0.04,-0.63 h 0.01 l 0.03,0.63 -0.04,-0.63 c 1,-0.08 36.71,-2.72 101.02,-45.41 l 7.65,11.53"
         style="fill:#87373d;fill-opacity:1;fill-rule:nonzero;stroke:none"
         id="path219" /><path
         d="m 3525.79,1790.99 c -43.31,35.9 -104.75,46.67 -105.26,46.86 l -2.45,-13.61 0.59,-0.12 c 6.32,-1.15 61.46,-12.93 98.27,-43.76 l 8.85,10.63"
         style="fill:#87373d;fill-opacity:1;fill-rule:nonzero;stroke:none"
         id="path221" /><path
         d="m 2848.98,2015.83 -52.18,23.79 -5.74,-12.59 52.18,-23.78"
         style="fill:#87373d;fill-opacity:1;fill-rule:nonzero;stroke:none"
         id="path223" /><path
         d="m 2839.69,2582.2 c 0,0 -243.12,-66.37 -299.94,-533.88 0,0 217.84,-20.92 325.18,14.02 l 76.32,469.8 -101.56,50.06"
         style="fill:#f9b031;fill-opacity:1;fill-rule:nonzero;stroke:none"
         id="path225" /><path
         d="m 2832.83,2048.45 37.34,9.52 19.36,278.05 -11.04,0.77 -18.8,-270.07 -29.59,-7.55 2.73,-10.72"
         style="fill:#eb9517;fill-opacity:1;fill-rule:nonzero;stroke:none"
         id="path227" /><path
         d="m 2884.17,2276.32 29.43,32.1 -8.16,7.48 -29.42,-32.1"
         style="fill:#eb9517;fill-opacity:1;fill-rule:nonzero;stroke:none"
         id="path229" /><path
         d="m 3040.97,2574.69 c 144.94,-38.33 229.55,-71.59 209.2,-14.48 l -4.46,22.13 -1.13,5.74 -12.43,61.81 -11.99,59.36 -5.86,28.8 -154.58,13.66 -8.27,-77.85 -3.41,-32.07 -7.07,-67.1"
         style="fill:#eb6266;fill-opacity:1;fill-rule:nonzero;stroke:none"
         id="path231" /><path
         d="m 3242.25,2582.2 c -41.56,0 -175.36,52.17 -194.21,59.59 l 10.34,96.4 173.77,-88.3 12.43,-61.81 1.13,-5.74 c -1.07,-0.1 -2.22,-0.14 -3.46,-0.14"
         style="fill:#b74d53;fill-opacity:1;fill-rule:nonzero;stroke:none"
         id="path233" /><path
         d="m 3450.48,2915.48 c -0.4,-5.99 -0.8,-11.85 -1.34,-17.98 -0.26,-3.73 -0.66,-7.46 -1.06,-11.19 -2.53,-24.11 -6.26,-46.09 -10.92,-65.8 -5.74,-24.38 -13.06,-45.55 -21.45,-64.07 -6.79,-14.91 -14.39,-28.1 -22.64,-39.69 -52.75,-74.99 -129.88,-83.12 -181.03,-78.32 -59,5.46 -148.92,34.36 -178.22,153.84 -8.93,35.7 -12.25,79.65 -7.73,133.47 0.4,5.6 0.94,11.06 1.6,16.52 0.53,5.99 1.33,11.86 2.13,17.58 18.12,131.34 78.2,230.84 232.57,216.45 156.25,-14.66 195.94,-126.28 188.09,-260.81"
         style="fill:#eb6266;fill-opacity:1;fill-rule:nonzero;stroke:none"
         id="path235" /><path
         d="m 3282.42,2770.51 76.2,-7.44 1.82,13.71 c -8.82,1.5 -15.45,4.75 -20.78,9.18 -7.95,6.62 -13.09,16.26 -16.19,27.11 -3.1,10.82 -4.09,22.67 -4.08,32.92 0,7.65 0.54,14.42 1.07,19.23 0.27,2.4 0.54,4.32 0.74,5.62 l 0.23,1.47 0.08,0.44 -13.61,2.52 c -0.04,-0.27 -2.34,-12.69 -2.35,-29.28 0.03,-14.82 1.77,-33 9.16,-49.09 3.71,-8.04 8.9,-15.57 16.09,-21.57 7.17,-6 16.32,-10.36 27.35,-12.2 l 1.15,6.83 0.67,6.88 -76.2,7.44 -1.35,-13.77"
         style="fill:#87373d;fill-opacity:1;fill-rule:nonzero;stroke:none"
         id="path237" /><path
         d="m 3403.81,2867.33 c -1.45,-14.21 -10.54,-24.92 -20.31,-23.93 -9.76,1 -16.51,13.33 -15.05,27.54 1.44,14.21 10.53,24.91 20.3,23.92 9.76,-1 16.51,-13.32 15.06,-27.53"
         style="fill:#2a2d4b;fill-opacity:1;fill-rule:nonzero;stroke:none"
         id="path239" /><path
         d="m 3238.38,2884.2 c -1.46,-14.21 -10.55,-24.91 -20.31,-23.92 -9.77,1 -16.52,13.32 -15.06,27.53 1.44,14.21 10.53,24.92 20.3,23.93 9.78,-1 16.51,-13.33 15.07,-27.54"
         style="fill:#2a2d4b;fill-opacity:1;fill-rule:nonzero;stroke:none"
         id="path241" /><path
         d="m 3370.04,2948.66 c -12.47,-16.92 46.9,-37.44 56.65,-20.86 9.73,16.58 -43.74,38.37 -56.65,20.86"
         style="fill:#2a2d4b;fill-opacity:1;fill-rule:nonzero;stroke:none"
         id="path243" /><path
         d="m 3238.73,2969.75 c 8.99,-19.01 -53.23,-27.72 -59.6,-9.57 -6.37,18.14 50.31,29.23 59.6,9.57"
         style="fill:#2a2d4b;fill-opacity:1;fill-rule:nonzero;stroke:none"
         id="path245" /><path
         d="m 3213.61,2766.05 c 0.31,-10.44 3.48,-20.46 8.92,-29.04 7.65,-12.08 19.82,-21.32 34.83,-25.01 13.63,-3.35 27.26,-1.54 38.94,4.13 10.35,5.05 19.11,13.18 24.9,23.46 l -107.59,26.46"
         style="fill:#8f1f45;fill-opacity:1;fill-rule:nonzero;stroke:none"
         id="path247" /><path
         d="m 3222.53,2737.01 c 7.65,-12.08 19.82,-21.32 34.83,-25.01 13.63,-3.35 27.26,-1.54 38.94,4.13 -4.07,12.2 -16.84,23.1 -33.73,27.25 -15.46,3.81 -30.51,1 -40.04,-6.37"
         style="fill:#e02d62;fill-opacity:1;fill-rule:nonzero;stroke:none"
         id="path249" /><path
         d="m 3475.38,2942.69 c -1.5,-8.86 -3.36,-17.92 -5.56,-27.32 -5.14,-22.3 -12.15,-46.05 -21.14,-71.51 l -0.61,-1.58 c -28.07,45.3 -7.62,152.29 -7.62,152.29 -86.07,8.65 -142,76.39 -142,76.39 -61.08,-29.37 -153.26,-19.35 -153.26,-19.35 -17.91,-91.97 -57.44,-136.72 -77.48,-154.22 -4.8,-4.19 -12.21,-0.68 -12.21,5.63 l -0.21,30.2 -37.84,21.07 20.68,82.34 24.88,77.54 109.92,70.24 170.13,-9.61 57.93,-52.09 64.37,-76.59 10.02,-103.43"
         style="fill:#2a2d4b;fill-opacity:1;fill-rule:nonzero;stroke:none"
         id="path251" /><path
         d="m 3080.67,2926.21 c -3.48,5.19 -8.11,9.82 -13.87,13.79 -16.57,11.37 -33.85,16.4 -49.35,14.29 -4.14,-0.57 -8.2,-1.62 -12.01,-3.33 -6.74,-2.76 -12.99,-7.14 -18.43,-13.23 -4.14,-4.54 -7.79,-10.06 -10.96,-16.47 -8.44,-17.21 -10.55,-34.91 -7.47,-51.63 3.82,-20.12 15.42,-38.79 33.28,-53.48 5.28,-4.39 11.21,-7.72 17.29,-9.91 19.73,-7.3 41.88,-3.73 54.22,11.45 1.38,0.89 2.68,2.11 3.57,3.65 0.73,0.97 1.3,2.19 1.7,3.49 l 0.73,2.35 0.09,0.17 c 1.62,5.19 3.32,10.79 4.87,16.64 3.49,12.9 6.25,26.86 6.49,40.42 0.57,15.17 -2.03,29.86 -10.15,41.8"
         style="fill:#eb6266;fill-opacity:1;fill-rule:nonzero;stroke:none"
         id="path253" /><path
         d="m 3055.91,2834.12 c 0.08,0.35 5.87,18.94 5.9,38.84 -0.03,10.28 -1.48,21.11 -7.08,30.19 -2.8,4.52 -6.76,8.52 -11.89,11.25 -5.12,2.74 -11.27,4.17 -18.27,4.16 -7.07,-0.01 -15.06,-1.42 -24.25,-4.38 l 4.26,-13.17 c 8.16,2.64 14.79,3.72 19.99,3.71 5.18,0 8.9,-1.01 11.75,-2.53 4.22,-2.28 6.96,-5.85 8.92,-10.99 1.92,-5.1 2.75,-11.59 2.74,-18.24 0,-8.59 -1.32,-17.41 -2.66,-23.99 -0.67,-3.29 -1.34,-6.03 -1.84,-7.93 -0.25,-0.94 -0.45,-1.68 -0.59,-2.17 l -0.21,-0.69 13.23,-4.06"
         style="fill:#87373d;fill-opacity:1;fill-rule:nonzero;stroke:none"
         id="path255" /><path
         d="m 3057.48,2871.91 -32.97,14.96 -5.72,-12.6 32.97,-14.96"
         style="fill:#87373d;fill-opacity:1;fill-rule:nonzero;stroke:none"
         id="path257" /><path
         d="m 3152.92,3088.29 -21.69,-5.38 c -2.46,-0.61 -3.85,-3.2 -3,-5.58 l 19.06,-53.38 c 0.69,-1.93 2.66,-3.1 4.68,-2.78 l 6.27,0.98 c 2.18,0.34 3.73,2.28 3.6,4.48 l -3.63,57.78 c -0.16,2.66 -2.7,4.52 -5.29,3.88"
         style="fill:#ffffff;fill-opacity:1;fill-rule:nonzero;stroke:none"
         id="path259" /><path
         d="m 3467.04,3021.41 -19.4,11.1 c -2.2,1.26 -4.99,0.35 -6.03,-1.96 l -23.11,-51.76 c -0.83,-1.87 -0.22,-4.07 1.46,-5.25 l 5.21,-3.61 c 1.81,-1.26 4.28,-0.94 5.7,0.75 l 37.31,44.27 c 1.72,2.04 1.16,5.13 -1.14,6.46"
         style="fill:#ffffff;fill-opacity:1;fill-rule:nonzero;stroke:none"
         id="path261" /><path
         d="m 3215.21,2340.7 c -18.01,19.22 -9.27,56.99 -2.19,78.99 7.88,24.52 20.68,46.51 36.56,66.58 3.98,-25.61 8.31,-51.2 11.63,-76.89 1.56,-12.13 3.23,-24.66 1.73,-36.91 -2.05,-16.63 -17.79,-63.7 -47.73,-31.77 z m 44.1,154.31 c -0.56,3.73 -3.92,5.03 -6.78,4.42 -2.14,1.5 -5.18,1.74 -7.33,-0.84 -25.69,-30.79 -45.96,-68.89 -50.21,-109.35 -2.53,-24.12 2.14,-58.25 27.95,-68.81 23.5,-9.62 41.25,14.83 47.55,34.65 13.62,42.8 -4.69,97.27 -11.18,139.93"
         style="fill:#ffffff;fill-opacity:1;fill-rule:nonzero;stroke:none"
         id="path263" /><path
         d="m 3298.65,2379.32 c -5.96,10.8 -9.06,23.05 -12.12,34.9 -6.46,25.08 -11.96,50.45 -17.78,75.7 22.2,-12.72 42.25,-28.38 58.7,-48.22 14.74,-17.78 36.89,-49.6 27.31,-74.14 -15.91,-40.78 -48.03,-2.92 -56.11,11.76 z m -0.55,-18.97 c 13.22,-16.04 38.78,-32.15 57.03,-14.48 20.03,19.39 11.69,52.81 0.37,74.26 -18.99,35.98 -51.98,63.82 -87.27,82.85 -2.96,1.59 -5.68,0.25 -7.11,-1.94 -2.88,-0.5 -5.52,-2.95 -4.66,-6.62 9.84,-42.02 13.09,-99.39 41.64,-134.07"
         style="fill:#ffffff;fill-opacity:1;fill-rule:nonzero;stroke:none"
         id="path265" /><path
         d="m 3281.51,2423.07 c -0.45,7.02 -11.42,7.07 -10.97,0 5.96,-92.98 4.38,-186.01 -4.74,-278.73 -0.69,-7.04 10.29,-6.99 10.98,0 9.12,92.72 10.7,185.75 4.73,278.73"
         style="fill:#ffffff;fill-opacity:1;fill-rule:nonzero;stroke:none"
         id="path267" /><path
         d="m 3268.24,2412.67 c -1.97,6.74 8.34,10.53 10.31,3.74 26.06,-89.47 59.21,-176.4 99.35,-260.47 3.05,-6.38 -7.3,-10.07 -10.32,-3.74 -40.14,84.08 -73.29,171 -99.34,260.47"
         style="fill:#ffffff;fill-opacity:1;fill-rule:nonzero;stroke:none"
         id="path269" /><path
         d="m 2496.49,1725.23 h -37.29 v 79.92 h 37.29 v -79.92"
         style="fill:#ffffff;fill-opacity:1;fill-rule:nonzero;stroke:none"
         id="path271" /><path
         d="m 2496.49,1582.19 h -37.29 v 79.91 h 37.29 v -79.91"
         style="fill:#ffffff;fill-opacity:1;fill-rule:nonzero;stroke:none"
         id="path273" /><path
         d="m 2594.85,1713.53 v -37.28 h -79.9 v 37.28 h 79.9"
         style="fill:#ffffff;fill-opacity:1;fill-rule:nonzero;stroke:none"
         id="path275" /><path
         d="m 2443.62,1713.53 v -37.28 h -79.9 v 37.28 h 79.9"
         style="fill:#ffffff;fill-opacity:1;fill-rule:nonzero;stroke:none"
         id="path277" /><path
         d="m 4682.76,1413.5 c 0,-134.32 -1013.18,-243.22 -2263.01,-243.22 -1249.84,0 -2263.027,108.9 -2263.027,243.22 0,134.33 1013.187,243.22 2263.027,243.22 1249.83,0 2263.01,-108.89 2263.01,-243.22"
         style="fill:#f25694;fill-opacity:1;fill-rule:nonzero;stroke:none"
         id="path279" /><path
         d="m 462.137,1472.02 v -18.33 c 0,-23.11 18.078,-42.18 41.152,-43.42 l 932.311,-49.86 c 25.08,-1.34 50.15,2.61 73.6,11.58 l 329.67,126.1 c 16.83,6.44 27.95,22.59 27.95,40.61 v 48.5 L 462.137,1472.02"
         style="fill:#dbdedb;fill-opacity:1;fill-rule:nonzero;stroke:none"
         id="path281" /><path
         d="M 1473.63,1437.63 1866.82,1587.2 743.504,1620.78 462.137,1472.02 1473.63,1437.63"
         style="fill:#c3c4c2;fill-opacity:1;fill-rule:nonzero;stroke:none"
         id="path283" /><path
         d="m 1672.49,1534 -55.65,-20.76 -9.13,-3.46 -55.71,-20.76 -9.13,-3.39 h -0.08 l -73.01,-27.3 -14.58,29.96 -1.18,2.42 -0.66,1.33 -1.03,2.14 -23.26,47.69 139.71,-4.49 h 0.07 l 10.08,-0.37 h 0.08 l 93.48,-3.01"
         style="fill:#363854;fill-opacity:1;fill-rule:nonzero;stroke:none"
         id="path285" /><path
         d="m 1616.84,1513.24 -9.13,-3.46 -94.43,2.94 -10.16,0.3 -48.51,1.47 0.15,3.68 57.49,-1.76 10.23,-0.3 94.36,-2.87"
         style="fill:#c3c4c2;fill-opacity:1;fill-rule:nonzero;stroke:none"
         id="path287" /><path
         d="m 1552,1489.02 -9.13,-3.39 h -0.08 l -87.59,2.66 -1.18,2.42 -1.84,-0.65 -0.73,2.06 1.91,-0.08 3.83,-0.15 94.81,-2.87"
         style="fill:#c3c4c2;fill-opacity:1;fill-rule:nonzero;stroke:none"
         id="path289" /><path
         d="m 1578.93,1537.01 -56.38,-20.9 h -0.07 l -9.13,-3.39 h -0.07 l -56.09,-20.83 -3.17,-1.18 -1.84,-0.65 -0.73,2.06 -0.59,1.54 1.47,0.52 50.79,18.84 9.13,3.39 56.53,20.97 h 0.07 l 10.08,-0.37"
         style="fill:#c3c4c2;fill-opacity:1;fill-rule:nonzero;stroke:none"
         id="path291" /><path
         d="m 1473.45,1432.25 -1011.493,34.39 -85.902,612.72 c -9.219,65.76 35.906,117.27 100.789,115.06 l 776.536,-26.39 c 64.88,-2.21 124.95,-57.3 134.17,-123.06 l 85.9,-612.72"
         style="fill:#dbdedb;fill-opacity:1;fill-rule:nonzero;stroke:none"
         id="path293" /><path
         d="m 959.594,1740.61 c 0,-40.18 -32.574,-72.76 -72.758,-72.76 -40.18,0 -72.762,32.58 -72.762,72.76 0,40.19 32.582,72.77 72.762,72.77 40.184,0 72.758,-32.58 72.758,-72.77"
         style="fill:#f9b031;fill-opacity:1;fill-rule:nonzero;stroke:none"
         id="path295" /><path
         d="M 4635.91,1622.92 H 3447.78 l 98.12,799.07 h 1188.12 l -98.11,-799.07"
         style="fill:#46b9d3;fill-opacity:1;fill-rule:nonzero;stroke:none"
         id="path297" /><path
         d="M 4685.77,1622.92 H 3497.65 l 98.11,799.07 h 1188.13 l -98.12,-799.07"
         style="fill:#398ac0;fill-opacity:1;fill-rule:nonzero;stroke:none"
         id="path299" /><path
         d="m 3948.57,1435.97 244.04,65.53 25.86,-73.64 z"
         style="fill:#398ac0;fill-opacity:1;fill-rule:nonzero;stroke:none"
         id="path301" /><path
         d="m 4023.28,1939.2 h 192.81 l 124.55,-412.75 c 19.63,-65.04 -29.07,-130.61 -97.02,-130.61 h -70.33 l -150.01,543.36"
         style="fill:#46b9d3;fill-opacity:1;fill-rule:nonzero;stroke:none"
         id="path303" /><path
         d="m 4057.6,1939.2 h 192.81 l 133.47,-442.29 c 15.18,-50.34 -22.5,-101.07 -75.08,-101.07 H 4207.61 L 4057.6,1939.2"
         style="fill:#2c6995;fill-opacity:1;fill-rule:nonzero;stroke:none"
         id="path305" /><path
         d="m 3948.57,1436.16 h 269.9 v -40.32 h -269.9 v 40.32"
         style="fill:#2c6995;fill-opacity:1;fill-rule:nonzero;stroke:none"
         id="path307" /><path
         d="m 4224.39,2108.95 c 0,-46.19 -37.44,-83.63 -83.63,-83.63 -46.18,0 -83.62,37.44 -83.62,83.63 0,46.19 37.44,83.63 83.62,83.63 46.19,0 83.63,-37.44 83.63,-83.63"
         style="fill:#46b9d3;fill-opacity:1;fill-rule:nonzero;stroke:none"
         id="path309" /><path
         d="m 3163.5,1530.24 h -110.9 v 44.11 h 110.9 v -44.11"
         style="fill:#46b9d3;fill-opacity:1;fill-rule:nonzero;stroke:none"
         id="path311" /><path
         d="m 3314.94,1530.24 h -110.91 v 44.11 h 110.91 v -44.11"
         style="fill:#46b9d3;fill-opacity:1;fill-rule:nonzero;stroke:none"
         id="path313" /><path
         d="m 3466.38,1530.24 h -110.91 v 44.11 h 110.91 v -44.11"
         style="fill:#46b9d3;fill-opacity:1;fill-rule:nonzero;stroke:none"
         id="path315" /><path
         d="m 3617.8,1530.24 h -110.9 v 44.11 h 110.9 v -44.11"
         style="fill:#46b9d3;fill-opacity:1;fill-rule:nonzero;stroke:none"
         id="path317" /><path
         d="m 3769.24,1530.24 h -110.9 v 44.11 h 110.9 v -44.11"
         style="fill:#46b9d3;fill-opacity:1;fill-rule:nonzero;stroke:none"
         id="path319" /><path
         d="m 3920.67,1530.24 h -110.91 v 44.11 h 110.91 v -44.11"
         style="fill:#46b9d3;fill-opacity:1;fill-rule:nonzero;stroke:none"
         id="path321" /><path
         d="M 4072.11,1530.24 H 3961.2 v 44.11 h 110.91 v -44.11"
         style="fill:#46b9d3;fill-opacity:1;fill-rule:nonzero;stroke:none"
         id="path323" /><path
         d="M 4094.2,1485.1 H 3028.5 v 60.58 h 1065.7 v -60.58"
         style="fill:#2c6995;fill-opacity:1;fill-rule:nonzero;stroke:none"
         id="path325" /><path
         d="m 2965.92,1485.59 h -383.71 c -9.47,0 -15.8,9.6 -12.16,18.33 25.85,61.79 131.26,245.42 404.67,4.68 9.08,-8 3.3,-23.01 -8.8,-23.01"
         style="fill:#398ac0;fill-opacity:1;fill-rule:nonzero;stroke:none"
         id="path327" /><path
         d="m 2980.41,1516.83 -135.16,93.54 -11.38,-16.44 135.15,-93.55"
         style="fill:#46b9d3;fill-opacity:1;fill-rule:nonzero;stroke:none"
         id="path329" /><path
         d="m 2783.63,4220.09 h -37.29 V 4300 h 37.29 v -79.91"
         style="fill:#ffffff;fill-opacity:1;fill-rule:nonzero;stroke:none"
         id="path331" /><path
         d="m 2783.63,4077.05 h -37.29 v 79.9 h 37.29 v -79.9"
         style="fill:#ffffff;fill-opacity:1;fill-rule:nonzero;stroke:none"
         id="path333" /><path
         d="m 2881.99,4208.39 v -37.29 h -79.91 v 37.29 h 79.91"
         style="fill:#ffffff;fill-opacity:1;fill-rule:nonzero;stroke:none"
         id="path335" /><path
         d="m 2730.76,4208.39 v -37.29 h -79.9 v 37.29 h 79.9"
         style="fill:#ffffff;fill-opacity:1;fill-rule:nonzero;stroke:none"
         id="path337" /><path
         d="m 1373.35,4351.44 h -37.29 v 79.9 h 37.29 v -79.9"
         style="fill:#ffffff;fill-opacity:1;fill-rule:nonzero;stroke:none"
         id="path339" /><path
         d="m 1373.35,4208.39 h -37.29 v 79.91 h 37.29 v -79.91"
         style="fill:#ffffff;fill-opacity:1;fill-rule:nonzero;stroke:none"
         id="path341" /><path
         d="m 1471.72,4339.74 v -37.29 h -79.91 v 37.29 h 79.91"
         style="fill:#ffffff;fill-opacity:1;fill-rule:nonzero;stroke:none"
         id="path343" /><path
         d="m 1320.49,4339.74 v -37.29 h -79.91 v 37.29 h 79.91"
         style="fill:#ffffff;fill-opacity:1;fill-rule:nonzero;stroke:none"
         id="path345" /><path
         d="m 3878.92,2974.8 h -37.29 v 79.91 h 37.29 v -79.91"
         style="fill:#ffffff;fill-opacity:1;fill-rule:nonzero;stroke:none"
         id="path347" /><path
         d="m 3878.92,2831.75 h -37.29 v 79.91 h 37.29 v -79.91"
         style="fill:#ffffff;fill-opacity:1;fill-rule:nonzero;stroke:none"
         id="path349" /><path
         d="m 3977.28,2963.1 v -37.29 h -79.91 v 37.29 h 79.91"
         style="fill:#ffffff;fill-opacity:1;fill-rule:nonzero;stroke:none"
         id="path351" /><path
         d="m 3826.05,2963.1 v -37.29 h -79.9 v 37.29 h 79.9"
         style="fill:#ffffff;fill-opacity:1;fill-rule:nonzero;stroke:none"
         id="path353" /><path
         d="m 2801.32,703.301 h -37.3 v 79.91 h 37.3 v -79.91"
         style="fill:#ffffff;fill-opacity:1;fill-rule:nonzero;stroke:none"
         id="path355" /><path
         d="m 2801.32,560.25 h -37.3 v 79.91 h 37.3 v -79.91"
         style="fill:#ffffff;fill-opacity:1;fill-rule:nonzero;stroke:none"
         id="path357" /><path
         d="M 2899.68,691.602 V 654.32 h -79.91 v 37.282 h 79.91"
         style="fill:#ffffff;fill-opacity:1;fill-rule:nonzero;stroke:none"
         id="path359" /><path
         d="M 2748.45,691.602 V 654.32 h -79.91 v 37.282 h 79.91"
         style="fill:#ffffff;fill-opacity:1;fill-rule:nonzero;stroke:none"
         id="path361" /><path
         d="m 4646.42,1390.03 h -37.28 v 79.9 h 37.28 v -79.9"
         style="fill:#ffffff;fill-opacity:1;fill-rule:nonzero;stroke:none"
         id="path363" /><path
         d="m 4646.42,1246.98 h -37.28 v 79.9 h 37.28 v -79.9"
         style="fill:#ffffff;fill-opacity:1;fill-rule:nonzero;stroke:none"
         id="path365" /><path
         d="m 4744.78,1378.33 v -37.3 h -79.9 v 37.3 h 79.9"
         style="fill:#ffffff;fill-opacity:1;fill-rule:nonzero;stroke:none"
         id="path367" /><path
         d="m 4593.56,1378.33 v -37.3 h -79.91 v 37.3 h 79.91"
         style="fill:#ffffff;fill-opacity:1;fill-rule:nonzero;stroke:none"
         id="path369" /><path
         d="m 689.953,1067.06 h -37.289 v 79.9 h 37.289 v -79.9"
         style="fill:#ffffff;fill-opacity:1;fill-rule:nonzero;stroke:none"
         id="path371" /><path
         d="m 689.953,924.012 h -37.289 v 79.908 h 37.289 v -79.908"
         style="fill:#ffffff;fill-opacity:1;fill-rule:nonzero;stroke:none"
         id="path373" /><path
         d="m 788.32,1055.36 v -37.28 h -79.91 v 37.28 h 79.91"
         style="fill:#ffffff;fill-opacity:1;fill-rule:nonzero;stroke:none"
         id="path375" /><path
         d="m 637.09,1055.36 v -37.28 h -79.902 v 37.28 h 79.902"
         style="fill:#ffffff;fill-opacity:1;fill-rule:nonzero;stroke:none"
         id="path377" /><path
         d="m 1239.27,2653.22 h -37.29 v 79.9 h 37.29 v -79.9"
         style="fill:#ffffff;fill-opacity:1;fill-rule:nonzero;stroke:none"
         id="path379" /><path
         d="m 1239.27,2510.18 h -37.29 v 79.9 h 37.29 v -79.9"
         style="fill:#ffffff;fill-opacity:1;fill-rule:nonzero;stroke:none"
         id="path381" /><path
         d="m 1337.63,2641.52 v -37.29 h -79.91 v 37.29 h 79.91"
         style="fill:#ffffff;fill-opacity:1;fill-rule:nonzero;stroke:none"
         id="path383" /><path
         d="m 1186.4,2641.52 v -37.29 h -79.91 v 37.29 h 79.91"
         style="fill:#ffffff;fill-opacity:1;fill-rule:nonzero;stroke:none"
         id="path385" /><path
         d="M 4412.59,1252.7 V 675.23 c 0,-24.57 -19.91,-44.48 -44.48,-44.48 h -941.47 c -24.57,0 -44.47,19.91 -44.47,44.48 v 577.47 c 0,24.57 19.9,44.48 44.47,44.48 h 941.47 c 24.57,0 44.48,-19.91 44.48,-44.48"
         style="fill:#dbdedb;fill-opacity:1;fill-rule:nonzero;stroke:none"
         id="path387" /><path
         d="m 4412.59,1252.7 v -46.02 H 3382.17 v 46.02 c 0,24.57 19.9,44.48 44.47,44.48 h 941.47 c 24.57,0 44.48,-19.91 44.48,-44.48"
         style="fill:#2c6995;fill-opacity:1;fill-rule:nonzero;stroke:none"
         id="path389" /><path
         d="m 3585.72,1251.93 c 0,-14.01 -11.35,-25.36 -25.36,-25.36 -14,0 -25.36,11.35 -25.36,25.36 0,14.01 11.36,25.36 25.36,25.36 14.01,0 25.36,-11.35 25.36,-25.36"
         style="fill:#3ab983;fill-opacity:1;fill-rule:nonzero;stroke:none"
         id="path391" /><path
         d="m 3519.58,1251.93 c 0,-14.01 -11.36,-25.36 -25.36,-25.36 -14.01,0 -25.36,11.35 -25.36,25.36 0,14.01 11.35,25.36 25.36,25.36 14,0 25.36,-11.35 25.36,-25.36"
         style="fill:#f9b031;fill-opacity:1;fill-rule:nonzero;stroke:none"
         id="path393" /><path
         d="m 3451.74,1251.93 c 0,-14.01 -11.35,-25.36 -25.36,-25.36 -14.01,0 -25.37,11.35 -25.37,25.36 0,14.01 11.36,25.36 25.37,25.36 14.01,0 25.36,-11.35 25.36,-25.36"
         style="fill:#f03372;fill-opacity:1;fill-rule:nonzero;stroke:none"
         id="path395" /><g
         id="g397"
         transform="scale(10)"><text
           transform="matrix(1,0,0,-1,351.958,80.2242)"
           style="font-variant:normal;font-weight:800;font-size:37.0946px;font-family:Montserrat;-inkscape-font-specification:Montserrat-ExtraBold;writing-mode:lr-tb;fill:#398ac0;fill-opacity:1;fill-rule:nonzero;stroke:none"
           id="text401"><tspan
             x="0 27.079111 49.965816"
             y="0"
             sodipodi:role="line"
             id="tspan399">C++</tspan></text></g><path
         d="m 4078.1,4394.98 v -447.75 c 0,-19.05 -15.43,-34.49 -34.49,-34.49 h -729.98 c -19.05,0 -34.49,15.44 -34.49,34.49 v 447.75 c 0,19.05 15.44,34.49 34.49,34.49 h 729.98 c 19.06,0 34.49,-15.44 34.49,-34.49"
         style="fill:#dbdedb;fill-opacity:1;fill-rule:nonzero;stroke:none"
         id="path403" /><path
         d="m 4078.1,4394.98 v -35.68 h -798.96 v 35.68 c 0,19.05 15.44,34.49 34.49,34.49 h 729.98 c 19.06,0 34.49,-15.44 34.49,-34.49"
         style="fill:#2c6995;fill-opacity:1;fill-rule:nonzero;stroke:none"
         id="path405" /><path
         d="m 3436.97,4394.38 c 0,-10.86 -8.8,-19.67 -19.66,-19.67 -10.86,0 -19.66,8.81 -19.66,19.67 0,10.86 8.8,19.67 19.66,19.67 10.86,0 19.66,-8.81 19.66,-19.67"
         style="fill:#3ab983;fill-opacity:1;fill-rule:nonzero;stroke:none"
         id="path407" /><path
         d="m 3385.69,4394.38 c 0,-10.86 -8.81,-19.67 -19.67,-19.67 -10.85,0 -19.66,8.81 -19.66,19.67 0,10.86 8.81,19.67 19.66,19.67 10.86,0 19.67,-8.81 19.67,-19.67"
         style="fill:#f9b031;fill-opacity:1;fill-rule:nonzero;stroke:none"
         id="path409" /><path
         d="m 3333.09,4394.38 c 0,-10.86 -8.8,-19.67 -19.66,-19.67 -10.87,0 -19.67,8.81 -19.67,19.67 0,10.86 8.8,19.67 19.67,19.67 10.86,0 19.66,-8.81 19.66,-19.67"
         style="fill:#f03372;fill-opacity:1;fill-rule:nonzero;stroke:none"
         id="path411" /><g
         id="g413"
         transform="scale(10)"><text
           transform="matrix(1,0,0,-1,334.546,407.346)"
           style="font-variant:normal;font-weight:800;font-size:22.1274px;font-family:Montserrat;-inkscape-font-specification:Montserrat-ExtraBold;writing-mode:lr-tb;fill:#f9b031;fill-opacity:1;fill-rule:nonzero;stroke:none"
           id="text417"><tspan
             x="0 17.834684 31.885584 52.995125"
             y="0"
             sodipodi:role="line"
             id="tspan415">HTML</tspan></text></g><path
         d="M 999.492,2686.38 H 536.637 c -36.739,0 -66.52,29.78 -66.52,66.52 v 462.86 c 0,36.73 29.785,66.51 66.52,66.51 h 462.855 c 36.738,0 66.518,-29.78 66.518,-66.51 V 2752.9 c 0,-36.74 -29.78,-66.52 -66.518,-66.52"
         style="fill:#f9b031;fill-opacity:1;fill-rule:nonzero;stroke:none"
         id="path419" /><path
         d="m 692.801,3007.05 -82.934,-28.47 82.934,-28.46 v -46.53 l -139.582,50.63 v 48.72 l 139.582,50.63 v -46.52"
         style="fill:#ffffff;fill-opacity:1;fill-rule:nonzero;stroke:none"
         id="path421" /><path
         d="m 787.227,3113.24 h 54.734 l -90.316,-257.82 h -54.739 l 90.321,257.82"
         style="fill:#ffffff;fill-opacity:1;fill-rule:nonzero;stroke:none"
         id="path423" /><path
         d="m 982.914,3002.94 v -48.72 l -139.59,-50.63 v 46.53 l 82.934,28.46 -82.934,28.47 v 46.52 l 139.59,-50.63"
         style="fill:#ffffff;fill-opacity:1;fill-rule:nonzero;stroke:none"
         id="path425" /><path
         d="m 4527,2995.72 h -382.72 c -30.38,0 -55,24.62 -55,55 v 382.73 c 0,30.37 24.62,55 55,55 H 4527 c 30.37,0 55,-24.63 55,-55 v -382.73 c 0,-30.38 -24.63,-55 -55,-55"
         style="fill:#398ac0;fill-opacity:1;fill-rule:nonzero;stroke:none"
         id="path427" /><path
         d="m 4383.82,3093.56 c 0.23,-26.39 -20.98,-47.97 -47.37,-48.2 -26.38,-0.23 -47.96,20.97 -48.2,47.36 -0.23,26.39 20.98,47.97 47.36,48.21 26.39,0.23 47.97,-20.98 48.21,-47.37"
         style="fill:#ffffff;fill-opacity:1;fill-rule:nonzero;stroke:none"
         id="path429" /><path
         d="m 4472.89,3319.42 c -81.21,61.22 -194.15,60.23 -274.28,-2.41 -12.56,-9.72 -30.14,-11.5 -40.55,-1.76 -10.39,9.69 -7.13,29.93 8.87,42.41 98.43,76.94 237.16,78.16 336.93,2.96 16.22,-12.2 19.83,-32.37 9.62,-42.24 -10.24,-9.92 -27.87,-8.47 -40.59,1.04"
         style="fill:#ffffff;fill-opacity:1;fill-rule:nonzero;stroke:none"
         id="path431" /><path
         d="m 4427.3,3243.35 c -54.91,37.04 -127.52,36.4 -181.77,-1.6 -12.86,-8.86 -30.43,-10.72 -40.94,-1.07 -10.49,9.55 -6.41,30.85 11.42,43.31 71.66,50.19 167.54,51.03 240.06,2.11 18.05,-12.15 22.51,-33.36 12.19,-43.1 -10.33,-9.83 -27.95,-8.28 -40.96,0.35"
         style="fill:#ffffff;fill-opacity:1;fill-rule:nonzero;stroke:none"
         id="path433" /><path
         d="m 4377.91,3166.52 c -26.75,13.37 -58.53,13.08 -85.03,-0.75 -13.48,-6.71 -31.08,-8.76 -41.82,0.66 -10.76,9.24 -4.59,33.26 17.98,45.04 41.12,21.45 90.41,21.88 131.9,1.16 22.76,-11.4 29.36,-35.29 18.77,-44.71 -10.57,-9.61 -28.22,-7.88 -41.8,-1.4"
         style="fill:#ffffff;fill-opacity:1;fill-rule:nonzero;stroke:none"
         id="path435" /><path
         d="m 1778.51,564.102 h -414.15 c -32.87,0 -59.52,26.648 -59.52,59.519 v 414.159 c 0,32.87 26.65,59.51 59.52,59.51 h 414.15 c 32.88,0 59.52,-26.64 59.52,-59.51 V 623.621 c 0,-32.871 -26.64,-59.519 -59.52,-59.519"
         style="fill:#398ac0;fill-opacity:1;fill-rule:nonzero;stroke:none"
         id="path437" /><g
         id="g439"
         transform="scale(10)"><text
           transform="matrix(1,0,0,-1,135.164,75.0281)"
           style="font-variant:normal;font-weight:800;font-size:20.809px;font-family:Montserrat;-inkscape-font-specification:Montserrat-ExtraBold;writing-mode:lr-tb;fill:#ffffff;fill-opacity:1;fill-rule:nonzero;stroke:none"
           id="text443"><tspan
             x="0 15.190404 28.653828"
             y="0"
             sodipodi:role="line"
             id="tspan441">CSS</tspan></text></g><path
         d="m 2813.21,3308.93 h 796.45 c 46.38,0 83.99,37.6 83.99,83.99 v 182.37 c 0,46.39 -37.61,84 -83.99,84 h -796.45 c -46.38,0 -83.99,-37.61 -83.99,-84 v -182.37 c 0,-46.39 37.61,-83.99 83.99,-83.99"
         style="fill:#ffffff;fill-opacity:1;fill-rule:nonzero;stroke:none"
         id="path445" /><path
         d="m 2729.22,3392.26 v -219.13 l 110.05,145.22 z"
         style="fill:#ffffff;fill-opacity:1;fill-rule:nonzero;stroke:none"
         id="path447" /><g
         id="g449"
         transform="scale(10)"><text
           transform="matrix(1,0,0,-1,282.287,342.787)"
           style="font-variant:normal;font-weight:800;font-size:19.9072px;font-family:Montserrat;-inkscape-font-specification:Montserrat-ExtraBold;writing-mode:lr-tb;fill:#398ac0;fill-opacity:1;fill-rule:nonzero;stroke:none"
           id="text453"><tspan
             x="0 13.835504 27.492697 40.133282 48.713394 61.971588"
             y="0"
             sodipodi:role="line"
             id="tspan451">phyton</tspan></text></g><path
         d="m 2879.7,1063.01 h -796.45 c -46.39,0 -84,37.6 -84,83.99 v 182.37 c 0,46.39 37.61,83.99 84,83.99 h 796.45 c 46.38,0 83.98,-37.6 83.98,-83.99 V 1147 c 0,-46.39 -37.6,-83.99 -83.98,-83.99"
         style="fill:#ffffff;fill-opacity:1;fill-rule:nonzero;stroke:none"
         id="path455" /><path
         d="M 2963.68,1146.34 V 927.211 l -110.05,145.209 z"
         style="fill:#ffffff;fill-opacity:1;fill-rule:nonzero;stroke:none"
         id="path457" /><g
         id="g459"
         transform="scale(10)"><text
           transform="matrix(1,0,0,-1,209.291,118.194)"
           style="font-variant:normal;font-weight:800;font-size:19.9072px;font-family:Montserrat;-inkscape-font-specification:Montserrat-ExtraBold;writing-mode:lr-tb;fill:#f9b031;fill-opacity:1;fill-rule:nonzero;stroke:none"
           id="text463"><tspan
             x="0 12.123485 24.007751 37.265945 51.160465 63.941765"
             y="0"
             sodipodi:role="line"
             id="tspan461">&lt;code&gt;</tspan></text></g></g></g></svg>
